####
#
# OBJ File Generated by Meshlab
#
####
# Object m419.obj
#
# Vertices: 112
# Faces: 196
#
####
vn 1.570824 -1.570538 1.571061
v 0.975000 0.025085 0.510192
vn -1.570761 -1.570492 1.571086
v 0.025004 0.025084 0.510200
vn -1.570809 1.571101 1.570531
v 0.025004 0.055541 0.510194
vn 1.570795 1.571054 1.570505
v 0.975000 0.055543 0.510187
vn 1.570785 -1.571070 -1.570535
v 0.974996 0.025002 0.034848
vn -1.570807 -1.571080 -1.570510
v 0.025000 0.025000 0.034855
vn -1.570809 1.570513 -1.571059
v 0.025000 0.055457 0.034850
vn 1.570783 1.570524 -1.571084
v 0.974996 0.055459 0.034843
vn 1.570823 -1.570538 1.571063
v 0.908908 0.059299 0.474232
vn -1.570791 -1.570543 1.571083
v 0.081553 0.059296 0.474238
vn -1.570779 1.571049 1.570532
v 0.081553 0.089754 0.474233
vn 1.570792 1.571054 1.570507
v 0.908908 0.089756 0.474227
vn 1.570792 -1.571075 -1.570536
v 0.908905 0.059229 0.075344
vn -1.570802 -1.571075 -1.570511
v 0.081551 0.059226 0.075350
vn -1.570813 1.570518 -1.571060
v 0.081550 0.089684 0.075345
vn 1.570778 1.570518 -1.571080
v 0.908905 0.089686 0.075339
vn -2.987898 2.513269 -0.000480
v 0.791121 0.385413 0.140005
vn -2.417186 2.513025 -1.756541
v 0.795644 0.385411 0.126085
vn -2.987843 -2.513288 0.000473
v 0.791122 0.078656 0.140059
vn -2.417200 -2.513576 -1.755736
v 0.795645 0.078654 0.126138
vn 0.000018 -6.283185 0.001100
v 0.814805 0.078656 0.140059
vn -0.000000 6.283185 -0.001119
v 0.814804 0.385413 0.140005
vn -0.923340 2.512719 -2.842032
v 0.807485 0.385409 0.117481
vn -0.923287 -2.513777 -2.841171
v 0.807486 0.078653 0.117535
vn 0.923218 2.512816 -2.842121
v 0.822122 0.385409 0.117481
vn 0.923248 -2.513811 -2.841190
v 0.822123 0.078653 0.117535
vn 2.417074 2.512920 -1.756602
v 0.833964 0.385411 0.126084
vn 2.417184 -2.513522 -1.755789
v 0.833965 0.078654 0.126138
vn 2.987902 2.513290 -0.000418
v 0.838487 0.385413 0.140005
vn 2.987844 -2.513270 0.000467
v 0.838488 0.078657 0.140059
vn 2.417173 2.513655 1.755646
v 0.833964 0.385416 0.153925
vn 2.417229 -2.512983 1.756638
v 0.833965 0.078659 0.153979
vn 0.923336 2.513721 2.841144
v 0.822123 0.385417 0.162529
vn 0.923313 -2.512758 2.842027
v 0.822123 0.078660 0.162583
vn -0.923217 2.513811 2.841229
v 0.807486 0.385417 0.162529
vn -0.923304 -2.512765 2.842038
v 0.807487 0.078660 0.162583
vn -2.417061 2.513521 1.755698
v 0.795644 0.385416 0.153926
vn -2.417213 -2.513000 1.756637
v 0.795645 0.078659 0.153979
vn -2.987768 2.513269 -0.000480
v 0.789533 0.381417 0.410093
vn -2.417377 2.513025 -1.756679
v 0.794056 0.381414 0.396173
vn -2.987819 -2.513288 0.000473
v 0.789534 0.074660 0.410147
vn -2.417210 -2.513577 -1.755743
v 0.794057 0.074657 0.396226
vn 0.000022 -6.283185 0.001103
v 0.813217 0.074660 0.410147
vn -0.000000 6.283185 -0.001119
v 0.813216 0.381417 0.410093
vn -0.923386 2.512719 -2.841949
v 0.805897 0.381413 0.387569
vn -0.923280 -2.513777 -2.841149
v 0.805898 0.074656 0.387623
vn 0.923264 2.512816 -2.842038
v 0.820534 0.381413 0.387569
vn 0.923252 -2.513811 -2.841202
v 0.820535 0.074656 0.387623
vn 2.417265 2.512920 -1.756741
v 0.832376 0.381414 0.396172
vn 2.417165 -2.513522 -1.755775
v 0.832377 0.074658 0.396226
vn 2.987772 2.513290 -0.000418
v 0.836899 0.381417 0.410093
vn 2.987850 -2.513270 0.000474
v 0.836900 0.074660 0.410147
vn 2.417313 2.513614 1.755822
v 0.832376 0.381419 0.424013
vn 2.417228 -2.512980 1.756639
v 0.832377 0.074662 0.424067
vn 0.923330 2.513762 2.841098
v 0.820534 0.381421 0.432617
vn 0.923323 -2.512755 2.842030
v 0.820535 0.074664 0.432671
vn -0.923262 2.513814 2.841147
v 0.805898 0.381421 0.432617
vn -0.923348 -2.512725 2.841979
v 0.805898 0.074664 0.432671
vn -2.417254 2.513524 1.755836
v 0.794056 0.381419 0.424014
vn -2.417275 -2.513040 1.756608
v 0.794057 0.074662 0.424067
vn -2.987768 2.513270 -0.000481
v 0.139771 0.397852 0.150678
vn -2.417375 2.513021 -1.756681
v 0.144294 0.397849 0.136758
vn -2.987843 -2.513290 0.000411
v 0.139772 0.091095 0.150732
vn -2.417259 -2.513655 -1.755717
v 0.144295 0.091093 0.136812
vn 0.000018 -6.283185 0.001100
v 0.163455 0.091095 0.150732
vn -0.000043 6.283185 -0.001088
v 0.163454 0.397852 0.150678
vn -0.923388 2.512715 -2.841948
v 0.156135 0.397848 0.128154
vn -0.923357 -2.513721 -2.841120
v 0.156136 0.091091 0.128208
vn 0.923288 2.512761 -2.842070
v 0.170772 0.397848 0.128154
vn 0.923250 -2.513807 -2.841188
v 0.170773 0.091091 0.128208
vn 2.417134 2.512998 -1.756584
v 0.182614 0.397850 0.136758
vn 2.417182 -2.513518 -1.755790
v 0.182615 0.091093 0.136811
vn 2.987837 2.513291 -0.000411
v 0.187137 0.397852 0.150678
vn 2.987844 -2.513272 0.000466
v 0.187138 0.091095 0.150732
vn 2.417251 2.513534 1.755843
v 0.182614 0.397854 0.164599
vn 2.417227 -2.512982 1.756640
v 0.182615 0.091098 0.164652
vn 0.923262 2.513813 2.841147
v 0.170772 0.397856 0.173202
vn 0.923314 -2.512755 2.842026
v 0.170773 0.091099 0.173256
vn -0.923262 2.513814 2.841147
v 0.156136 0.397856 0.173202
vn -0.923287 -2.512776 2.842051
v 0.156136 0.091099 0.173256
vn -2.417253 2.513525 1.755837
v 0.144294 0.397854 0.164599
vn -2.417202 -2.512960 1.756621
v 0.144295 0.091097 0.164653
vn -2.987737 2.513208 -0.000386
v 0.132646 0.397134 0.411872
vn -2.417326 2.512985 -1.756717
v 0.137169 0.397131 0.397952
vn -2.987819 -2.513288 0.000473
v 0.132647 0.090377 0.411926
vn -2.417150 -2.513536 -1.755782
v 0.137170 0.090375 0.398005
vn 0.000021 -6.283185 0.001098
v 0.156330 0.090377 0.411926
vn -0.000000 6.283185 -0.001119
v 0.156329 0.397134 0.411872
vn -0.923335 2.512759 -2.841986
v 0.149011 0.397130 0.389348
vn -0.923236 -2.513817 -2.841209
v 0.149012 0.090373 0.389402
vn 0.923315 2.512776 -2.842001
v 0.163648 0.397130 0.389348
vn 0.923295 -2.513771 -2.841161
v 0.163649 0.090373 0.389402
vn 2.417316 2.512960 -1.756704
v 0.175489 0.397131 0.397951
vn 2.417206 -2.513582 -1.755768
v 0.175490 0.090375 0.398005
vn 2.987772 2.513288 -0.000417
v 0.180012 0.397134 0.411872
vn 2.987850 -2.513269 0.000410
v 0.180013 0.090377 0.411925
vn 2.417364 2.513653 1.755784
v 0.175489 0.397136 0.425792
vn 2.417221 -2.512948 1.756620
v 0.175490 0.090380 0.425846
vn 0.923378 2.513716 2.841060
v 0.163648 0.397138 0.434396
vn 0.923409 -2.512843 2.842046
v 0.163649 0.090381 0.434449
vn -0.923311 2.513766 2.841109
v 0.149011 0.397138 0.434396
vn -0.923191 -2.512694 2.842015
v 0.149012 0.090381 0.434450
vn -2.417271 2.513631 1.755900
v 0.137170 0.397136 0.425793
vn -2.417222 -2.512997 1.756646
v 0.137170 0.090380 0.425846
vn 0.534791 -0.218363 0.800015
v 0.858060 0.380527 0.541593
vn 2.069768 2.708658 -0.000493
v 0.857735 0.533410 0.283270
vn -2.075140 2.697952 -0.000455
v 0.114013 0.532671 0.283277
vn -0.534341 -0.219641 0.800607
v 0.114339 0.379788 0.541600
vn 0.534774 -0.218643 -0.799942
v 0.858056 0.380436 0.025000
vn -0.534356 -0.219923 -0.800519
v 0.114334 0.379697 0.025008
vn 6.283171 0.013277 -0.000051
v 0.857950 0.431458 0.283288
vn -6.283171 -0.013304 0.000063
v 0.114228 0.430719 0.283295
# 112 vertices, 0 vertices normals

f 1//1 4//4 2//2
f 2//2 4//4 3//3
f 1//1 6//6 5//5
f 1//1 2//2 6//6
f 1//1 5//5 4//4
f 4//4 5//5 8//8
f 4//4 8//8 7//7
f 4//4 7//7 3//3
f 2//2 7//7 6//6
f 2//2 3//3 7//7
f 6//6 8//8 5//5
f 6//6 7//7 8//8
f 9//9 12//12 10//10
f 10//10 12//12 11//11
f 9//9 14//14 13//13
f 9//9 10//10 14//14
f 9//9 13//13 12//12
f 12//12 13//13 16//16
f 12//12 16//16 15//15
f 12//12 15//15 11//11
f 10//10 15//15 14//14
f 10//10 11//11 15//15
f 14//14 16//16 13//13
f 14//14 15//15 16//16
f 17//17 18//18 19//19
f 18//18 20//20 19//19
f 21//21 19//19 20//20
f 22//22 18//18 17//17
f 18//18 23//23 20//20
f 23//23 24//24 20//20
f 21//21 20//20 24//24
f 22//22 23//23 18//18
f 23//23 25//25 24//24
f 25//25 26//26 24//24
f 21//21 24//24 26//26
f 22//22 25//25 23//23
f 25//25 27//27 26//26
f 27//27 28//28 26//26
f 21//21 26//26 28//28
f 22//22 27//27 25//25
f 27//27 29//29 28//28
f 29//29 30//30 28//28
f 21//21 28//28 30//30
f 22//22 29//29 27//27
f 29//29 31//31 30//30
f 31//31 32//32 30//30
f 21//21 30//30 32//32
f 22//22 31//31 29//29
f 31//31 33//33 32//32
f 33//33 34//34 32//32
f 21//21 32//32 34//34
f 22//22 33//33 31//31
f 33//33 35//35 34//34
f 35//35 36//36 34//34
f 21//21 34//34 36//36
f 22//22 35//35 33//33
f 35//35 37//37 36//36
f 37//37 38//38 36//36
f 21//21 36//36 38//38
f 22//22 37//37 35//35
f 37//37 17//17 38//38
f 17//17 19//19 38//38
f 21//21 38//38 19//19
f 22//22 17//17 37//37
f 39//39 40//40 41//41
f 40//40 42//42 41//41
f 43//43 41//41 42//42
f 44//44 40//40 39//39
f 40//40 45//45 42//42
f 45//45 46//46 42//42
f 43//43 42//42 46//46
f 44//44 45//45 40//40
f 45//45 47//47 46//46
f 47//47 48//48 46//46
f 43//43 46//46 48//48
f 44//44 47//47 45//45
f 47//47 49//49 48//48
f 49//49 50//50 48//48
f 43//43 48//48 50//50
f 44//44 49//49 47//47
f 49//49 51//51 50//50
f 51//51 52//52 50//50
f 43//43 50//50 52//52
f 44//44 51//51 49//49
f 51//51 53//53 52//52
f 53//53 54//54 52//52
f 43//43 52//52 54//54
f 44//44 53//53 51//51
f 53//53 55//55 54//54
f 55//55 56//56 54//54
f 43//43 54//54 56//56
f 44//44 55//55 53//53
f 55//55 57//57 56//56
f 57//57 58//58 56//56
f 43//43 56//56 58//58
f 44//44 57//57 55//55
f 57//57 59//59 58//58
f 59//59 60//60 58//58
f 43//43 58//58 60//60
f 44//44 59//59 57//57
f 59//59 39//39 60//60
f 39//39 41//41 60//60
f 43//43 60//60 41//41
f 44//44 39//39 59//59
f 61//61 62//62 63//63
f 62//62 64//64 63//63
f 65//65 63//63 64//64
f 66//66 62//62 61//61
f 62//62 67//67 64//64
f 67//67 68//68 64//64
f 65//65 64//64 68//68
f 66//66 67//67 62//62
f 67//67 69//69 68//68
f 69//69 70//70 68//68
f 65//65 68//68 70//70
f 66//66 69//69 67//67
f 69//69 71//71 70//70
f 71//71 72//72 70//70
f 65//65 70//70 72//72
f 66//66 71//71 69//69
f 71//71 73//73 72//72
f 73//73 74//74 72//72
f 65//65 72//72 74//74
f 66//66 73//73 71//71
f 73//73 75//75 74//74
f 75//75 76//76 74//74
f 65//65 74//74 76//76
f 66//66 75//75 73//73
f 75//75 77//77 76//76
f 77//77 78//78 76//76
f 65//65 76//76 78//78
f 66//66 77//77 75//75
f 77//77 79//79 78//78
f 79//79 80//80 78//78
f 65//65 78//78 80//80
f 66//66 79//79 77//77
f 79//79 81//81 80//80
f 81//81 82//82 80//80
f 65//65 80//80 82//82
f 66//66 81//81 79//79
f 81//81 61//61 82//82
f 61//61 63//63 82//82
f 65//65 82//82 63//63
f 66//66 61//61 81//81
f 83//83 84//84 85//85
f 84//84 86//86 85//85
f 87//87 85//85 86//86
f 88//88 84//84 83//83
f 84//84 89//89 86//86
f 89//89 90//90 86//86
f 87//87 86//86 90//90
f 88//88 89//89 84//84
f 89//89 91//91 90//90
f 91//91 92//92 90//90
f 87//87 90//90 92//92
f 88//88 91//91 89//89
f 91//91 93//93 92//92
f 93//93 94//94 92//92
f 87//87 92//92 94//94
f 88//88 93//93 91//91
f 93//93 95//95 94//94
f 95//95 96//96 94//94
f 87//87 94//94 96//96
f 88//88 95//95 93//93
f 95//95 97//97 96//96
f 97//97 98//98 96//96
f 87//87 96//96 98//98
f 88//88 97//97 95//95
f 97//97 99//99 98//98
f 99//99 100//100 98//98
f 87//87 98//98 100//100
f 88//88 99//99 97//97
f 99//99 101//101 100//100
f 101//101 102//102 100//100
f 87//87 100//100 102//102
f 88//88 101//101 99//99
f 101//101 103//103 102//102
f 103//103 104//104 102//102
f 87//87 102//102 104//104
f 88//88 103//103 101//101
f 103//103 83//83 104//104
f 83//83 85//85 104//104
f 87//87 104//104 85//85
f 88//88 83//83 103//103
f 105//105 106//106 107//107
f 105//105 107//107 108//108
f 109//109 105//105 108//108
f 109//109 108//108 110//110
f 106//106 109//109 110//110
f 106//106 110//110 107//107
f 106//106 105//105 111//111
f 105//105 109//109 111//111
f 109//109 106//106 111//111
f 107//107 110//110 112//112
f 110//110 108//108 112//112
f 108//108 107//107 112//112
# 196 faces, 0 coords texture

# End of File
