####
#
# OBJ File Generated by Meshlab
#
####
# Object m455.obj
#
# Vertices: 52
# Faces: 70
#
####
vn -1.570796 0.000000 1.570796
v 0.025000 0.025000 0.888636
vn -2.158797 1.306983 2.442115
v 0.025000 0.370455 0.888636
vn -1.570796 1.570796 1.570796
v 0.327273 0.543182 0.931818
vn -1.570796 1.570796 -1.570796
v 0.327273 0.543182 0.802273
vn 1.570796 1.570796 -1.570796
v 0.456818 0.543182 0.802273
vn 1.653938 1.570796 1.570796
v 0.456818 0.543182 0.931818
vn 2.543748 1.154856 2.543748
v 0.715909 0.370455 0.975000
vn 1.570796 0.000000 1.570796
v 0.715909 0.025000 0.975000
vn -0.083142 0.000000 1.570796
v 0.456818 0.025000 0.975000
vn 1.570796 0.000000 -1.570796
v 0.456818 0.025000 0.802273
vn -1.570796 0.000000 -1.570796
v 0.327273 0.025000 0.802273
vn -1.570796 0.000000 1.570796
v 0.327273 0.025000 0.931818
vn -2.442110 1.306986 2.158794
v 0.456818 0.370455 0.975000
vn -1.570796 0.000000 0.000000
v 0.456818 0.370455 0.931818
vn 0.000000 0.000000 1.570796
v 0.327273 0.370455 0.888636
vn 0.000000 0.000000 1.570796
v 0.327273 0.025000 0.888636
vn -1.570796 0.000000 1.570796
v 0.456818 0.025000 0.931818
vn 0.000005 2.613969 1.965595
v 0.586364 0.456818 0.975000
vn 1.570796 0.000000 -1.570796
v 0.715909 0.025000 0.715909
vn 2.514400 1.086570 -2.677100
v 0.715909 0.370455 0.715909
vn 2.344023 2.746457 0.303680
v 0.715909 0.456818 0.845455
vn 0.486368 3.029907 0.486368
v 0.586364 0.456818 0.845455
vn 1.570796 2.975772 -4.380716
v 0.629545 0.370455 0.715909
vn 1.570796 1.570796 -1.570796
v 0.629545 0.370455 0.284091
vn 1.570796 1.570796 -1.570796
v 0.543182 0.370455 0.284091
vn 2.442110 1.306986 -2.158794
v 0.543182 0.370455 0.025000
vn -2.442115 1.306983 -2.158797
v 0.284091 0.370455 0.025000
vn 1.570796 0.000000 -1.570796
v 0.629545 0.025000 0.715909
vn 1.570796 0.000000 -1.570796
v 0.629545 0.025000 0.284091
vn 1.570796 0.000000 -1.570796
v 0.543182 0.025000 0.284091
vn 1.570796 0.000000 -1.570796
v 0.543182 0.025000 0.025000
vn -1.570796 0.000000 -1.570796
v 0.284091 0.025000 0.025000
vn -1.570796 1.570796 -1.570796
v 0.284091 0.370455 0.284091
vn -1.570796 0.000000 -1.570796
v 0.284091 0.025000 0.284091
vn -1.570796 1.570796 -1.570796
v 0.197727 0.370455 0.284091
vn -1.570796 0.000000 -1.570796
v 0.197727 0.025000 0.284091
vn -1.570796 1.570796 -1.570796
v 0.197727 0.370455 0.413636
vn -1.570796 0.000000 -1.570796
v 0.197727 0.025000 0.413636
vn -1.570796 1.570796 -1.570796
v 0.111364 0.370455 0.413636
vn -1.570796 0.000000 -1.570796
v 0.111364 0.025000 0.413636
vn -1.570796 4.970173 -3.313424
v 0.111364 0.370455 0.629545
vn -1.570796 0.000000 -1.570796
v 0.111364 0.025000 0.629545
vn -2.158794 1.306986 -2.442110
v 0.025000 0.370455 0.629545
vn -1.570796 0.000000 -1.570796
v 0.025000 0.025000 0.629545
vn -1.965595 2.613969 0.000005
v 0.025000 0.456818 0.759091
vn 1.021387 4.221420 -2.237024
v 0.543182 0.370455 0.715909
vn -1.256271 6.125022 -1.256261
v 0.284091 0.370455 0.629545
vn -1.256261 3.768828 1.256271
v 0.456818 0.370455 0.888636
vn 0.234875 2.827436 -1.059262
v 0.413636 0.456818 0.759091
vn -0.000005 2.613969 -1.965595
v 0.413636 0.456818 0.025000
vn -0.130760 4.360544 -2.284062
v 0.586364 0.456818 0.759091
vn 0.000000 1.570791 0.000000
v 0.197727 0.370455 0.715909
# 52 vertices, 0 vertices normals

f 1//1 16//16 15//15
f 12//12 17//17 6//6
f 11//11 12//12 3//3
f 11//11 4//4 5//5
f 9//9 10//10 5//5
f 3//3 6//6 5//5
f 9//9 8//8 7//7
f 17//17 9//9 13//13
f 13//13 7//7 18//18
f 8//8 19//19 20//20
f 7//7 20//20 21//21
f 7//7 22//22 18//18
f 7//7 21//21 22//22
f 51//51 45//45 2//2
f 51//51 48//48 13//13
f 51//51 22//22 21//21
f 49//49 51//51 23//23
f 20//20 23//23 51//51
f 49//49 46//46 26//26
f 46//46 23//23 24//24
f 49//49 23//23 46//46
f 49//49 50//50 27//27
f 49//49 47//47 41//41
f 52//52 37//37 39//39
f 47//47 33//33 35//35
f 20//20 19//19 28//28
f 23//23 28//28 29//29
f 24//24 29//29 30//30
f 25//25 30//30 31//31
f 26//26 31//31 32//32
f 27//27 32//32 34//34
f 33//33 34//34 36//36
f 35//35 36//36 38//38
f 37//37 38//38 40//40
f 39//39 40//40 42//42
f 41//41 42//42 44//44
f 43//43 44//44 1//1
f 1//1 15//15 2//2
f 12//12 6//6 3//3
f 11//11 3//3 4//4
f 11//11 5//5 10//10
f 9//9 5//5 6//6
f 3//3 5//5 4//4
f 9//9 7//7 13//13
f 17//17 13//13 14//14
f 8//8 20//20 7//7
f 51//51 2//2 48//48
f 51//51 13//13 18//18
f 51//51 21//21 20//20
f 49//49 26//26 50//50
f 46//46 24//24 25//25
f 49//49 27//27 47//47
f 49//49 41//41 43//43
f 49//49 43//43 45//45
f 52//52 39//39 41//41
f 47//47 35//35 52//52
f 20//20 28//28 23//23
f 23//23 29//29 24//24
f 24//24 30//30 25//25
f 25//25 31//31 26//26
f 26//26 32//32 27//27
f 26//26 27//27 50//50
f 27//27 34//34 33//33
f 33//33 36//36 35//35
f 35//35 38//38 37//37
f 37//37 40//40 39//39
f 39//39 42//42 41//41
f 41//41 44//44 43//43
f 43//43 1//1 2//2
f 43//43 2//2 45//45
# 70 faces, 0 coords texture

# End of File
