####
#
# OBJ File Generated by Meshlab
#
####
# Object m1702.obj
#
# Vertices: 88
# Faces: 100
#
####
vn -2.265535 1.206719 -2.576396
v 0.027363 0.500000 0.027363
vn -2.265534 1.206720 2.576395
v 0.027363 0.500000 0.500000
vn 2.265534 1.206720 2.576395
v 0.972637 0.500000 0.500000
vn 2.265535 1.206719 -2.576396
v 0.972637 0.500000 0.027363
vn -1.570796 -1.570796 -1.570796
v 0.027363 0.027363 0.027363
vn -1.570796 -1.570796 1.570796
v 0.027363 0.027363 0.500000
vn 1.570796 -1.570796 1.570796
v 0.972637 0.027363 0.500000
vn 1.570796 -1.570796 -1.570796
v 0.972637 0.027363 0.027363
vn -2.446855 2.777516 1.005598
v 0.027363 0.618159 0.358209
vn -2.446854 2.777515 -1.005599
v 0.027363 0.618159 0.169154
vn 2.446855 2.777516 1.005598
v 0.972637 0.618159 0.358209
vn 2.446854 2.777515 -1.005599
v 0.972637 0.618159 0.169154
vn 0.000000 1.205099 2.578337
v 0.310945 0.500000 0.502363
vn 0.000000 0.000000 1.570796
v 0.310945 0.027363 0.502363
vn 0.000000 0.000000 1.570796
v 0.346393 0.027363 0.502363
vn 0.000000 1.205099 2.578337
v 0.346393 0.500000 0.502363
vn 0.000000 1.205099 2.578337
v 0.653607 0.500000 0.502363
vn 0.000000 0.000000 1.570796
v 0.653607 0.027363 0.502363
vn 0.000000 0.000000 1.570796
v 0.689055 0.027363 0.502363
vn 0.000000 1.205099 2.578337
v 0.689055 0.500000 0.502363
vn 0.000000 1.205099 -2.578337
v 0.346393 0.500000 0.025000
vn 0.000000 0.000000 -1.570796
v 0.346393 0.027363 0.025000
vn 0.000000 0.000000 -1.570796
v 0.310945 0.027363 0.025000
vn 0.000000 1.205099 -2.578337
v 0.310945 0.500000 0.025000
vn 0.000000 1.205099 -2.578337
v 0.689055 0.500000 0.025000
vn 0.000000 0.000000 -1.570796
v 0.689055 0.027363 0.025000
vn 0.000000 0.000000 -1.570796
v 0.653607 0.027363 0.025000
vn 0.000000 1.205099 -2.578337
v 0.653607 0.500000 0.025000
vn 0.000000 2.775895 1.007540
v 0.310945 0.620522 0.358209
vn 0.000000 2.775895 -1.007540
v 0.310945 0.620522 0.169154
vn 0.000000 2.775895 1.007540
v 0.346393 0.620522 0.358209
vn 0.000000 2.775895 -1.007540
v 0.346393 0.620522 0.169154
vn 0.000000 2.775895 -1.007540
v 0.653607 0.620522 0.169154
vn 0.000000 2.775895 1.007540
v 0.653607 0.620522 0.358209
vn 0.000000 2.775895 -1.007540
v 0.689055 0.620522 0.169154
vn 0.000000 2.775895 1.007540
v 0.689055 0.620522 0.358209
vn 0.000000 -1.570796 0.000000
v 0.310945 0.025000 0.502363
vn 0.000000 -1.570796 0.000000
v 0.310945 0.025000 0.025000
vn 0.000000 -1.570796 0.000000
v 0.346393 0.025000 0.025000
vn 0.000000 -1.570796 0.000000
v 0.346393 0.025000 0.502363
vn 0.000000 -1.570796 0.000000
v 0.653607 0.025000 0.502363
vn 0.000000 -1.570796 0.000000
v 0.653607 0.025000 0.025000
vn 0.000000 -1.570796 0.000000
v 0.689055 0.025000 0.025000
vn 0.000000 -1.570796 0.000000
v 0.689055 0.025000 0.502363
vn -1.570796 -1.570796 0.000000
v 0.025000 0.025000 0.245958
vn -1.570796 -1.570796 0.000000
v 0.025000 0.025000 0.281405
vn -3.141593 0.000000 0.000000
v 0.025000 0.500000 0.281405
vn -3.141593 0.000000 0.000000
v 0.025000 0.500000 0.245958
vn 3.141593 0.000000 0.000000
v 0.975000 0.500000 0.245958
vn 3.141593 0.000000 0.000000
v 0.975000 0.500000 0.281405
vn 1.570796 -1.570796 0.000000
v 0.975000 0.025000 0.281405
vn 1.570796 -1.570796 0.000000
v 0.975000 0.025000 0.245958
vn -1.570796 1.570796 0.000000
v 0.025000 0.620522 0.281405
vn -1.570796 1.570796 0.000000
v 0.025000 0.620522 0.245958
vn 1.570796 1.570796 0.000000
v 0.975000 0.620522 0.245958
vn 1.570796 1.570796 0.000000
v 0.975000 0.620522 0.281405
vn -1.570796 0.000000 -1.570796
v 0.025945 0.501418 0.025945
vn -1.570796 0.000000 1.570796
v 0.025945 0.501418 0.501418
vn 1.570796 0.000000 1.570796
v 0.974055 0.501418 0.501418
vn 1.570796 0.000000 -1.570796
v 0.974055 0.501418 0.025945
vn -1.570796 0.000000 -1.570796
v 0.025945 0.477786 0.025945
vn -1.570796 0.000000 1.570796
v 0.025945 0.477786 0.501418
vn 1.570796 0.000000 1.570796
v 0.974055 0.477786 0.501418
vn 1.570796 0.000000 -1.570796
v 0.974055 0.477786 0.025945
vn -1.570796 -1.570796 -1.570796
v 0.452736 0.398383 0.502363
vn 1.570796 -1.570796 -1.570796
v 0.547264 0.398383 0.502363
vn 1.570796 1.570796 -1.570796
v 0.547264 0.507090 0.502363
vn -1.570796 1.570796 -1.570796
v 0.452736 0.507090 0.502363
vn -1.570796 -1.570796 1.570796
v 0.452736 0.398383 0.516542
vn 1.570796 -1.570796 1.570796
v 0.547264 0.398383 0.516542
vn 1.570796 1.570796 1.570796
v 0.547264 0.507090 0.516542
vn -1.570796 1.570796 1.570796
v 0.452736 0.507090 0.516542
vn -1.570820 -2.212357 0.200989
v 0.452736 0.496248 0.507605
vn 1.570820 -2.212357 0.200989
v 0.547264 0.496248 0.507605
vn 1.570773 -0.200984 -2.212304
v 0.547264 0.540124 0.454959
vn -1.570773 -0.200984 -2.212304
v 0.452736 0.540124 0.454959
vn -1.570773 0.200984 2.212304
v 0.452736 0.507140 0.516683
vn 1.570773 0.200984 2.212304
v 0.547264 0.507140 0.516683
vn 1.570820 2.212357 -0.200989
v 0.547264 0.551016 0.464037
vn -1.570820 2.212357 -0.200989
v 0.452736 0.551016 0.464037
vn -1.570778 1.569533 -1.572030
v 0.496455 0.457456 0.501185
vn 1.570778 1.569533 -1.572030
v 0.503545 0.457456 0.501185
vn 1.570772 1.571992 1.569561
v 0.503545 0.457469 0.517728
vn -1.570772 1.571992 1.569561
v 0.496455 0.457469 0.517728
vn -1.570814 -1.572059 -1.569561
v 0.496455 0.433824 0.501204
vn 1.570814 -1.572059 -1.569561
v 0.503545 0.433824 0.501204
vn 1.570821 -1.569599 1.572030
v 0.503545 0.433837 0.517746
vn -1.570821 -1.569599 1.572030
v 0.496455 0.433837 0.517746
# 88 vertices, 0 vertices normals

f 1//1 5//5 6//6
f 2//2 6//6 7//7
f 3//3 7//7 8//8
f 4//4 8//8 5//5
f 8//8 7//7 6//6
f 1//1 2//2 9//9
f 3//3 4//4 12//12
f 9//9 2//2 3//3
f 10//10 9//9 11//11
f 1//1 10//10 12//12
f 13//13 14//14 15//15
f 17//17 18//18 19//19
f 21//21 22//22 23//23
f 25//25 26//26 27//27
f 37//37 38//38 39//39
f 41//41 42//42 43//43
f 45//45 46//46 47//47
f 49//49 50//50 51//51
f 52//52 51//51 46//46
f 57//57 60//60 64//64
f 58//58 62//62 63//63
f 57//57 61//61 62//62
f 60//60 59//59 63//63
f 13//13 16//16 31//31
f 29//29 31//31 32//32
f 30//30 32//32 21//21
f 17//17 20//20 36//36
f 34//34 36//36 35//35
f 33//33 35//35 25//25
f 48//48 47//47 53//53
f 55//55 56//56 50//50
f 54//54 53//53 56//56
f 65//65 68//68 66//66
f 66//66 68//68 67//67
f 65//65 70//70 69//69
f 65//65 66//66 70//70
f 65//65 69//69 68//68
f 68//68 69//69 72//72
f 68//68 72//72 71//71
f 68//68 71//71 67//67
f 66//66 71//71 70//70
f 66//66 67//67 71//71
f 70//70 72//72 69//69
f 70//70 71//71 72//72
f 73//73 76//76 74//74
f 74//74 76//76 75//75
f 73//73 78//78 77//77
f 73//73 74//74 78//78
f 73//73 77//77 76//76
f 76//76 77//77 80//80
f 76//76 80//80 79//79
f 76//76 79//79 75//75
f 74//74 79//79 78//78
f 74//74 75//75 79//79
f 78//78 80//80 77//77
f 78//78 79//79 80//80
f 81//81 84//84 82//82
f 82//82 84//84 83//83
f 81//81 86//86 85//85
f 81//81 82//82 86//86
f 81//81 85//85 84//84
f 84//84 85//85 88//88
f 84//84 88//88 87//87
f 84//84 87//87 83//83
f 82//82 87//87 86//86
f 82//82 83//83 87//87
f 86//86 88//88 85//85
f 86//86 87//87 88//88
f 1//1 6//6 2//2
f 2//2 7//7 3//3
f 3//3 8//8 4//4
f 4//4 5//5 1//1
f 8//8 6//6 5//5
f 1//1 9//9 10//10
f 3//3 12//12 11//11
f 9//9 3//3 11//11
f 10//10 11//11 12//12
f 1//1 12//12 4//4
f 13//13 15//15 16//16
f 17//17 19//19 20//20
f 21//21 23//23 24//24
f 25//25 27//27 28//28
f 37//37 39//39 40//40
f 41//41 43//43 44//44
f 45//45 47//47 48//48
f 49//49 51//51 52//52
f 52//52 46//46 45//45
f 57//57 64//64 61//61
f 58//58 63//63 59//59
f 57//57 62//62 58//58
f 60//60 63//63 64//64
f 13//13 31//31 29//29
f 29//29 32//32 30//30
f 30//30 21//21 24//24
f 17//17 36//36 34//34
f 34//34 35//35 33//33
f 33//33 25//25 28//28
f 48//48 53//53 54//54
f 55//55 50//50 49//49
f 54//54 56//56 55//55
# 100 faces, 0 coords texture

# End of File
