####
#
# OBJ File Generated by Meshlab
#
####
# Object m1703.obj
#
# Vertices: 156
# Faces: 276
#
####
vn -1.564742 1.708572 1.658620
v 0.715706 0.025000 0.916882
vn 1.565572 1.698800 1.652376
v 0.163588 0.025000 0.916882
vn 2.062275 -1.362194 1.810949
v 0.134529 0.380412 0.916882
vn 0.901435 -3.007956 3.080461
v 0.168059 0.391588 0.916882
vn 0.809496 -3.035510 3.141613
v 0.201588 0.400529 0.916882
vn 0.712787 -3.058050 3.078344
v 0.235118 0.409471 0.916882
vn 0.515647 -3.097314 3.076785
v 0.268647 0.416176 0.916882
vn 0.402473 -3.115679 3.133393
v 0.302176 0.420647 0.916882
vn 0.402421 -3.115686 3.149759
v 0.337941 0.425118 0.916882
vn 0.305588 -3.124756 3.071500
v 0.371471 0.429588 0.916882
vn 0.098016 -3.138532 3.079153
v 0.407235 0.431824 0.916882
vn 0.000000 -3.141593 0.000000
v 0.440765 0.431824 0.916882
vn -0.098014 -3.138532 3.079155
v 0.474294 0.431824 0.916882
vn -0.202489 -3.135054 3.137470
v 0.510059 0.429588 0.916882
vn -0.299325 -3.125983 3.083788
v 0.543588 0.427353 0.916882
vn -0.502917 -3.098955 3.068557
v 0.579353 0.422882 0.916882
vn -0.616082 -3.080592 3.141627
v 0.612882 0.416176 0.916882
vn -0.616082 -3.080592 3.141558
v 0.646412 0.409471 0.916882
vn -0.804810 -3.030475 3.017234
v 0.679941 0.402765 0.916882
vn -0.993459 -2.980376 3.141611
v 0.713471 0.391588 0.916882
vn -2.061459 -1.352417 1.804715
v 0.747000 0.380412 0.916882
vn -1.564742 1.708572 -1.658620
v 0.715706 0.025000 0.945941
vn 1.565572 1.698800 -1.652376
v 0.163588 0.025000 0.945941
vn 2.062275 -1.362194 -1.810949
v 0.134529 0.380412 0.945941
vn 0.901435 -3.007956 -3.080461
v 0.168059 0.391588 0.945941
vn 0.809496 -3.035510 -3.141613
v 0.201588 0.400529 0.945941
vn 0.712787 -3.058050 -3.078344
v 0.235118 0.409471 0.945941
vn 0.515647 -3.097314 -3.076785
v 0.268647 0.416176 0.945941
vn 0.402473 -3.115679 -3.133393
v 0.302176 0.420647 0.945941
vn 0.402421 -3.115686 -3.149759
v 0.337941 0.425118 0.945941
vn 0.305588 -3.124756 -3.071500
v 0.371471 0.429588 0.945941
vn 0.098016 -3.138532 -3.079153
v 0.407235 0.431824 0.945941
vn 0.000000 -3.141593 0.000000
v 0.440765 0.431824 0.945941
vn -0.098014 -3.138532 -3.079155
v 0.474294 0.431824 0.945941
vn -0.202489 -3.135054 -3.137470
v 0.510059 0.429588 0.945941
vn -0.299325 -3.125983 -3.083788
v 0.543588 0.427353 0.945941
vn -0.502917 -3.098955 -3.068557
v 0.579353 0.422882 0.945941
vn -0.616082 -3.080592 -3.141627
v 0.612882 0.416176 0.945941
vn -0.616082 -3.080592 -3.141558
v 0.646412 0.409471 0.945941
vn -0.804810 -3.030475 -3.017234
v 0.679941 0.402765 0.945941
vn -0.993459 -2.980376 -3.141611
v 0.713471 0.391588 0.945941
vn -2.061459 -1.352417 -1.804715
v 0.747000 0.380412 0.945941
vn -1.871531 -1.389338 1.671901
v 0.735824 0.367000 0.080882
vn -1.255467 1.691258 1.469657
v 0.704529 0.042882 0.080882
vn 1.871584 1.389332 1.671939
v 0.693353 0.045118 0.080882
vn 1.255520 -1.691264 1.469688
v 0.724647 0.369235 0.080882
vn 1.566357 -1.452784 1.495597
v 0.147941 0.369235 0.080882
vn -1.566296 -1.689618 1.646513
v 0.159118 0.369235 0.080882
vn -1.874328 1.421476 1.692458
v 0.183706 0.045118 0.080882
vn 1.258325 1.658310 1.448618
v 0.172529 0.042882 0.080882
vn 1.570796 -1.570796 1.570796
v 0.174765 0.042882 0.080882
vn -1.570796 -1.570796 1.570796
v 0.706765 0.042882 0.080882
vn -1.570796 1.570796 1.570796
v 0.706765 0.033941 0.080882
vn 1.570796 1.570796 1.570796
v 0.174765 0.033941 0.080882
vn -1.871531 -1.389338 -1.671901
v 0.735824 0.367000 0.925824
vn -1.255467 1.691258 -1.469657
v 0.704529 0.042882 0.925824
vn 1.871584 1.389332 -1.671939
v 0.693353 0.045118 0.925824
vn 1.255520 -1.691264 -1.469688
v 0.724647 0.369235 0.925824
vn 1.566357 -1.452784 -1.495597
v 0.147941 0.369235 0.925824
vn -1.566296 -1.689618 -1.646513
v 0.159118 0.369235 0.925824
vn -1.874328 1.421476 -1.692458
v 0.183706 0.045118 0.925824
vn 1.258325 1.658310 -1.448618
v 0.172529 0.042882 0.925824
vn 1.570796 -1.570796 -1.570796
v 0.174765 0.042882 0.925824
vn -1.570796 -1.570796 -1.570796
v 0.706765 0.042882 0.925824
vn -1.570796 1.570796 -1.570796
v 0.706765 0.033941 0.925824
vn 1.570796 1.570796 -1.570796
v 0.174765 0.033941 0.925824
vn -1.564742 1.708572 1.658620
v 0.715706 0.025000 0.058529
vn 1.565572 1.698800 1.652376
v 0.163588 0.025000 0.058529
vn 2.062275 -1.362194 1.810949
v 0.134529 0.380412 0.058529
vn 0.901435 -3.007956 3.080461
v 0.168059 0.391588 0.058529
vn 0.809496 -3.035510 3.141613
v 0.201588 0.400529 0.058529
vn 0.712787 -3.058050 3.078344
v 0.235118 0.409471 0.058529
vn 0.515647 -3.097314 3.076785
v 0.268647 0.416176 0.058529
vn 0.402473 -3.115679 3.133393
v 0.302176 0.420647 0.058529
vn 0.402421 -3.115686 3.149759
v 0.337941 0.425118 0.058529
vn 0.305588 -3.124756 3.071500
v 0.371471 0.429588 0.058529
vn 0.098016 -3.138532 3.079153
v 0.407235 0.431824 0.058529
vn 0.000000 -3.141593 0.000000
v 0.440765 0.431824 0.058529
vn -0.098014 -3.138532 3.079155
v 0.474294 0.431824 0.058529
vn -0.202489 -3.135054 3.137470
v 0.510059 0.429588 0.058529
vn -0.299325 -3.125983 3.083788
v 0.543588 0.427353 0.058529
vn -0.502917 -3.098955 3.068557
v 0.579353 0.422882 0.058529
vn -0.616082 -3.080592 3.141627
v 0.612882 0.416176 0.058529
vn -0.616082 -3.080592 3.141558
v 0.646412 0.409471 0.058529
vn -0.804810 -3.030475 3.017234
v 0.679941 0.402765 0.058529
vn -0.993459 -2.980376 3.141611
v 0.713471 0.391588 0.058529
vn -2.061459 -1.352417 1.804715
v 0.747000 0.380412 0.058529
vn -1.564742 1.708572 -1.658620
v 0.715706 0.025000 0.085353
vn 1.565572 1.698800 -1.652376
v 0.163588 0.025000 0.085353
vn 2.062275 -1.362194 -1.810949
v 0.134529 0.380412 0.085353
vn 0.901435 -3.007956 -3.080461
v 0.168059 0.391588 0.085353
vn 0.809496 -3.035510 -3.141613
v 0.201588 0.400529 0.085353
vn 0.712787 -3.058050 -3.078344
v 0.235118 0.409471 0.085353
vn 0.515647 -3.097314 -3.076785
v 0.268647 0.416176 0.085353
vn 0.402473 -3.115679 -3.133393
v 0.302176 0.420647 0.085353
vn 0.402421 -3.115686 -3.149759
v 0.337941 0.425118 0.085353
vn 0.305588 -3.124756 -3.071500
v 0.371471 0.429588 0.085353
vn 0.098016 -3.138532 -3.079153
v 0.407235 0.431824 0.085353
vn 0.000000 -3.141593 0.000000
v 0.440765 0.431824 0.085353
vn -0.098014 -3.138532 -3.079155
v 0.474294 0.431824 0.085353
vn -0.202489 -3.135054 -3.137470
v 0.510059 0.429588 0.085353
vn -0.299325 -3.125983 -3.083788
v 0.543588 0.427353 0.085353
vn -0.502917 -3.098955 -3.068557
v 0.579353 0.422882 0.085353
vn -0.616082 -3.080592 -3.141627
v 0.612882 0.416176 0.085353
vn -0.616082 -3.080592 -3.141558
v 0.646412 0.409471 0.085353
vn -0.804810 -3.030475 -3.017234
v 0.679941 0.402765 0.085353
vn -0.993459 -2.980376 -3.141611
v 0.713471 0.391588 0.085353
vn -2.061459 -1.352417 -1.804715
v 0.747000 0.380412 0.085353
vn 2.157789 -2.250681 2.896075
v 0.291000 0.776059 0.040647
vn -0.292108 -2.232716 1.598267
v 0.476529 0.914647 0.040647
vn -2.414295 0.060124 1.753714
v 0.552529 0.818529 0.040647
vn 0.062923 1.992106 1.374525
v 0.536882 0.800647 0.040647
vn 0.297172 2.210282 4.704515
v 0.469824 0.887824 0.040647
vn -2.159554 2.252194 3.374773
v 0.304412 0.762647 0.040647
vn -2.613066 1.709196 3.362701
v 0.156882 0.583824 0.040647
vn -2.166953 -0.662052 4.672012
v 0.067471 0.407235 0.040647
vn -1.947690 -0.337229 1.361030
v 0.163588 0.353588 0.040647
vn -0.390659 2.391207 1.761561
v 0.147941 0.335706 0.040647
vn 2.183557 0.629142 1.617205
v 0.040647 0.398294 0.040647
vn 2.609817 -1.719907 2.939550
v 0.143471 0.595000 0.040647
vn 2.157789 -2.250681 -2.896075
v 0.291000 0.776059 0.966059
vn -0.292108 -2.232716 -1.598267
v 0.476529 0.914647 0.966059
vn -2.414295 0.060124 -1.753714
v 0.552529 0.818529 0.966059
vn 0.062923 1.992106 -1.374525
v 0.536882 0.800647 0.966059
vn 0.297172 2.210282 -4.704515
v 0.469824 0.887824 0.966059
vn -2.159554 2.252194 -3.374773
v 0.304412 0.762647 0.966059
vn -2.613066 1.709196 -3.362701
v 0.156882 0.583824 0.966059
vn -2.166953 -0.662052 -4.672012
v 0.067471 0.407235 0.966059
vn -1.947690 -0.337229 -1.361030
v 0.163588 0.353588 0.966059
vn -0.390659 2.391207 -1.761561
v 0.147941 0.335706 0.966059
vn 2.183557 0.629142 -1.617205
v 0.040647 0.398294 0.966059
vn 2.609817 -1.719907 -2.939550
v 0.143471 0.595000 0.966059
vn -2.421814 0.009055 1.760483
v 0.561471 0.816294 0.025000
vn -0.409680 2.358362 1.732583
v 0.150176 0.322294 0.025000
vn 2.177625 0.603221 1.605480
v 0.025000 0.396059 0.025000
vn 2.596531 -1.743955 2.954353
v 0.136765 0.601706 0.025000
vn 2.182855 -2.232162 2.918587
v 0.286529 0.785000 0.025000
vn -0.248185 -2.234293 1.594885
v 0.469824 0.928059 0.025000
vn -2.421814 0.009055 -1.760483
v 0.561471 0.816294 0.054059
vn -0.409680 2.358362 -1.732583
v 0.150176 0.322294 0.054059
vn 2.177625 0.603221 -1.605480
v 0.025000 0.396059 0.054059
vn 2.596531 -1.743955 -2.954353
v 0.136765 0.601706 0.054059
vn 2.182855 -2.232162 -2.918587
v 0.286529 0.785000 0.054059
vn -0.248185 -2.234293 -1.594885
v 0.469824 0.928059 0.054059
vn -2.421814 0.009055 1.760483
v 0.561471 0.816294 0.943706
vn -0.409680 2.358362 1.732583
v 0.150176 0.322294 0.943706
vn 2.177625 0.603221 1.605480
v 0.025000 0.396059 0.943706
vn 2.596531 -1.743955 2.954353
v 0.136765 0.601706 0.943706
vn 2.182855 -2.232162 2.918587
v 0.286529 0.785000 0.943706
vn -0.248185 -2.234293 1.594885
v 0.469824 0.928059 0.943706
vn -2.421814 0.009055 -1.760483
v 0.561471 0.816294 0.975000
vn -0.409680 2.358362 -1.732583
v 0.150176 0.322294 0.975000
vn 2.177625 0.603221 -1.605480
v 0.025000 0.396059 0.975000
vn 2.596531 -1.743955 -2.954353
v 0.136765 0.601706 0.975000
vn 2.182855 -2.232162 -2.918587
v 0.286529 0.785000 0.975000
vn -0.248185 -2.234293 -1.594885
v 0.469824 0.928059 0.975000
# 156 vertices, 0 vertices normals

f 3//3 2//2 1//1
f 4//4 3//3 1//1
f 5//5 4//4 1//1
f 6//6 5//5 1//1
f 7//7 6//6 1//1
f 8//8 7//7 1//1
f 9//9 8//8 1//1
f 9//9 1//1 21//21
f 9//9 21//21 20//20
f 10//10 9//9 20//20
f 11//11 10//10 20//20
f 11//11 20//20 19//19
f 11//11 19//19 18//18
f 11//11 18//18 17//17
f 11//11 17//17 16//16
f 11//11 16//16 15//15
f 11//11 15//15 14//14
f 11//11 14//14 13//13
f 1//1 2//2 23//23
f 1//1 23//23 22//22
f 2//2 3//3 24//24
f 2//2 24//24 23//23
f 3//3 4//4 25//25
f 3//3 25//25 24//24
f 4//4 5//5 26//26
f 4//4 26//26 25//25
f 5//5 6//6 27//27
f 5//5 27//27 26//26
f 6//6 7//7 28//28
f 6//6 28//28 27//27
f 7//7 8//8 29//29
f 7//7 29//29 28//28
f 8//8 9//9 30//30
f 8//8 30//30 29//29
f 9//9 10//10 31//31
f 9//9 31//31 30//30
f 10//10 11//11 32//32
f 10//10 32//32 31//31
f 11//11 12//12 33//33
f 11//11 33//33 32//32
f 12//12 13//13 34//34
f 12//12 34//34 33//33
f 13//13 14//14 35//35
f 13//13 35//35 34//34
f 14//14 15//15 36//36
f 14//14 36//36 35//35
f 15//15 16//16 37//37
f 15//15 37//37 36//36
f 16//16 17//17 38//38
f 16//16 38//38 37//37
f 17//17 18//18 39//39
f 17//17 39//39 38//38
f 18//18 19//19 40//40
f 18//18 40//40 39//39
f 19//19 20//20 41//41
f 19//19 41//41 40//40
f 20//20 21//21 42//42
f 20//20 42//42 41//41
f 21//21 1//1 22//22
f 21//21 22//22 42//42
f 22//22 23//23 24//24
f 22//22 24//24 25//25
f 22//22 25//25 26//26
f 22//22 26//26 27//27
f 22//22 27//27 28//28
f 22//22 28//28 29//29
f 22//22 29//29 30//30
f 42//42 22//22 30//30
f 41//41 42//42 30//30
f 41//41 30//30 31//31
f 41//41 31//31 32//32
f 40//40 41//41 32//32
f 39//39 40//40 32//32
f 38//38 39//39 32//32
f 37//37 38//38 32//32
f 36//36 37//37 32//32
f 35//35 36//36 32//32
f 34//34 35//35 32//32
f 46//46 45//45 44//44
f 46//46 44//44 43//43
f 50//50 49//49 48//48
f 47//47 50//50 48//48
f 51//51 54//54 53//53
f 52//52 51//51 53//53
f 43//43 44//44 56//56
f 43//43 56//56 55//55
f 44//44 45//45 57//57
f 44//44 57//57 56//56
f 45//45 46//46 58//58
f 45//45 58//58 57//57
f 46//46 43//43 55//55
f 46//46 55//55 58//58
f 47//47 48//48 60//60
f 47//47 60//60 59//59
f 48//48 49//49 61//61
f 48//48 61//61 60//60
f 49//49 50//50 62//62
f 49//49 62//62 61//61
f 50//50 47//47 59//59
f 50//50 59//59 62//62
f 51//51 52//52 64//64
f 51//51 64//64 63//63
f 52//52 53//53 65//65
f 52//52 65//65 64//64
f 53//53 54//54 66//66
f 53//53 66//66 65//65
f 54//54 51//51 63//63
f 54//54 63//63 66//66
f 56//56 57//57 58//58
f 55//55 56//56 58//58
f 60//60 61//61 62//62
f 60//60 62//62 59//59
f 65//65 66//66 63//63
f 65//65 63//63 64//64
f 69//69 68//68 67//67
f 70//70 69//69 67//67
f 71//71 70//70 67//67
f 72//72 71//71 67//67
f 73//73 72//72 67//67
f 74//74 73//73 67//67
f 75//75 74//74 67//67
f 75//75 67//67 87//87
f 75//75 87//87 86//86
f 76//76 75//75 86//86
f 77//77 76//76 86//86
f 77//77 86//86 85//85
f 77//77 85//85 84//84
f 77//77 84//84 83//83
f 77//77 83//83 82//82
f 77//77 82//82 81//81
f 77//77 81//81 80//80
f 77//77 80//80 79//79
f 67//67 68//68 89//89
f 67//67 89//89 88//88
f 68//68 69//69 90//90
f 68//68 90//90 89//89
f 69//69 70//70 91//91
f 69//69 91//91 90//90
f 70//70 71//71 92//92
f 70//70 92//92 91//91
f 71//71 72//72 93//93
f 71//71 93//93 92//92
f 72//72 73//73 94//94
f 72//72 94//94 93//93
f 73//73 74//74 95//95
f 73//73 95//95 94//94
f 74//74 75//75 96//96
f 74//74 96//96 95//95
f 75//75 76//76 97//97
f 75//75 97//97 96//96
f 76//76 77//77 98//98
f 76//76 98//98 97//97
f 77//77 78//78 99//99
f 77//77 99//99 98//98
f 78//78 79//79 100//100
f 78//78 100//100 99//99
f 79//79 80//80 101//101
f 79//79 101//101 100//100
f 80//80 81//81 102//102
f 80//80 102//102 101//101
f 81//81 82//82 103//103
f 81//81 103//103 102//102
f 82//82 83//83 104//104
f 82//82 104//104 103//103
f 83//83 84//84 105//105
f 83//83 105//105 104//104
f 84//84 85//85 106//106
f 84//84 106//106 105//105
f 85//85 86//86 107//107
f 85//85 107//107 106//106
f 86//86 87//87 108//108
f 86//86 108//108 107//107
f 87//87 67//67 88//88
f 87//87 88//88 108//108
f 88//88 89//89 90//90
f 88//88 90//90 91//91
f 88//88 91//91 92//92
f 88//88 92//92 93//93
f 88//88 93//93 94//94
f 88//88 94//94 95//95
f 88//88 95//95 96//96
f 108//108 88//88 96//96
f 107//107 108//108 96//96
f 107//107 96//96 97//97
f 107//107 97//97 98//98
f 106//106 107//107 98//98
f 105//105 106//106 98//98
f 104//104 105//105 98//98
f 103//103 104//104 98//98
f 102//102 103//103 98//98
f 101//101 102//102 98//98
f 100//100 101//101 98//98
f 113//113 112//112 111//111
f 113//113 111//111 110//110
f 113//113 110//110 109//109
f 114//114 113//113 109//109
f 114//114 109//109 120//120
f 115//115 114//114 120//120
f 115//115 120//120 119//119
f 116//116 115//115 119//119
f 116//116 119//119 118//118
f 117//117 116//116 118//118
f 109//109 110//110 122//122
f 109//109 122//122 121//121
f 110//110 111//111 123//123
f 110//110 123//123 122//122
f 111//111 112//112 124//124
f 111//111 124//124 123//123
f 112//112 113//113 125//125
f 112//112 125//125 124//124
f 113//113 114//114 126//126
f 113//113 126//126 125//125
f 114//114 115//115 127//127
f 114//114 127//127 126//126
f 115//115 116//116 128//128
f 115//115 128//128 127//127
f 116//116 117//117 129//129
f 116//116 129//129 128//128
f 117//117 118//118 130//130
f 117//117 130//130 129//129
f 118//118 119//119 131//131
f 118//118 131//131 130//130
f 119//119 120//120 132//132
f 119//119 132//132 131//131
f 120//120 109//109 121//121
f 120//120 121//121 132//132
f 123//123 124//124 125//125
f 122//122 123//123 125//125
f 121//121 122//122 125//125
f 121//121 125//125 126//126
f 132//132 121//121 126//126
f 132//132 126//126 127//127
f 131//131 132//132 127//127
f 131//131 127//127 128//128
f 130//130 131//131 128//128
f 130//130 128//128 129//129
f 133//133 138//138 137//137
f 134//134 133//133 137//137
f 134//134 137//137 136//136
f 134//134 136//136 135//135
f 133//133 134//134 140//140
f 133//133 140//140 139//139
f 134//134 135//135 141//141
f 134//134 141//141 140//140
f 135//135 136//136 142//142
f 135//135 142//142 141//141
f 136//136 137//137 143//143
f 136//136 143//143 142//142
f 137//137 138//138 144//144
f 137//137 144//144 143//143
f 138//138 133//133 139//139
f 138//138 139//139 144//144
f 143//143 144//144 139//139
f 143//143 139//139 140//140
f 142//142 143//143 140//140
f 141//141 142//142 140//140
f 145//145 150//150 149//149
f 146//146 145//145 149//149
f 146//146 149//149 148//148
f 146//146 148//148 147//147
f 145//145 146//146 152//152
f 145//145 152//152 151//151
f 146//146 147//147 153//153
f 146//146 153//153 152//152
f 147//147 148//148 154//154
f 147//147 154//154 153//153
f 148//148 149//149 155//155
f 148//148 155//155 154//154
f 149//149 150//150 156//156
f 149//149 156//156 155//155
f 150//150 145//145 151//151
f 150//150 151//151 156//156
f 155//155 156//156 151//151
f 155//155 151//151 152//152
f 154//154 155//155 152//152
f 153//153 154//154 152//152
# 276 faces, 0 coords texture

# End of File
