####
#
# OBJ File Generated by Meshlab
#
####
# Object m563.obj
#
# Vertices: 152
# Faces: 258
#
####
vn -0.414876 -0.891283 -3.002244
v 0.703801 0.796139 0.664831
vn 0.416251 1.561910 -6.059325
v 0.397166 0.163390 0.698437
vn -0.000000 0.683214 -6.233125
v 0.500000 0.321421 0.730964
vn -0.349748 0.431709 -1.440110
v 0.905639 0.085111 0.622926
vn -0.416251 -1.561907 -6.059326
v 0.602834 0.717860 0.698437
vn 0.000000 -0.228605 -6.266142
v 0.500000 0.480385 0.736773
vn -1.272691 -0.226319 -6.136006
v 0.811162 0.480385 0.704649
vn -0.730643 -0.560859 -3.008529
v 0.911287 0.639038 0.662660
vn -0.427173 0.682468 -6.218595
v 0.603851 0.321421 0.727396
vn 0.422742 1.128588 -6.153901
v 0.396556 0.242212 0.715801
vn 0.617767 -0.886580 -2.968258
v 0.194912 0.796139 0.647346
vn -1.234349 1.548866 -5.950577
v 0.807513 0.163390 0.670222
vn -0.429400 0.228374 -6.251456
v 0.604054 0.400865 0.733199
vn 1.272688 0.226321 -6.136007
v 0.188838 0.400865 0.704649
vn 0.730643 0.560861 -3.008536
v 0.088713 0.242212 0.662660
vn 0.828867 1.556942 -6.018186
v 0.294579 0.163390 0.687846
vn -0.416251 1.561910 -6.059325
v 0.602834 0.163390 0.698437
vn -0.730643 0.560859 -3.008529
v 0.911287 0.242212 0.662660
vn 0.000000 1.129833 -6.168136
v 0.500000 0.242212 0.719355
vn -0.000000 -1.563584 -6.073137
v 0.500000 0.717860 0.701970
vn 0.854927 -0.227617 -6.207750
v 0.292141 0.480385 0.722482
vn 0.000000 -0.683214 -6.233125
v 0.500000 0.559829 0.730964
vn -0.208355 -0.894174 -3.022926
v 0.602024 0.796139 0.675338
vn -0.422741 -1.128589 -6.153900
v 0.603444 0.639038 0.715801
vn 0.738250 -0.339110 -3.039826
v 0.087096 0.559829 0.674046
vn 0.349747 0.431709 -1.440111
v 0.094361 0.085111 0.622926
vn -1.272691 0.226319 -6.136006
v 0.811162 0.400865 0.704649
vn 0.730643 -0.560861 -3.008536
v 0.088713 0.639038 0.662660
vn -0.349748 -0.431707 -1.440110
v 0.905639 0.796139 0.622926
vn -0.738253 0.339111 -3.039831
v 0.912904 0.321421 0.674046
vn -0.719539 0.776334 -2.962841
v 0.908863 0.163390 0.645609
vn 1.234347 1.548866 -5.950577
v 0.192487 0.163390 0.670222
vn -0.850453 -0.680183 -6.175341
v 0.707452 0.559829 0.716700
vn 0.000000 -1.129833 -6.168136
v 0.500000 0.639038 0.719355
vn -0.841668 -1.124887 -6.111520
v 0.706638 0.639038 0.705147
vn 0.854927 0.227617 -6.207750
v 0.292141 0.400865 0.722482
vn -0.719539 -0.776332 -2.962841
v 0.908863 0.717860 0.645609
vn 0.208355 0.894178 -3.022925
v 0.397976 0.085111 0.675338
vn 0.719536 0.776332 -2.962837
v 0.091137 0.163390 0.645609
vn 1.266121 -0.676422 -6.104314
v 0.189447 0.559829 0.698903
vn 0.429400 0.228374 -6.251456
v 0.395946 0.400865 0.733199
vn -0.422741 1.128589 -6.153900
v 0.603444 0.242212 0.715801
vn -0.738253 -0.339111 -3.039831
v 0.912904 0.559829 0.674046
vn 1.253221 1.118880 -6.041883
v 0.190665 0.242212 0.687420
vn 0.208355 -0.894174 -3.022926
v 0.397976 0.796139 0.675338
vn -0.000000 0.228605 -6.266142
v 0.500000 0.400865 0.736773
vn -0.854925 -0.227612 -6.207751
v 0.707859 0.480385 0.722482
vn 0.841667 -1.124883 -6.111521
v 0.293362 0.639038 0.705147
vn 0.828867 -1.556939 -6.018187
v 0.294579 0.717860 0.687846
vn 0.416251 -1.561907 -6.059326
v 0.397166 0.717860 0.698437
vn -0.742088 -0.113464 -3.055689
v 0.913714 0.480385 0.679744
vn -0.414876 0.891286 -3.002243
v 0.703801 0.085111 0.664831
vn -0.742088 0.113464 -3.055689
v 0.913714 0.400865 0.679744
vn 0.429400 -0.228374 -6.251456
v 0.395946 0.480385 0.733199
vn -0.828867 1.556942 -6.018186
v 0.705421 0.163390 0.687846
vn -0.429400 -0.228374 -6.251456
v 0.604054 0.480385 0.733199
vn 0.841667 1.124883 -6.111521
v 0.293362 0.242212 0.705147
vn -0.854925 0.227612 -6.207751
v 0.707859 0.400865 0.722482
vn 0.738250 0.339110 -3.039826
v 0.087096 0.321421 0.674046
vn 0.000000 0.895154 -3.029867
v 0.500000 0.085111 0.678843
vn 0.742087 -0.113464 -3.055690
v 0.086286 0.480385 0.679744
vn -0.208355 0.894178 -3.022925
v 0.602024 0.085111 0.675338
vn 0.414876 0.891286 -3.002243
v 0.296199 0.085111 0.664831
vn -0.850453 0.680183 -6.175341
v 0.707452 0.321421 0.716700
vn 0.427175 0.682469 -6.218594
v 0.396149 0.321421 0.727396
vn 0.422742 -1.128588 -6.153901
v 0.396556 0.639038 0.715801
vn 0.850450 -0.680182 -6.175343
v 0.292549 0.559829 0.716700
vn 1.266121 0.676422 -6.104314
v 0.189447 0.321421 0.698903
vn 1.234347 -1.548863 -5.950578
v 0.192487 0.717860 0.670222
vn 0.349747 -0.431708 -1.440112
v 0.094361 0.796139 0.622926
vn -1.234349 -1.548863 -5.950577
v 0.807513 0.717860 0.670222
vn 1.253221 -1.118880 -6.041883
v 0.190665 0.639038 0.687420
vn -0.841668 1.124887 -6.111520
v 0.706638 0.242212 0.705147
vn -0.617769 -0.886580 -2.968258
v 0.805088 0.796139 0.647346
vn 0.414876 -0.891283 -3.002244
v 0.296199 0.796139 0.664831
vn -0.000000 -0.895151 -3.029868
v 0.500000 0.796139 0.678843
vn 1.272688 -0.226321 -6.136007
v 0.188838 0.480385 0.704649
vn 0.000000 1.563587 -6.073136
v 0.500000 0.163390 0.701970
vn -0.427173 -0.682468 -6.218595
v 0.603851 0.559829 0.727396
vn 0.742087 0.113464 -3.055690
v 0.086286 0.400865 0.679744
vn 0.617767 0.886584 -2.968257
v 0.194912 0.085111 0.647346
vn 0.850450 0.680182 -6.175343
v 0.292549 0.321421 0.716700
vn -0.828867 -1.556939 -6.018187
v 0.705421 0.717860 0.687846
vn -0.617768 0.886583 -2.968257
v 0.805088 0.085111 0.647346
vn -1.266127 -0.676423 -6.104312
v 0.810553 0.559829 0.698903
vn 0.427175 -0.682469 -6.218594
v 0.396149 0.559829 0.727396
vn 0.719536 -0.776330 -2.962837
v 0.091137 0.717860 0.645609
vn -1.266127 0.676423 -6.104312
v 0.810553 0.321421 0.698903
vn -1.253223 1.118879 -6.041883
v 0.809335 0.242212 0.687420
vn -1.253223 -1.118879 -6.041883
v 0.809335 0.639038 0.687420
vn 1.780748 1.780748 2.757962
v 0.321875 0.262500 0.025000
vn -1.780748 1.780748 2.757962
v 0.678125 0.262500 0.025000
vn 1.780748 -1.780748 2.757962
v 0.321875 0.559375 0.025000
vn -1.780748 -1.780748 2.757962
v 0.678125 0.559375 0.025000
vn 1.874692 2.318141 5.061969
v 0.262500 0.203125 0.203125
vn -1.874692 2.318141 5.061969
v 0.737500 0.203125 0.203125
vn -1.936397 -1.936397 5.220363
v 0.737500 0.618750 0.203125
vn 1.936397 -1.936397 5.220363
v 0.262500 0.618750 0.203125
vn -1.252401 -1.284346 4.669679
v 0.084375 0.084375 0.262500
vn 0.000000 0.000000 -1.570796
v 0.025000 0.025000 0.084375
vn 0.000000 0.000000 -1.570796
v 0.975000 0.025000 0.084375
vn 1.314106 1.314106 4.681735
v 0.915625 0.796875 0.262500
vn 1.252401 -1.284346 4.669679
v 0.915625 0.084375 0.262500
vn -1.314106 1.314106 4.681735
v 0.084375 0.796875 0.262500
vn 0.000000 3.141593 3.141593
v 0.084375 0.025000 0.025000
vn 0.000000 3.141593 3.141593
v 0.915625 0.025000 0.025000
vn 0.000000 -3.141593 3.141593
v 0.084375 0.856250 0.025000
vn 0.000000 -3.141593 3.141593
v 0.915625 0.856250 0.025000
vn -1.570796 4.712389 1.570796
v 0.084375 0.025000 0.262500
vn -1.570796 1.570796 0.000000
v 0.084375 0.025000 0.084375
vn 1.570796 1.570796 0.000000
v 0.915625 0.025000 0.084375
vn 1.570796 4.712389 1.570796
v 0.915625 0.025000 0.262500
vn -1.570796 -1.570796 -1.570796
v 0.084375 0.856250 0.084375
vn 1.570796 -1.570796 -1.570796
v 0.915625 0.856250 0.084375
vn 1.570796 -4.712389 1.570796
v 0.915625 0.856250 0.262500
vn -1.570796 -4.712389 1.570796
v 0.084375 0.856250 0.262500
vn -3.141593 0.000000 0.000000
v 0.975000 0.084375 0.025000
vn -3.141593 0.000000 0.000000
v 0.975000 0.796875 0.025000
vn 3.141593 0.000000 0.000000
v 0.025000 0.084375 0.025000
vn 3.141593 0.000000 0.000000
v 0.025000 0.796875 0.025000
vn -1.570796 -1.570796 -1.570796
v 0.975000 0.856250 0.737500
vn -1.570796 -1.570796 1.570796
v 0.975000 0.856250 0.025000
vn -1.570796 1.570796 1.570796
v 0.975000 0.025000 0.025000
vn -1.570796 1.570796 -1.570796
v 0.975000 0.025000 0.737500
vn -4.712389 -1.570796 1.570796
v 0.975000 0.084375 0.262500
vn -4.712389 1.570796 1.570796
v 0.975000 0.796875 0.262500
vn 4.712389 -1.570796 1.570796
v 0.025000 0.084375 0.262500
vn 4.712389 1.570796 1.570796
v 0.025000 0.796875 0.262500
vn -1.570796 -1.570796 -3.141593
v 0.975000 0.084375 0.084375
vn -1.570796 1.570796 -1.570796
v 0.975000 0.796875 0.084375
vn 1.570796 -1.570796 -3.141593
v 0.025000 0.084375 0.084375
vn 1.570796 1.570796 -1.570796
v 0.025000 0.796875 0.084375
vn 1.570796 -1.570796 1.570796
v 0.915625 0.084375 0.025000
vn 1.570796 1.570796 1.570796
v 0.915625 0.796875 0.025000
vn -1.570796 -1.570796 1.570796
v 0.084375 0.084375 0.025000
vn -1.570796 1.570796 1.570796
v 0.084375 0.796875 0.025000
vn -3.141593 -3.141593 -1.570796
v 0.084375 0.084375 0.084375
vn 3.141593 -3.141593 -1.570796
v 0.915625 0.084375 0.084375
vn 3.141593 3.141593 -3.141593
v 0.915625 0.796875 0.084375
vn -3.141593 3.141593 -3.141593
v 0.084375 0.796875 0.084375
vn -1.586943 1.639644 -0.142773
v 0.096719 0.793312 0.559375
vn 1.586943 1.639644 -0.142772
v 0.903281 0.793312 0.559375
vn 1.586940 -1.639644 -0.142767
v 0.903281 0.087938 0.559375
vn -1.586940 -1.639644 -0.142768
v 0.096719 0.087938 0.559375
vn -1.547133 1.501320 -4.849636
v 0.084375 0.796875 0.737500
vn 1.547133 1.501321 -4.849635
v 0.915625 0.796875 0.737500
vn 1.547136 -1.501321 -4.849631
v 0.915625 0.084375 0.737500
vn -1.547136 -1.501320 -4.849632
v 0.084375 0.084375 0.737500
vn 1.570796 -1.570796 1.570796
v 0.025000 0.856250 0.025000
vn 1.570796 -1.570796 -1.570796
v 0.025000 0.856250 0.737500
vn 1.570796 1.570796 1.570796
v 0.025000 0.025000 0.025000
vn 1.570796 1.570796 -1.570796
v 0.025000 0.025000 0.737500
# 152 vertices, 0 vertices normals

f 11//11 87//87 70//70
f 69//69 28//28 87//87
f 72//72 25//25 28//28
f 40//40 61//61 25//25
f 77//77 80//80 61//61
f 14//14 68//68 80//80
f 68//68 44//44 59//59
f 44//44 32//32 15//15
f 32//32 81//81 39//39
f 75//75 69//69 11//11
f 49//49 72//72 69//69
f 48//48 40//40 72//72
f 67//67 77//77 40//40
f 21//21 14//14 77//77
f 36//36 82//82 14//14
f 82//82 57//57 68//68
f 57//57 16//16 44//44
f 16//16 63//63 32//32
f 45//45 49//49 75//75
f 50//50 48//48 49//49
f 66//66 67//67 48//48
f 86//86 21//21 67//67
f 54//54 36//36 21//21
f 41//41 65//65 36//36
f 65//65 10//10 82//82
f 10//10 2//2 57//57
f 2//2 38//38 16//16
f 76//76 50//50 45//45
f 20//20 66//66 50//50
f 34//34 86//86 66//66
f 22//22 54//54 86//86
f 6//6 41//41 54//54
f 46//46 3//3 41//41
f 3//3 19//19 65//65
f 19//19 78//78 10//10
f 78//78 60//60 2//2
f 23//23 5//5 76//76
f 5//5 24//24 20//20
f 24//24 79//79 34//34
f 79//79 56//56 22//22
f 56//56 46//46 6//6
f 13//13 3//3 46//46
f 9//9 19//19 3//3
f 42//42 78//78 19//19
f 17//17 60//60 78//78
f 1//1 83//83 23//23
f 83//83 35//35 5//5
f 35//35 33//33 24//24
f 33//33 47//47 79//79
f 47//47 13//13 56//56
f 58//58 9//9 13//13
f 64//64 42//42 9//9
f 73//73 17//17 42//42
f 55//55 62//62 17//17
f 74//74 71//71 1//1
f 71//71 90//90 83//83
f 90//90 85//85 35//35
f 85//85 7//7 33//33
f 7//7 58//58 47//47
f 27//27 64//64 58//58
f 88//88 73//73 64//64
f 89//89 55//55 73//73
f 12//12 52//52 55//55
f 29//29 37//37 74//74
f 37//37 8//8 71//71
f 8//8 43//43 90//90
f 43//43 51//51 85//85
f 51//51 27//27 7//7
f 53//53 88//88 27//27
f 30//30 89//89 88//88
f 18//18 12//12 89//89
f 31//31 84//84 12//12
f 87//87 11//11 69//69
f 28//28 69//69 72//72
f 25//25 72//72 40//40
f 61//61 40//40 77//77
f 80//80 77//77 14//14
f 80//80 68//68 59//59
f 59//59 44//44 15//15
f 15//15 32//32 39//39
f 39//39 81//81 26//26
f 69//69 75//75 49//49
f 72//72 49//49 48//48
f 40//40 48//48 67//67
f 77//77 67//67 21//21
f 14//14 21//21 36//36
f 14//14 82//82 68//68
f 68//68 57//57 44//44
f 44//44 16//16 32//32
f 32//32 63//63 81//81
f 49//49 45//45 50//50
f 48//48 50//50 66//66
f 67//67 66//66 86//86
f 21//21 86//86 54//54
f 36//36 54//54 41//41
f 36//36 65//65 82//82
f 82//82 10//10 57//57
f 57//57 2//2 16//16
f 16//16 38//38 63//63
f 50//50 76//76 20//20
f 66//66 20//20 34//34
f 86//86 34//34 22//22
f 54//54 22//22 6//6
f 41//41 6//6 46//46
f 41//41 3//3 65//65
f 65//65 19//19 10//10
f 10//10 78//78 2//2
f 2//2 60//60 38//38
f 76//76 5//5 20//20
f 20//20 24//24 34//34
f 34//34 79//79 22//22
f 22//22 56//56 6//6
f 46//46 56//56 13//13
f 3//3 13//13 9//9
f 19//19 9//9 42//42
f 78//78 42//42 17//17
f 60//60 17//17 62//62
f 23//23 83//83 5//5
f 5//5 35//35 24//24
f 24//24 33//33 79//79
f 79//79 47//47 56//56
f 13//13 47//47 58//58
f 9//9 58//58 64//64
f 42//42 64//64 73//73
f 17//17 73//73 55//55
f 62//62 55//55 52//52
f 1//1 71//71 83//83
f 83//83 90//90 35//35
f 35//35 85//85 33//33
f 33//33 7//7 47//47
f 58//58 7//7 27//27
f 64//64 27//27 88//88
f 73//73 88//88 89//89
f 55//55 89//89 12//12
f 52//52 12//12 84//84
f 74//74 37//37 71//71
f 71//71 8//8 90//90
f 90//90 43//43 85//85
f 85//85 51//51 7//7
f 27//27 51//51 53//53
f 88//88 53//53 30//30
f 89//89 30//30 18//18
f 12//12 18//18 31//31
f 84//84 31//31 4//4
f 104//104 127//127 99//99
f 126//126 103//103 125//125
f 103//103 109//109 112//112
f 102//102 116//116 104//104
f 93//93 92//92 94//94
f 93//93 97//97 98//98
f 92//92 97//97 94//94
f 91//91 96//96 92//92
f 98//98 91//91 93//93
f 96//96 103//103 97//97
f 99//99 96//96 95//95
f 104//104 99//99 98//98
f 104//104 97//97 102//102
f 103//103 111//111 138//138
f 99//99 110//110 109//109
f 127//127 137//137 99//99
f 103//103 129//129 125//125
f 129//129 100//100 131//131
f 110//110 106//106 105//105
f 152//152 112//112 109//109
f 102//102 130//130 139//139
f 104//104 132//132 128//128
f 113//113 139//139 140//140
f 115//115 139//139 114//114
f 116//116 140//140 104//104
f 140//140 131//131 132//132
f 130//130 138//138 139//139
f 132//132 119//119 120//120
f 139//139 136//136 140//140
f 138//138 135//135 133//133
f 139//139 133//133 134//134
f 140//140 135//135 137//137
f 133//133 105//105 106//106
f 107//107 151//151 105//105
f 136//136 108//108 107//107
f 122//122 106//106 123//123
f 130//130 117//117 129//129
f 113//113 108//108 114//114
f 150//150 115//115 121//121
f 150//150 127//127 128//128
f 121//121 125//125 124//124
f 148//148 143//143 147//147
f 145//145 142//142 141//141
f 146//146 143//143 142//142
f 145//145 144//144 148//148
f 150//150 146//146 145//145
f 147//147 121//121 124//124
f 148//148 124//124 152//152
f 150//150 148//148 152//152
f 127//127 104//104 128//128
f 103//103 126//126 102//102
f 109//109 103//103 99//99
f 116//116 102//102 115//115
f 92//92 93//93 91//91
f 97//97 93//93 94//94
f 97//97 92//92 96//96
f 96//96 91//91 95//95
f 91//91 98//98 95//95
f 97//97 103//103 102//102
f 96//96 99//99 103//103
f 98//98 99//99 95//95
f 97//97 104//104 98//98
f 111//111 103//103 112//112
f 110//110 99//99 137//137
f 137//137 127//127 131//131
f 129//129 103//103 138//138
f 100//100 129//129 101//101
f 106//106 110//110 111//111
f 106//106 124//124 123//123
f 151//151 109//109 105//105
f 112//112 124//124 106//106
f 152//152 109//109 151//151
f 112//112 152//152 124//124
f 130//130 102//102 126//126
f 132//132 104//104 140//140
f 139//139 113//113 114//114
f 139//139 115//115 102//102
f 140//140 116//116 113//113
f 131//131 140//140 137//137
f 138//138 130//130 129//129
f 119//119 132//132 131//131
f 136//136 139//139 134//134
f 135//135 138//138 137//137
f 133//133 139//139 138//138
f 135//135 140//140 136//136
f 105//105 133//133 135//135
f 151//151 107//107 149//149
f 108//108 136//136 134//134
f 106//106 122//122 108//108
f 117//117 130//130 118//118
f 108//108 113//113 107//107
f 107//107 150//150 149//149
f 122//122 115//115 108//108
f 116//116 150//150 107//107
f 121//121 115//115 122//122
f 115//115 150//150 116//116
f 119//119 152//152 151//151
f 149//149 128//128 120//120
f 127//127 152//152 119//119
f 150//150 128//128 149//149
f 127//127 150//150 152//152
f 118//118 121//121 122//122
f 123//123 125//125 117//117
f 126//126 121//121 118//118
f 124//124 125//125 123//123
f 125//125 121//121 126//126
f 143//143 148//148 144//144
f 142//142 145//145 146//146
f 143//143 146//146 147//147
f 144//144 145//145 141//141
f 146//146 150//150 121//121
f 121//121 147//147 146//146
f 124//124 148//148 147//147
f 148//148 150//150 145//145
# 258 faces, 0 coords texture

# End of File
