####
#
# OBJ File Generated by Meshlab
#
####
# Object m571.obj
#
# Vertices: 122
# Faces: 192
#
####
vn -1.570799 -1.036438 -1.964843
v 0.123036 0.262855 0.259824
vn 1.570799 -1.036438 -1.964843
v 0.796338 0.262855 0.259824
vn 1.570797 1.964840 -1.036441
v 0.796338 0.697565 0.394295
vn -1.570797 1.964840 -1.036441
v 0.123036 0.697565 0.394295
vn -1.570795 -1.964841 1.036435
v 0.123036 0.153528 0.613247
vn 1.570795 -1.964841 1.036435
v 0.796338 0.153528 0.613247
vn 1.570794 1.036438 1.964838
v 0.796338 0.588239 0.747719
vn -1.570794 1.036438 1.964838
v 0.123036 0.588239 0.747719
vn -1.570798 -1.036442 -1.964840
v 0.061995 0.692099 0.411967
vn 1.570798 -1.036442 -1.964840
v 0.857379 0.692099 0.411967
vn 2.211520 2.968303 -2.169781
v 0.857379 0.745113 0.428366
vn -2.211520 2.968303 -2.169782
v 0.061995 0.745113 0.428366
vn -1.570800 -1.964846 1.036438
v 0.061995 0.582773 0.765390
vn 1.570800 -1.964846 1.036438
v 0.857379 0.582773 0.765390
vn 1.570795 1.036432 1.964842
v 0.857379 0.635786 0.781789
vn -1.570795 1.036432 1.964842
v 0.061995 0.635786 0.781789
vn -2.381903 -1.309419 -3.406741
v 0.061995 0.204375 0.261096
vn 2.381904 -1.309420 -3.406740
v 0.857379 0.204375 0.261096
vn 1.570793 1.964837 -1.036436
v 0.857379 0.257389 0.277495
vn -1.570793 1.964837 -1.036436
v 0.061995 0.257389 0.277495
vn -1.570797 -1.964842 1.036437
v 0.061995 0.095049 0.614519
vn 1.570797 -1.964842 1.036437
v 0.857379 0.095049 0.614519
vn 1.570797 1.036436 1.964843
v 0.857379 0.148062 0.630918
vn -1.570797 1.036436 1.964843
v 0.061995 0.148062 0.630918
vn -1.570795 -1.036438 -1.964839
v 0.061995 0.253854 0.276402
vn 1.570795 -1.036438 -1.964839
v 0.117487 0.253854 0.276402
vn 1.570797 1.964841 -1.036439
v 0.117487 0.695633 0.413060
vn -1.570797 1.964841 -1.036439
v 0.061995 0.695633 0.413060
vn -1.570797 -1.964841 1.036439
v 0.061995 0.144528 0.629825
vn 1.570797 -1.964841 1.036439
v 0.117487 0.144528 0.629825
vn 1.570795 1.036438 1.964839
v 0.117487 0.586307 0.766483
vn -1.570795 1.036438 1.964839
v 0.061995 0.586307 0.766483
vn -1.570795 -1.036438 -1.964839
v 0.801887 0.253854 0.276402
vn 1.570795 -1.036438 -1.964839
v 0.857379 0.253854 0.276402
vn 1.570797 1.964841 -1.036439
v 0.857379 0.695633 0.413060
vn -1.570797 1.964841 -1.036439
v 0.801887 0.695633 0.413060
vn -1.570797 -1.964841 1.036439
v 0.801887 0.144528 0.629825
vn 1.570797 -1.964841 1.036439
v 0.857379 0.144528 0.629825
vn 1.570795 1.036438 1.964839
v 0.857379 0.586307 0.766483
vn -1.570795 1.036438 1.964839
v 0.801887 0.586307 0.766483
vn -1.420718 2.453856 -2.638082
v 0.274714 0.617763 0.195351
vn 1.420720 2.453854 -2.638081
v 0.644660 0.617763 0.195351
vn 1.250342 -1.243519 -3.048677
v 0.644660 0.352696 0.113356
vn -1.250340 -1.243520 -3.048679
v 0.274714 0.352696 0.113356
vn -1.570795 -1.036439 -1.964838
v 0.274714 0.380027 0.025000
vn 1.570795 -1.036439 -1.964838
v 0.644660 0.380027 0.025000
vn 1.570793 1.964839 -1.036433
v 0.644660 0.645095 0.106995
vn -1.570793 1.964839 -1.036433
v 0.274714 0.645095 0.106995
vn -1.570799 -1.964843 1.036440
v 0.274714 0.325364 0.201712
vn 1.570799 -1.964843 1.036440
v 0.644660 0.325364 0.201712
vn 1.570799 1.036435 1.964845
v 0.644660 0.590431 0.283707
vn -1.570799 1.036435 1.964845
v 0.274714 0.590431 0.283707
vn -1.570799 -1.036440 -1.964843
v 0.043497 0.150726 0.215457
vn 1.570799 -1.036440 -1.964843
v 0.875876 0.150726 0.215457
vn 1.570794 1.964838 -1.036437
v 0.875876 0.274424 0.253721
vn -1.570794 1.964838 -1.036437
v 0.043497 0.274424 0.253721
vn -1.570794 -1.964838 1.036437
v 0.043497 0.025000 0.621894
vn 1.570794 -1.964838 1.036437
v 0.875876 0.025000 0.621894
vn 1.570799 1.036440 1.964843
v 0.875876 0.148698 0.660158
vn -1.570799 1.036440 1.964843
v 0.043497 0.148698 0.660158
vn -1.570796 -1.036435 -1.964841
v 0.043497 0.212575 0.234589
vn 1.570796 -1.036435 -1.964841
v 0.061995 0.212575 0.234589
vn 1.570797 1.964843 -1.036436
v 0.061995 0.565998 0.343916
vn -1.570797 1.964843 -1.036436
v 0.043497 0.565998 0.343916
vn -1.570797 -1.964843 1.036436
v 0.043497 0.130580 0.499656
vn 1.570797 -1.964843 1.036436
v 0.061995 0.130580 0.499656
vn 1.570796 1.036435 1.964841
v 0.061995 0.484003 0.608983
vn -1.570796 1.036435 1.964841
v 0.043497 0.484003 0.608983
vn -1.570796 -1.036435 -1.964841
v 0.857379 0.212575 0.234589
vn 1.570796 -1.036435 -1.964841
v 0.875876 0.212575 0.234589
vn 1.570797 1.964843 -1.036436
v 0.875876 0.565998 0.343916
vn -1.570797 1.964843 -1.036436
v 0.857379 0.565998 0.343916
vn -1.570797 -1.964843 1.036436
v 0.857379 0.130580 0.499656
vn 1.570797 -1.964843 1.036436
v 0.875876 0.130580 0.499656
vn 1.570796 1.036435 1.964841
v 0.875876 0.484003 0.608983
vn -1.570796 1.036435 1.964841
v 0.857379 0.484003 0.608983
vn -1.570796 -1.570796 -1.570796
v 0.025000 0.373837 0.373464
vn 1.570796 -1.570796 -1.570796
v 0.043497 0.373837 0.373464
vn 1.570796 1.570796 -1.570796
v 0.043497 0.836270 0.373464
vn -1.570796 1.570796 -1.570796
v 0.025000 0.836270 0.373464
vn -1.570796 -1.570796 1.570796
v 0.025000 0.373837 0.521442
vn 1.570796 -1.570796 1.570796
v 0.043497 0.373837 0.521442
vn 1.570796 1.570796 1.570796
v 0.043497 0.836270 0.521442
vn -1.570796 1.570796 1.570796
v 0.025000 0.836270 0.521442
vn -1.570796 -1.570796 -1.570796
v 0.875876 0.373837 0.373464
vn 1.570796 -1.570796 -1.570796
v 0.894374 0.373837 0.373464
vn 1.570796 1.570796 -1.570796
v 0.894374 0.836270 0.373464
vn -1.570796 1.570796 -1.570796
v 0.875876 0.836270 0.373464
vn -1.570796 -1.570796 1.570796
v 0.875876 0.373837 0.521442
vn 1.570796 -1.570796 1.570796
v 0.894374 0.373837 0.521442
vn 1.570796 1.570796 1.570796
v 0.894374 0.836270 0.521442
vn -1.570796 1.570796 1.570796
v 0.875876 0.836270 0.521442
vn -1.570796 -1.570796 -1.570796
v 0.034249 0.817773 0.373464
vn 1.570796 -1.570796 -1.570796
v 0.885125 0.817773 0.373464
vn 1.570796 1.570796 -1.570796
v 0.885125 0.836270 0.373464
vn -1.570796 1.570796 -1.570796
v 0.034249 0.836270 0.373464
vn -1.570796 -1.570796 1.570796
v 0.034249 0.817773 0.521442
vn 1.570796 -1.570796 1.570796
v 0.885125 0.817773 0.521442
vn 1.570796 1.570796 1.570796
v 0.885125 0.836270 0.521442
vn -1.570796 1.570796 1.570796
v 0.034249 0.836270 0.521442
vn 2.987838 2.513287 -0.000000
v 0.487433 0.975000 0.447453
vn 2.417191 2.513252 1.756208
v 0.482134 0.975000 0.463762
vn 2.987838 -2.513287 -0.000000
v 0.487433 0.827021 0.447453
vn 2.417191 -2.513252 1.756208
v 0.482134 0.827021 0.463762
vn 0.000000 -6.283185 0.000000
v 0.459687 0.827021 0.447453
vn 0.000000 6.283185 0.000000
v 0.459687 0.975000 0.447453
vn 0.923271 2.513289 2.841611
v 0.468261 0.975000 0.473841
vn 0.923271 -2.513289 2.841611
v 0.468261 0.827021 0.473841
vn -0.923271 2.513289 2.841611
v 0.451113 0.975000 0.473841
vn -0.923271 -2.513289 2.841611
v 0.451113 0.827021 0.473841
vn -2.417191 2.513252 1.756208
v 0.437240 0.975000 0.463762
vn -2.417191 -2.513252 1.756208
v 0.437240 0.827021 0.463762
vn -2.987838 2.513287 -0.000000
v 0.431941 0.975000 0.447453
vn -2.987838 -2.513287 -0.000000
v 0.431941 0.827021 0.447453
vn -2.417191 2.513252 -1.756208
v 0.437240 0.975000 0.431144
vn -2.417191 -2.513252 -1.756208
v 0.437240 0.827021 0.431144
vn -0.923271 2.513289 -2.841611
v 0.451113 0.975000 0.421065
vn -0.923271 -2.513289 -2.841611
v 0.451113 0.827021 0.421065
vn 0.923271 2.513289 -2.841611
v 0.468261 0.975000 0.421065
vn 0.923271 -2.513289 -2.841611
v 0.468261 0.827021 0.421065
vn 2.417191 2.513252 -1.756208
v 0.482134 0.975000 0.431144
vn 2.417191 -2.513252 -1.756208
v 0.482134 0.827021 0.431144
# 122 vertices, 0 vertices normals

f 1//1 4//4 2//2
f 2//2 4//4 3//3
f 1//1 6//6 5//5
f 1//1 2//2 6//6
f 1//1 5//5 4//4
f 4//4 5//5 8//8
f 4//4 8//8 7//7
f 4//4 7//7 3//3
f 2//2 7//7 6//6
f 2//2 3//3 7//7
f 6//6 8//8 5//5
f 6//6 7//7 8//8
f 9//9 12//12 10//10
f 10//10 12//12 11//11
f 9//9 14//14 13//13
f 9//9 10//10 14//14
f 9//9 13//13 12//12
f 12//12 13//13 16//16
f 12//12 16//16 15//15
f 12//12 15//15 11//11
f 10//10 15//15 14//14
f 10//10 11//11 15//15
f 14//14 16//16 13//13
f 14//14 15//15 16//16
f 17//17 20//20 18//18
f 18//18 20//20 19//19
f 17//17 22//22 21//21
f 17//17 18//18 22//22
f 17//17 21//21 20//20
f 20//20 21//21 24//24
f 20//20 24//24 23//23
f 20//20 23//23 19//19
f 18//18 23//23 22//22
f 18//18 19//19 23//23
f 22//22 24//24 21//21
f 22//22 23//23 24//24
f 25//25 28//28 26//26
f 26//26 28//28 27//27
f 25//25 30//30 29//29
f 25//25 26//26 30//30
f 25//25 29//29 28//28
f 28//28 29//29 32//32
f 28//28 32//32 31//31
f 28//28 31//31 27//27
f 26//26 31//31 30//30
f 26//26 27//27 31//31
f 30//30 32//32 29//29
f 30//30 31//31 32//32
f 33//33 36//36 34//34
f 34//34 36//36 35//35
f 33//33 38//38 37//37
f 33//33 34//34 38//38
f 33//33 37//37 36//36
f 36//36 37//37 40//40
f 36//36 40//40 39//39
f 36//36 39//39 35//35
f 34//34 39//39 38//38
f 34//34 35//35 39//39
f 38//38 40//40 37//37
f 38//38 39//39 40//40
f 41//41 12//12 11//11
f 43//43 18//18 17//17
f 18//18 43//43 42//42
f 44//44 17//17 12//12
f 45//45 48//48 46//46
f 46//46 48//48 47//47
f 45//45 50//50 49//49
f 45//45 46//46 50//50
f 45//45 49//49 48//48
f 48//48 49//49 52//52
f 48//48 52//52 51//51
f 48//48 51//51 47//47
f 46//46 51//51 50//50
f 46//46 47//47 51//51
f 50//50 52//52 49//49
f 50//50 51//51 52//52
f 53//53 56//56 54//54
f 54//54 56//56 55//55
f 53//53 58//58 57//57
f 53//53 54//54 58//58
f 53//53 57//57 56//56
f 56//56 57//57 60//60
f 56//56 60//60 59//59
f 56//56 59//59 55//55
f 54//54 59//59 58//58
f 54//54 55//55 59//59
f 58//58 60//60 57//57
f 58//58 59//59 60//60
f 61//61 64//64 62//62
f 62//62 64//64 63//63
f 61//61 66//66 65//65
f 61//61 62//62 66//66
f 61//61 65//65 64//64
f 64//64 65//65 68//68
f 64//64 68//68 67//67
f 64//64 67//67 63//63
f 62//62 67//67 66//66
f 62//62 63//63 67//67
f 66//66 68//68 65//65
f 66//66 67//67 68//68
f 69//69 72//72 70//70
f 70//70 72//72 71//71
f 69//69 74//74 73//73
f 69//69 70//70 74//74
f 69//69 73//73 72//72
f 72//72 73//73 76//76
f 72//72 76//76 75//75
f 72//72 75//75 71//71
f 70//70 75//75 74//74
f 70//70 71//71 75//75
f 74//74 76//76 73//73
f 74//74 75//75 76//76
f 77//77 80//80 78//78
f 78//78 80//80 79//79
f 77//77 82//82 81//81
f 77//77 78//78 82//82
f 77//77 81//81 80//80
f 80//80 81//81 84//84
f 80//80 84//84 83//83
f 80//80 83//83 79//79
f 78//78 83//83 82//82
f 78//78 79//79 83//83
f 82//82 84//84 81//81
f 82//82 83//83 84//84
f 85//85 88//88 86//86
f 86//86 88//88 87//87
f 85//85 90//90 89//89
f 85//85 86//86 90//90
f 85//85 89//89 88//88
f 88//88 89//89 92//92
f 88//88 92//92 91//91
f 88//88 91//91 87//87
f 86//86 91//91 90//90
f 86//86 87//87 91//91
f 90//90 92//92 89//89
f 90//90 91//91 92//92
f 93//93 96//96 94//94
f 94//94 96//96 95//95
f 93//93 98//98 97//97
f 93//93 94//94 98//98
f 93//93 97//97 96//96
f 96//96 97//97 100//100
f 96//96 100//100 99//99
f 96//96 99//99 95//95
f 94//94 99//99 98//98
f 94//94 95//95 99//99
f 98//98 100//100 97//97
f 98//98 99//99 100//100
f 101//101 102//102 103//103
f 102//102 104//104 103//103
f 105//105 103//103 104//104
f 106//106 102//102 101//101
f 102//102 107//107 104//104
f 107//107 108//108 104//104
f 105//105 104//104 108//108
f 106//106 107//107 102//102
f 107//107 109//109 108//108
f 109//109 110//110 108//108
f 105//105 108//108 110//110
f 106//106 109//109 107//107
f 109//109 111//111 110//110
f 111//111 112//112 110//110
f 105//105 110//110 112//112
f 106//106 111//111 109//109
f 111//111 113//113 112//112
f 113//113 114//114 112//112
f 105//105 112//112 114//114
f 106//106 113//113 111//111
f 113//113 115//115 114//114
f 115//115 116//116 114//114
f 105//105 114//114 116//116
f 106//106 115//115 113//113
f 115//115 117//117 116//116
f 117//117 118//118 116//116
f 105//105 116//116 118//118
f 106//106 117//117 115//115
f 117//117 119//119 118//118
f 119//119 120//120 118//118
f 105//105 118//118 120//120
f 106//106 119//119 117//117
f 119//119 121//121 120//120
f 121//121 122//122 120//120
f 105//105 120//120 122//122
f 106//106 121//121 119//119
f 121//121 101//101 122//122
f 101//101 103//103 122//122
f 105//105 122//122 103//103
f 106//106 101//101 121//121
f 41//41 11//11 42//42
f 43//43 17//17 44//44
f 18//18 42//42 11//11
f 44//44 12//12 41//41
# 192 faces, 0 coords texture

# End of File
