####
#
# OBJ File Generated by Meshlab
#
####
# Object m755.obj
#
# Vertices: 196
# Faces: 380
#
####
vn 0.000000 -0.226626 0.000021
v 0.175584 0.025000 0.183358
vn 2.282957 1.948738 -1.658850
v 0.260980 0.552772 0.121265
vn 2.821899 1.948907 -0.000186
v 0.281139 0.552778 0.183309
vn -0.000000 6.283185 -0.000598
v 0.175584 0.552778 0.183309
vn 0.872013 1.948646 -2.683983
v 0.208202 0.552768 0.082920
vn -0.872021 1.948639 -2.683976
v 0.142965 0.552768 0.082920
vn -2.282964 1.948747 -1.658851
v 0.090188 0.552772 0.121265
vn -2.821893 1.948896 -0.000186
v 0.070028 0.552778 0.183309
vn -2.282945 1.949052 1.658479
v 0.090188 0.552784 0.245353
vn -0.872012 1.949143 2.683614
v 0.142965 0.552787 0.283698
vn 0.872005 1.949150 2.683621
v 0.208202 0.552787 0.283698
vn 2.282938 1.949044 1.658477
v 0.260980 0.552784 0.245353
vn 0.000000 -6.118934 0.000010
v 0.175584 0.816667 0.183333
vn -0.000006 -5.748001 -2.055454
v 0.175584 0.808917 0.232261
vn 1.208160 -5.747992 -1.662903
v 0.146825 0.808917 0.222917
vn 1.954848 -5.748001 -0.635171
v 0.129051 0.808917 0.198453
vn 1.954844 -5.748007 0.635158
v 0.129051 0.808917 0.168214
vn 1.208150 -5.748004 1.662893
v 0.146825 0.808917 0.143750
vn 0.000003 -5.748014 2.055440
v 0.175584 0.808917 0.134406
vn -1.208153 -5.748005 1.662889
v 0.204343 0.808917 0.143750
vn -1.954847 -5.748005 0.635159
v 0.222117 0.808917 0.168214
vn -1.954850 -5.748000 -0.635170
v 0.222117 0.808917 0.198453
vn -1.208156 -5.747989 -1.662909
v 0.204343 0.808917 0.222917
vn -0.000005 -4.746122 -3.629064
v 0.175584 0.786428 0.276399
vn 2.133123 -4.746108 -2.935974
v 0.120881 0.786428 0.258625
vn 3.451454 -4.746104 -1.121435
v 0.087073 0.786428 0.212092
vn 3.451452 -4.746096 1.121447
v 0.087073 0.786428 0.154574
vn 2.133104 -4.746085 2.935988
v 0.120881 0.786428 0.108041
vn 0.000007 -4.746104 3.629071
v 0.175584 0.786428 0.090267
vn -2.133113 -4.746086 2.935981
v 0.230287 0.786428 0.108041
vn -3.451452 -4.746098 1.121448
v 0.264095 0.786428 0.154574
vn -3.451455 -4.746110 -1.121430
v 0.264095 0.786428 0.212092
vn -2.133116 -4.746108 -2.935976
v 0.230287 0.786428 0.258625
vn 0.000000 -3.354145 -4.791123
v 0.175584 0.751399 0.311428
vn 2.816151 -3.354154 -3.876111
v 0.100292 0.751399 0.286964
vn 4.556632 -3.354160 -1.480554
v 0.053759 0.751399 0.222917
vn 4.556644 -3.354170 1.480536
v 0.053759 0.751399 0.143750
vn 2.816157 -3.354160 3.876119
v 0.100292 0.751399 0.079703
vn 0.000003 -3.354164 4.791138
v 0.175584 0.751399 0.055239
vn -2.816165 -3.354154 3.876116
v 0.250876 0.751399 0.079703
vn -4.556638 -3.354174 1.480540
v 0.297409 0.751399 0.143750
vn -4.556629 -3.354165 -1.480554
v 0.297409 0.751399 0.222917
vn -2.816152 -3.354153 -3.876111
v 0.250876 0.751399 0.286964
vn 0.000000 -1.729607 -5.493309
v 0.175584 0.707261 0.333917
vn 3.228889 -1.729605 -4.444171
v 0.087073 0.707261 0.305158
vn 5.224440 -1.729591 -1.697511
v 0.032370 0.707261 0.229866
vn 5.224420 -1.729581 1.697533
v 0.032370 0.707261 0.136800
vn 3.228876 -1.729586 4.444168
v 0.087073 0.707261 0.061508
vn 0.000000 -1.729592 5.493291
v 0.175584 0.707261 0.032749
vn -3.228872 -1.729594 4.444174
v 0.264095 0.707261 0.061508
vn -5.224416 -1.729585 1.697531
v 0.318798 0.707261 0.136800
vn -5.224433 -1.729587 -1.697515
v 0.318798 0.707261 0.229866
vn -3.228891 -1.729604 -4.444174
v 0.264095 0.707261 0.305158
vn -0.000000 0.000009 -5.727057
v 0.175584 0.658333 0.341667
vn 3.366279 0.000010 -4.633294
v 0.082518 0.658333 0.311428
vn 5.446775 0.000010 -1.769768
v 0.025000 0.658333 0.232261
vn 5.446792 0.000006 1.769754
v 0.025000 0.658333 0.134406
vn 3.366295 0.000005 4.633308
v 0.082518 0.658333 0.055239
vn -0.000000 0.000009 5.727081
v 0.175584 0.658333 0.025000
vn -3.366294 0.000013 4.633306
v 0.268650 0.658333 0.055239
vn -5.446794 0.000013 1.769757
v 0.326168 0.658333 0.134406
vn -5.446778 0.000006 -1.769771
v 0.326168 0.658333 0.232261
vn -3.366278 0.000006 -4.633293
v 0.268650 0.658333 0.311428
vn -0.000002 1.729595 -5.493324
v 0.175584 0.609406 0.333917
vn 3.228901 1.729593 -4.444181
v 0.087073 0.609406 0.305158
vn 5.224452 1.729580 -1.697518
v 0.032370 0.609406 0.229866
vn 5.224435 1.729575 1.697535
v 0.032370 0.609406 0.136800
vn 3.228883 1.729580 4.444181
v 0.087073 0.609406 0.061508
vn -0.000001 1.729581 5.493306
v 0.175584 0.609406 0.032749
vn -3.228884 1.729576 4.444185
v 0.264095 0.609406 0.061508
vn -5.224430 1.729566 1.697539
v 0.318798 0.609406 0.136800
vn -5.224449 1.729579 -1.697517
v 0.318798 0.609406 0.229866
vn -3.228896 1.729597 -4.444188
v 0.264095 0.609406 0.305158
vn -0.000001 3.354139 -4.791101
v 0.175584 0.565267 0.311428
vn 2.816140 3.354148 -3.876092
v 0.100292 0.565267 0.286964
vn 4.556613 3.354152 -1.480548
v 0.053759 0.565267 0.222917
vn 4.556622 3.354162 1.480532
v 0.053759 0.565267 0.143750
vn 2.816150 3.354151 3.876099
v 0.100292 0.565267 0.079703
vn -0.000004 3.354158 4.791117
v 0.175584 0.565267 0.055239
vn -2.816144 3.354152 3.876103
v 0.250876 0.565267 0.079703
vn -4.556620 3.354171 1.480528
v 0.297409 0.565267 0.143750
vn -4.556607 3.354160 -1.480548
v 0.297409 0.565267 0.222917
vn -2.816140 3.354145 -3.876092
v 0.250876 0.565267 0.286964
vn 0.000005 4.746145 -3.629077
v 0.175584 0.530239 0.276399
vn 2.133123 4.746132 -2.935988
v 0.120881 0.530239 0.258625
vn 3.451467 4.746129 -1.121436
v 0.087073 0.530239 0.212092
vn 3.451464 4.746118 1.121453
v 0.087073 0.530239 0.154574
vn 2.133118 4.746111 2.935993
v 0.120881 0.530239 0.108041
vn -0.000007 4.746127 3.629084
v 0.175584 0.530239 0.090267
vn -2.133113 4.746108 2.935998
v 0.230287 0.530239 0.108041
vn -3.451465 4.746123 1.121449
v 0.264095 0.530239 0.154574
vn -3.451467 4.746130 -1.121439
v 0.264095 0.530239 0.212092
vn -2.133133 4.746130 -2.935983
v 0.230287 0.530239 0.258625
vn 0.000006 5.747970 -2.055459
v 0.175584 0.507749 0.232261
vn 1.208158 5.747959 -1.662914
v 0.146825 0.507749 0.222917
vn 1.954852 5.747971 -0.635171
v 0.129051 0.507749 0.198453
vn 1.954850 5.747976 0.635161
v 0.129051 0.507749 0.168214
vn 1.208156 5.747975 1.662893
v 0.146825 0.507749 0.143750
vn -0.000003 5.747984 2.055446
v 0.175584 0.507749 0.134406
vn -1.208154 5.747973 1.662897
v 0.204343 0.507749 0.143750
vn -1.954852 5.747975 0.635160
v 0.222117 0.507749 0.168214
vn -1.954855 5.747969 -0.635172
v 0.222117 0.507749 0.198453
vn -1.208163 5.747962 -1.662907
v 0.204343 0.507749 0.222917
vn 0.000000 6.118976 0.000010
v 0.175584 0.500000 0.183333
vn 0.000000 -6.118976 0.000010
v 0.175584 0.975000 0.183333
vn -0.000006 -5.747970 -2.055459
v 0.175584 0.967251 0.232261
vn 1.208163 -5.747962 -1.662907
v 0.146825 0.967251 0.222917
vn 1.954853 -5.747970 -0.635172
v 0.129051 0.967251 0.198453
vn 1.954850 -5.747977 0.635160
v 0.129051 0.967251 0.168214
vn 1.208153 -5.747974 1.662897
v 0.146825 0.967251 0.143750
vn 0.000003 -5.747984 2.055446
v 0.175584 0.967251 0.134406
vn -1.208156 -5.747975 1.662893
v 0.204343 0.967251 0.143750
vn -1.954852 -5.747975 0.635161
v 0.222117 0.967251 0.168214
vn -1.954855 -5.747969 -0.635171
v 0.222117 0.967251 0.198453
vn -1.208159 -5.747959 -1.662914
v 0.204343 0.967251 0.222917
vn -0.000005 -4.746145 -3.629077
v 0.175584 0.944761 0.276399
vn 2.133131 -4.746131 -2.935985
v 0.120881 0.944761 0.258625
vn 3.451467 -4.746127 -1.121440
v 0.087073 0.944761 0.212092
vn 3.451465 -4.746119 1.121452
v 0.087073 0.944761 0.154574
vn 2.133112 -4.746108 2.935999
v 0.120881 0.944761 0.108041
vn 0.000007 -4.746127 3.629084
v 0.175584 0.944761 0.090267
vn -2.133120 -4.746110 2.935992
v 0.230287 0.944761 0.108041
vn -3.451465 -4.746121 1.121452
v 0.264095 0.944761 0.154574
vn -3.451467 -4.746133 -1.121434
v 0.264095 0.944761 0.212092
vn -2.133124 -4.746132 -2.935987
v 0.230287 0.944761 0.258625
vn 0.000000 -3.354139 -4.791101
v 0.175584 0.909733 0.311428
vn 2.816139 -3.354148 -3.876093
v 0.100292 0.909733 0.286964
vn 4.556612 -3.354154 -1.480547
v 0.053759 0.909733 0.222917
vn 4.556623 -3.354164 1.480529
v 0.053759 0.909733 0.143750
vn 2.816144 -3.354154 3.876101
v 0.100292 0.909733 0.079703
vn 0.000003 -3.354158 4.791117
v 0.175584 0.909733 0.055239
vn -2.816152 -3.354148 3.876098
v 0.250876 0.909733 0.079703
vn -4.556617 -3.354168 1.480533
v 0.297409 0.909733 0.143750
vn -4.556609 -3.354159 -1.480547
v 0.297409 0.909733 0.222917
vn -2.816139 -3.354146 -3.876093
v 0.250876 0.909733 0.286964
vn 0.000000 -1.729596 -5.493324
v 0.175584 0.865594 0.333917
vn 3.228898 -1.729594 -4.444183
v 0.087073 0.865594 0.305158
vn 5.224454 -1.729580 -1.697516
v 0.032370 0.865594 0.229866
vn 5.224435 -1.729570 1.697538
v 0.032370 0.865594 0.136800
vn 3.228885 -1.729575 4.444180
v 0.087073 0.865594 0.061508
vn 0.000000 -1.729581 5.493306
v 0.175584 0.865594 0.032749
vn -3.228881 -1.729583 4.444186
v 0.264095 0.865594 0.061508
vn -5.224430 -1.729574 1.697536
v 0.318798 0.865594 0.136800
vn -5.224448 -1.729576 -1.697519
v 0.318798 0.865594 0.229866
vn -3.228900 -1.729593 -4.444186
v 0.264095 0.865594 0.305158
vn -0.000000 -0.000009 -5.727057
v 0.175584 0.816667 0.341667
vn 3.366279 -0.000008 -4.633294
v 0.082518 0.816667 0.311428
vn 5.446775 -0.000008 -1.769768
v 0.025000 0.816667 0.232261
vn 5.446792 -0.000012 1.769754
v 0.025000 0.816667 0.134406
vn 3.366295 -0.000012 4.633308
v 0.082518 0.816667 0.055239
vn -0.000000 -0.000009 5.727081
v 0.175584 0.816667 0.025000
vn -3.366294 -0.000004 4.633306
v 0.268650 0.816667 0.055239
vn -5.446794 -0.000004 1.769757
v 0.326168 0.816667 0.134406
vn -5.446778 -0.000011 -1.769771
v 0.326168 0.816667 0.232261
vn -3.366278 -0.000011 -4.633293
v 0.268650 0.816667 0.311428
vn -0.000002 1.729606 -5.493309
v 0.175584 0.767739 0.333917
vn 3.228892 1.729603 -4.444168
v 0.087073 0.767739 0.305158
vn 5.224438 1.729591 -1.697513
v 0.032370 0.767739 0.229866
vn 5.224421 1.729586 1.697531
v 0.032370 0.767739 0.136800
vn 3.228874 1.729591 4.444169
v 0.087073 0.767739 0.061508
vn -0.000001 1.729592 5.493291
v 0.175584 0.767739 0.032749
vn -3.228875 1.729587 4.444173
v 0.264095 0.767739 0.061508
vn -5.224416 1.729577 1.697535
v 0.318798 0.767739 0.136800
vn -5.224435 1.729590 -1.697512
v 0.318798 0.767739 0.229866
vn -3.228887 1.729608 -4.444176
v 0.264095 0.767739 0.305158
vn -0.000001 3.354145 -4.791123
v 0.175584 0.723601 0.311428
vn 2.816152 3.354154 -3.876110
v 0.100292 0.723601 0.286964
vn 4.556633 3.354158 -1.480555
v 0.053759 0.723601 0.222917
vn 4.556642 3.354168 1.480539
v 0.053759 0.723601 0.143750
vn 2.816163 3.354157 3.876117
v 0.100292 0.723601 0.079703
vn -0.000004 3.354164 4.791138
v 0.175584 0.723601 0.055239
vn -2.816156 3.354158 3.876120
v 0.250876 0.723601 0.079703
vn -4.556640 3.354177 1.480534
v 0.297409 0.723601 0.143750
vn -4.556627 3.354166 -1.480555
v 0.297409 0.723601 0.222917
vn -2.816153 3.354151 -3.876110
v 0.250876 0.723601 0.286964
vn 0.000005 4.746122 -3.629064
v 0.175584 0.688572 0.276399
vn 2.133115 4.746108 -2.935977
v 0.120881 0.688572 0.258625
vn 3.451455 4.746106 -1.121432
v 0.087073 0.688572 0.212092
vn 3.451452 4.746095 1.121449
v 0.087073 0.688572 0.154574
vn 2.133110 4.746087 2.935983
v 0.120881 0.688572 0.108041
vn -0.000007 4.746104 3.629071
v 0.175584 0.688572 0.090267
vn -2.133105 4.746085 2.935987
v 0.230287 0.688572 0.108041
vn -3.451452 4.746100 1.121445
v 0.264095 0.688572 0.154574
vn -3.451454 4.746107 -1.121435
v 0.264095 0.688572 0.212092
vn -2.133125 4.746107 -2.935973
v 0.230287 0.688572 0.258625
vn 0.000006 5.748001 -2.055454
v 0.175584 0.666083 0.232261
vn 1.208155 5.747990 -1.662909
v 0.146825 0.666083 0.222917
vn 1.954847 5.748001 -0.635169
v 0.129051 0.666083 0.198453
vn 1.954845 5.748006 0.635159
v 0.129051 0.666083 0.168214
vn 1.208153 5.748005 1.662889
v 0.146825 0.666083 0.143750
vn -0.000003 5.748014 2.055440
v 0.175584 0.666083 0.134406
vn -1.208151 5.748004 1.662893
v 0.204343 0.666083 0.143750
vn -1.954847 5.748005 0.635159
v 0.222117 0.666083 0.168214
vn -1.954850 5.747999 -0.635170
v 0.222117 0.666083 0.198453
vn -1.208160 5.747992 -1.662903
v 0.204343 0.666083 0.222917
vn 0.000000 6.118934 0.000010
v 0.175584 0.658333 0.183333
# 196 vertices, 0 vertices normals

f 1//1 2//2 3//3
f 4//4 3//3 2//2
f 1//1 5//5 2//2
f 4//4 2//2 5//5
f 1//1 6//6 5//5
f 4//4 5//5 6//6
f 1//1 7//7 6//6
f 4//4 6//6 7//7
f 1//1 8//8 7//7
f 4//4 7//7 8//8
f 1//1 9//9 8//8
f 4//4 8//8 9//9
f 1//1 10//10 9//9
f 4//4 9//9 10//10
f 1//1 11//11 10//10
f 4//4 10//10 11//11
f 1//1 12//12 11//11
f 4//4 11//11 12//12
f 1//1 3//3 12//12
f 4//4 12//12 3//3
f 14//14 15//15 13//13
f 15//15 16//16 13//13
f 16//16 17//17 13//13
f 17//17 18//18 13//13
f 18//18 19//19 13//13
f 19//19 20//20 13//13
f 20//20 21//21 13//13
f 21//21 22//22 13//13
f 22//22 23//23 13//13
f 23//23 14//14 13//13
f 14//14 24//24 15//15
f 24//24 25//25 15//15
f 15//15 25//25 16//16
f 25//25 26//26 16//16
f 16//16 26//26 17//17
f 26//26 27//27 17//17
f 17//17 27//27 18//18
f 27//27 28//28 18//18
f 18//18 28//28 19//19
f 28//28 29//29 19//19
f 19//19 29//29 20//20
f 29//29 30//30 20//20
f 20//20 30//30 21//21
f 30//30 31//31 21//21
f 21//21 31//31 22//22
f 31//31 32//32 22//22
f 22//22 32//32 23//23
f 32//32 33//33 23//23
f 23//23 33//33 14//14
f 33//33 24//24 14//14
f 24//24 34//34 25//25
f 34//34 35//35 25//25
f 25//25 35//35 26//26
f 35//35 36//36 26//26
f 26//26 36//36 27//27
f 36//36 37//37 27//27
f 27//27 37//37 28//28
f 37//37 38//38 28//28
f 28//28 38//38 29//29
f 38//38 39//39 29//29
f 29//29 39//39 30//30
f 39//39 40//40 30//30
f 30//30 40//40 31//31
f 40//40 41//41 31//31
f 31//31 41//41 32//32
f 41//41 42//42 32//32
f 32//32 42//42 33//33
f 42//42 43//43 33//33
f 33//33 43//43 24//24
f 43//43 34//34 24//24
f 34//34 44//44 35//35
f 44//44 45//45 35//35
f 35//35 45//45 36//36
f 45//45 46//46 36//36
f 36//36 46//46 37//37
f 46//46 47//47 37//37
f 37//37 47//47 38//38
f 47//47 48//48 38//38
f 38//38 48//48 39//39
f 48//48 49//49 39//39
f 39//39 49//49 40//40
f 49//49 50//50 40//40
f 40//40 50//50 41//41
f 50//50 51//51 41//41
f 41//41 51//51 42//42
f 51//51 52//52 42//42
f 42//42 52//52 43//43
f 52//52 53//53 43//43
f 43//43 53//53 34//34
f 53//53 44//44 34//34
f 44//44 54//54 45//45
f 54//54 55//55 45//45
f 45//45 55//55 46//46
f 55//55 56//56 46//46
f 46//46 56//56 47//47
f 56//56 57//57 47//47
f 47//47 57//57 48//48
f 57//57 58//58 48//48
f 48//48 58//58 49//49
f 58//58 59//59 49//49
f 49//49 59//59 50//50
f 59//59 60//60 50//50
f 50//50 60//60 51//51
f 60//60 61//61 51//51
f 51//51 61//61 52//52
f 61//61 62//62 52//52
f 52//52 62//62 53//53
f 62//62 63//63 53//53
f 53//53 63//63 44//44
f 63//63 54//54 44//44
f 54//54 64//64 55//55
f 64//64 65//65 55//55
f 55//55 65//65 56//56
f 65//65 66//66 56//56
f 56//56 66//66 57//57
f 66//66 67//67 57//57
f 57//57 67//67 58//58
f 67//67 68//68 58//58
f 58//58 68//68 59//59
f 68//68 69//69 59//59
f 59//59 69//69 60//60
f 69//69 70//70 60//60
f 60//60 70//70 61//61
f 70//70 71//71 61//61
f 61//61 71//71 62//62
f 71//71 72//72 62//62
f 62//62 72//72 63//63
f 72//72 73//73 63//63
f 63//63 73//73 54//54
f 73//73 64//64 54//54
f 64//64 74//74 65//65
f 74//74 75//75 65//65
f 65//65 75//75 66//66
f 75//75 76//76 66//66
f 66//66 76//76 67//67
f 76//76 77//77 67//67
f 67//67 77//77 68//68
f 77//77 78//78 68//68
f 68//68 78//78 69//69
f 78//78 79//79 69//69
f 69//69 79//79 70//70
f 79//79 80//80 70//70
f 70//70 80//80 71//71
f 80//80 81//81 71//71
f 71//71 81//81 72//72
f 81//81 82//82 72//72
f 72//72 82//82 73//73
f 82//82 83//83 73//73
f 73//73 83//83 64//64
f 83//83 74//74 64//64
f 74//74 84//84 75//75
f 84//84 85//85 75//75
f 75//75 85//85 76//76
f 85//85 86//86 76//76
f 76//76 86//86 77//77
f 86//86 87//87 77//77
f 77//77 87//87 78//78
f 87//87 88//88 78//78
f 78//78 88//88 79//79
f 88//88 89//89 79//79
f 79//79 89//89 80//80
f 89//89 90//90 80//80
f 80//80 90//90 81//81
f 90//90 91//91 81//81
f 81//81 91//91 82//82
f 91//91 92//92 82//82
f 82//82 92//92 83//83
f 92//92 93//93 83//83
f 83//83 93//93 74//74
f 93//93 84//84 74//74
f 84//84 94//94 85//85
f 94//94 95//95 85//85
f 85//85 95//95 86//86
f 95//95 96//96 86//86
f 86//86 96//96 87//87
f 96//96 97//97 87//87
f 87//87 97//97 88//88
f 97//97 98//98 88//88
f 88//88 98//98 89//89
f 98//98 99//99 89//89
f 89//89 99//99 90//90
f 99//99 100//100 90//90
f 90//90 100//100 91//91
f 100//100 101//101 91//91
f 91//91 101//101 92//92
f 101//101 102//102 92//92
f 92//92 102//102 93//93
f 102//102 103//103 93//93
f 93//93 103//103 84//84
f 103//103 94//94 84//84
f 94//94 104//104 95//95
f 95//95 104//104 96//96
f 96//96 104//104 97//97
f 97//97 104//104 98//98
f 98//98 104//104 99//99
f 99//99 104//104 100//100
f 100//100 104//104 101//101
f 101//101 104//104 102//102
f 102//102 104//104 103//103
f 103//103 104//104 94//94
f 106//106 107//107 105//105
f 107//107 108//108 105//105
f 108//108 109//109 105//105
f 109//109 110//110 105//105
f 110//110 111//111 105//105
f 111//111 112//112 105//105
f 112//112 113//113 105//105
f 113//113 114//114 105//105
f 114//114 115//115 105//105
f 115//115 106//106 105//105
f 106//106 116//116 107//107
f 116//116 117//117 107//107
f 107//107 117//117 108//108
f 117//117 118//118 108//108
f 108//108 118//118 109//109
f 118//118 119//119 109//109
f 109//109 119//119 110//110
f 119//119 120//120 110//110
f 110//110 120//120 111//111
f 120//120 121//121 111//111
f 111//111 121//121 112//112
f 121//121 122//122 112//112
f 112//112 122//122 113//113
f 122//122 123//123 113//113
f 113//113 123//123 114//114
f 123//123 124//124 114//114
f 114//114 124//124 115//115
f 124//124 125//125 115//115
f 115//115 125//125 106//106
f 125//125 116//116 106//106
f 116//116 126//126 117//117
f 126//126 127//127 117//117
f 117//117 127//127 118//118
f 127//127 128//128 118//118
f 118//118 128//128 119//119
f 128//128 129//129 119//119
f 119//119 129//129 120//120
f 129//129 130//130 120//120
f 120//120 130//130 121//121
f 130//130 131//131 121//121
f 121//121 131//131 122//122
f 131//131 132//132 122//122
f 122//122 132//132 123//123
f 132//132 133//133 123//123
f 123//123 133//133 124//124
f 133//133 134//134 124//124
f 124//124 134//134 125//125
f 134//134 135//135 125//125
f 125//125 135//135 116//116
f 135//135 126//126 116//116
f 126//126 136//136 127//127
f 136//136 137//137 127//127
f 127//127 137//137 128//128
f 137//137 138//138 128//128
f 128//128 138//138 129//129
f 138//138 139//139 129//129
f 129//129 139//139 130//130
f 139//139 140//140 130//130
f 130//130 140//140 131//131
f 140//140 141//141 131//131
f 131//131 141//141 132//132
f 141//141 142//142 132//132
f 132//132 142//142 133//133
f 142//142 143//143 133//133
f 133//133 143//143 134//134
f 143//143 144//144 134//134
f 134//134 144//144 135//135
f 144//144 145//145 135//135
f 135//135 145//145 126//126
f 145//145 136//136 126//126
f 136//136 146//146 137//137
f 146//146 147//147 137//137
f 137//137 147//147 138//138
f 147//147 148//148 138//138
f 138//138 148//148 139//139
f 148//148 149//149 139//139
f 139//139 149//149 140//140
f 149//149 150//150 140//140
f 140//140 150//150 141//141
f 150//150 151//151 141//141
f 141//141 151//151 142//142
f 151//151 152//152 142//142
f 142//142 152//152 143//143
f 152//152 153//153 143//143
f 143//143 153//153 144//144
f 153//153 154//154 144//144
f 144//144 154//154 145//145
f 154//154 155//155 145//145
f 145//145 155//155 136//136
f 155//155 146//146 136//136
f 146//146 156//156 147//147
f 156//156 157//157 147//147
f 147//147 157//157 148//148
f 157//157 158//158 148//148
f 148//148 158//158 149//149
f 158//158 159//159 149//149
f 149//149 159//159 150//150
f 159//159 160//160 150//150
f 150//150 160//160 151//151
f 160//160 161//161 151//151
f 151//151 161//161 152//152
f 161//161 162//162 152//152
f 152//152 162//162 153//153
f 162//162 163//163 153//153
f 153//153 163//163 154//154
f 163//163 164//164 154//154
f 154//154 164//164 155//155
f 164//164 165//165 155//155
f 155//155 165//165 146//146
f 165//165 156//156 146//146
f 156//156 166//166 157//157
f 166//166 167//167 157//157
f 157//157 167//167 158//158
f 167//167 168//168 158//158
f 158//158 168//168 159//159
f 168//168 169//169 159//159
f 159//159 169//169 160//160
f 169//169 170//170 160//160
f 160//160 170//170 161//161
f 170//170 171//171 161//161
f 161//161 171//171 162//162
f 171//171 172//172 162//162
f 162//162 172//172 163//163
f 172//172 173//173 163//163
f 163//163 173//173 164//164
f 173//173 174//174 164//164
f 164//164 174//174 165//165
f 174//174 175//175 165//165
f 165//165 175//175 156//156
f 175//175 166//166 156//156
f 166//166 176//176 167//167
f 176//176 177//177 167//167
f 167//167 177//177 168//168
f 177//177 178//178 168//168
f 168//168 178//178 169//169
f 178//178 179//179 169//169
f 169//169 179//179 170//170
f 179//179 180//180 170//170
f 170//170 180//180 171//171
f 180//180 181//181 171//171
f 171//171 181//181 172//172
f 181//181 182//182 172//172
f 172//172 182//182 173//173
f 182//182 183//183 173//173
f 173//173 183//183 174//174
f 183//183 184//184 174//174
f 174//174 184//184 175//175
f 184//184 185//185 175//175
f 175//175 185//185 166//166
f 185//185 176//176 166//166
f 176//176 186//186 177//177
f 186//186 187//187 177//177
f 177//177 187//187 178//178
f 187//187 188//188 178//178
f 178//178 188//188 179//179
f 188//188 189//189 179//179
f 179//179 189//189 180//180
f 189//189 190//190 180//180
f 180//180 190//190 181//181
f 190//190 191//191 181//181
f 181//181 191//191 182//182
f 191//191 192//192 182//182
f 182//182 192//192 183//183
f 192//192 193//193 183//183
f 183//183 193//193 184//184
f 193//193 194//194 184//184
f 184//184 194//194 185//185
f 194//194 195//195 185//185
f 185//185 195//195 176//176
f 195//195 186//186 176//176
f 186//186 196//196 187//187
f 187//187 196//196 188//188
f 188//188 196//196 189//189
f 189//189 196//196 190//190
f 190//190 196//196 191//191
f 191//191 196//196 192//192
f 192//192 196//196 193//193
f 193//193 196//196 194//194
f 194//194 196//196 195//195
f 195//195 196//196 186//186
# 380 faces, 0 coords texture

# End of File
