####
#
# OBJ File Generated by Meshlab
#
####
# Object m761.obj
#
# Vertices: 104
# Faces: 200
#
####
vn 0.000001 -1.190770 0.000111
v 0.296429 0.025000 0.296454
vn 1.990297 1.283074 -1.446151
v 0.516019 0.567842 0.136862
vn 2.460137 1.283210 -0.000123
v 0.567857 0.567857 0.296403
vn 0.000000 6.283185 -0.000586
v 0.296429 0.567857 0.296403
vn 0.760226 1.282987 -2.339843
v 0.380305 0.567833 0.038260
vn -0.760223 1.282989 -2.339846
v 0.212553 0.567833 0.038260
vn -1.990292 1.283071 -1.446153
v 0.076838 0.567842 0.136862
vn -2.460133 1.283205 -0.000123
v 0.025000 0.567857 0.296403
vn -1.990285 1.283339 1.445910
v 0.076838 0.567872 0.455945
vn -0.760221 1.283427 2.339612
v 0.212553 0.567881 0.554547
vn 0.760224 1.283425 2.339609
v 0.380305 0.567881 0.554547
vn 1.990290 1.283342 1.445908
v 0.516019 0.567872 0.455945
vn -0.000006 -6.118952 -0.000004
v 0.296429 0.975000 0.296429
vn -0.000002 -5.747991 -2.055449
v 0.296429 0.961715 0.380305
vn 1.208165 -5.747989 -1.662884
v 0.247127 0.961715 0.364286
vn 1.954834 -5.748003 -0.635158
v 0.216658 0.961715 0.322348
vn 1.954831 -5.748006 0.635150
v 0.216658 0.961715 0.270509
vn 1.208142 -5.747982 1.662907
v 0.247127 0.961715 0.228571
vn 0.000007 -5.748005 2.055437
v 0.296429 0.961715 0.212553
vn -1.208166 -5.747984 1.662890
v 0.345730 0.961715 0.228571
vn -1.954837 -5.748001 0.635164
v 0.376199 0.961715 0.270509
vn -1.954836 -5.748005 -0.635151
v 0.376199 0.961715 0.322348
vn -1.208165 -5.747996 -1.662878
v 0.345730 0.961715 0.364286
vn -0.000011 -4.746124 -3.629076
v 0.296429 0.923162 0.455970
vn 2.133112 -4.746097 -2.935986
v 0.202652 0.923162 0.425501
vn 3.451451 -4.746104 -1.121446
v 0.144695 0.923162 0.345730
vn 3.451451 -4.746101 1.121452
v 0.144695 0.923162 0.247127
vn 2.133114 -4.746114 2.935986
v 0.202652 0.923162 0.167357
vn -0.000005 -4.746116 3.629066
v 0.296429 0.923162 0.136887
vn -2.133108 -4.746129 2.935980
v 0.390205 0.923162 0.167357
vn -3.451449 -4.746104 1.121443
v 0.448162 0.923162 0.247127
vn -3.451457 -4.746100 -1.121442
v 0.448162 0.923162 0.345730
vn -2.133108 -4.746102 -2.935989
v 0.390205 0.923162 0.425501
vn -0.000004 -3.354144 -4.791128
v 0.296429 0.863113 0.516019
vn 2.816146 -3.354154 -3.876121
v 0.167357 0.863113 0.474081
vn 4.556635 -3.354153 -1.480548
v 0.087586 0.863113 0.364286
vn 4.556632 -3.354149 1.480554
v 0.087586 0.863113 0.228571
vn 2.816141 -3.354165 3.876108
v 0.167357 0.863113 0.118776
vn -0.000002 -3.354164 4.791123
v 0.296429 0.863113 0.076838
vn -2.816151 -3.354153 3.876092
v 0.425501 0.863113 0.118776
vn -4.556643 -3.354158 1.480541
v 0.505271 0.863113 0.228571
vn -4.556641 -3.354161 -1.480540
v 0.505271 0.863113 0.364286
vn -2.816157 -3.354143 -3.876099
v 0.425501 0.863113 0.474081
vn -0.000004 -1.729585 -5.493311
v 0.296429 0.787447 0.554572
vn 3.228884 -1.729584 -4.444166
v 0.144695 0.787447 0.505271
vn 5.224445 -1.729585 -1.697514
v 0.050919 0.787447 0.376199
vn 5.224442 -1.729580 1.697518
v 0.050919 0.787447 0.216658
vn 3.228883 -1.729580 4.444160
v 0.144695 0.787447 0.087586
vn -0.000003 -1.729582 5.493302
v 0.296429 0.787447 0.038285
vn -3.228892 -1.729567 4.444167
v 0.448162 0.787447 0.087586
vn -5.224440 -1.729570 1.697513
v 0.541938 0.787447 0.216658
vn -5.224443 -1.729579 -1.697507
v 0.541938 0.787447 0.376199
vn -3.228891 -1.729575 -4.444174
v 0.448162 0.787447 0.505271
vn -0.000005 0.000000 -5.727078
v 0.296429 0.703571 0.567857
vn 3.366280 -0.000003 -4.633313
v 0.136887 0.703571 0.516019
vn 5.446772 -0.000003 -1.769775
v 0.038285 0.703571 0.380305
vn 5.446786 0.000001 1.769761
v 0.038285 0.703571 0.212553
vn 3.366293 0.000001 4.633311
v 0.136887 0.703571 0.076838
vn -0.000005 -0.000000 5.727082
v 0.296429 0.703571 0.025000
vn -3.366300 0.000001 4.633308
v 0.455970 0.703571 0.076838
vn -5.446796 0.000000 1.769763
v 0.554572 0.703571 0.212553
vn -5.446781 0.000001 -1.769777
v 0.554572 0.703571 0.380305
vn -3.366287 0.000001 -4.633310
v 0.455970 0.703571 0.516019
vn -0.000005 1.729596 -5.493303
v 0.296429 0.619695 0.554572
vn 3.228878 1.729601 -4.444158
v 0.144695 0.619695 0.505271
vn 5.224435 1.729603 -1.697510
v 0.050919 0.619695 0.376199
vn 5.224437 1.729588 1.697514
v 0.050919 0.619695 0.216658
vn 3.228878 1.729588 4.444156
v 0.144695 0.619695 0.087586
vn -0.000006 1.729595 5.493293
v 0.296429 0.619695 0.038285
vn -3.228884 1.729578 4.444162
v 0.448162 0.619695 0.087586
vn -5.224433 1.729581 1.697509
v 0.541938 0.619695 0.216658
vn -5.224432 1.729591 -1.697507
v 0.541938 0.619695 0.376199
vn -3.228888 1.729587 -4.444163
v 0.448162 0.619695 0.505271
vn 0.000000 3.354164 -4.791122
v 0.296429 0.544030 0.516019
vn 2.816144 3.354171 -3.876114
v 0.167357 0.544030 0.474081
vn 4.556631 3.354165 -1.480551
v 0.087586 0.544030 0.364286
vn 4.556630 3.354171 1.480545
v 0.087586 0.544030 0.228571
vn 2.816131 3.354187 3.876109
v 0.167357 0.544030 0.118776
vn -0.000002 3.354179 4.791119
v 0.296429 0.544030 0.076838
vn -2.816148 3.354172 3.876086
v 0.425501 0.544030 0.118776
vn -4.556634 3.354180 1.480540
v 0.505271 0.544030 0.228571
vn -4.556638 3.354175 -1.480541
v 0.505271 0.544030 0.364286
vn -2.816161 3.354155 -3.876097
v 0.425501 0.544030 0.474081
vn 0.000002 4.746122 -3.629077
v 0.296429 0.483981 0.455970
vn 2.133105 4.746091 -2.935998
v 0.202652 0.483981 0.425501
vn 3.451454 4.746105 -1.121442
v 0.144695 0.483981 0.345730
vn 3.451446 4.746104 1.121450
v 0.144695 0.483981 0.247127
vn 2.133115 4.746115 2.935986
v 0.202652 0.483981 0.167357
vn -0.000005 4.746118 3.629066
v 0.296429 0.483981 0.136887
vn -2.133116 4.746125 2.935976
v 0.390205 0.483981 0.167357
vn -3.451454 4.746096 1.121453
v 0.448162 0.483981 0.247127
vn -3.451454 4.746104 -1.121439
v 0.448162 0.483981 0.345730
vn -2.133105 4.746111 -2.935981
v 0.390205 0.483981 0.425501
vn -0.000011 5.747990 -2.055450
v 0.296429 0.445428 0.380305
vn 1.208159 5.747994 -1.662881
v 0.247127 0.445428 0.364286
vn 1.954832 5.748006 -0.635150
v 0.216658 0.445428 0.322348
vn 1.954833 5.748001 0.635162
v 0.216658 0.445428 0.270509
vn 1.208161 5.747983 1.662891
v 0.247127 0.445428 0.228571
vn -0.000019 5.748005 2.055436
v 0.296429 0.445428 0.212553
vn -1.208148 5.747983 1.662904
v 0.345730 0.445428 0.228571
vn -1.954835 5.748006 0.635152
v 0.376199 0.445428 0.270509
vn -1.954838 5.748002 -0.635159
v 0.376199 0.445428 0.322348
vn -1.208171 5.747990 -1.662883
v 0.345730 0.445428 0.364286
vn -0.000006 6.118952 -0.000004
v 0.296429 0.432143 0.296429
# 104 vertices, 0 vertices normals

f 1//1 2//2 3//3
f 4//4 3//3 2//2
f 1//1 5//5 2//2
f 4//4 2//2 5//5
f 1//1 6//6 5//5
f 4//4 5//5 6//6
f 1//1 7//7 6//6
f 4//4 6//6 7//7
f 1//1 8//8 7//7
f 4//4 7//7 8//8
f 1//1 9//9 8//8
f 4//4 8//8 9//9
f 1//1 10//10 9//9
f 4//4 9//9 10//10
f 1//1 11//11 10//10
f 4//4 10//10 11//11
f 1//1 12//12 11//11
f 4//4 11//11 12//12
f 1//1 3//3 12//12
f 4//4 12//12 3//3
f 14//14 15//15 13//13
f 15//15 16//16 13//13
f 16//16 17//17 13//13
f 17//17 18//18 13//13
f 18//18 19//19 13//13
f 19//19 20//20 13//13
f 20//20 21//21 13//13
f 21//21 22//22 13//13
f 22//22 23//23 13//13
f 23//23 14//14 13//13
f 14//14 24//24 15//15
f 24//24 25//25 15//15
f 15//15 25//25 16//16
f 25//25 26//26 16//16
f 16//16 26//26 17//17
f 26//26 27//27 17//17
f 17//17 27//27 18//18
f 27//27 28//28 18//18
f 18//18 28//28 19//19
f 28//28 29//29 19//19
f 19//19 29//29 20//20
f 29//29 30//30 20//20
f 20//20 30//30 21//21
f 30//30 31//31 21//21
f 21//21 31//31 22//22
f 31//31 32//32 22//22
f 22//22 32//32 23//23
f 32//32 33//33 23//23
f 23//23 33//33 14//14
f 33//33 24//24 14//14
f 24//24 34//34 25//25
f 34//34 35//35 25//25
f 25//25 35//35 26//26
f 35//35 36//36 26//26
f 26//26 36//36 27//27
f 36//36 37//37 27//27
f 27//27 37//37 28//28
f 37//37 38//38 28//28
f 28//28 38//38 29//29
f 38//38 39//39 29//29
f 29//29 39//39 30//30
f 39//39 40//40 30//30
f 30//30 40//40 31//31
f 40//40 41//41 31//31
f 31//31 41//41 32//32
f 41//41 42//42 32//32
f 32//32 42//42 33//33
f 42//42 43//43 33//33
f 33//33 43//43 24//24
f 43//43 34//34 24//24
f 34//34 44//44 35//35
f 44//44 45//45 35//35
f 35//35 45//45 36//36
f 45//45 46//46 36//36
f 36//36 46//46 37//37
f 46//46 47//47 37//37
f 37//37 47//47 38//38
f 47//47 48//48 38//38
f 38//38 48//48 39//39
f 48//48 49//49 39//39
f 39//39 49//49 40//40
f 49//49 50//50 40//40
f 40//40 50//50 41//41
f 50//50 51//51 41//41
f 41//41 51//51 42//42
f 51//51 52//52 42//42
f 42//42 52//52 43//43
f 52//52 53//53 43//43
f 43//43 53//53 34//34
f 53//53 44//44 34//34
f 44//44 54//54 45//45
f 54//54 55//55 45//45
f 45//45 55//55 46//46
f 55//55 56//56 46//46
f 46//46 56//56 47//47
f 56//56 57//57 47//47
f 47//47 57//57 48//48
f 57//57 58//58 48//48
f 48//48 58//58 49//49
f 58//58 59//59 49//49
f 49//49 59//59 50//50
f 59//59 60//60 50//50
f 50//50 60//60 51//51
f 60//60 61//61 51//51
f 51//51 61//61 52//52
f 61//61 62//62 52//52
f 52//52 62//62 53//53
f 62//62 63//63 53//53
f 53//53 63//63 44//44
f 63//63 54//54 44//44
f 54//54 64//64 55//55
f 64//64 65//65 55//55
f 55//55 65//65 56//56
f 65//65 66//66 56//56
f 56//56 66//66 57//57
f 66//66 67//67 57//57
f 57//57 67//67 58//58
f 67//67 68//68 58//58
f 58//58 68//68 59//59
f 68//68 69//69 59//59
f 59//59 69//69 60//60
f 69//69 70//70 60//60
f 60//60 70//70 61//61
f 70//70 71//71 61//61
f 61//61 71//71 62//62
f 71//71 72//72 62//62
f 62//62 72//72 63//63
f 72//72 73//73 63//63
f 63//63 73//73 54//54
f 73//73 64//64 54//54
f 64//64 74//74 65//65
f 74//74 75//75 65//65
f 65//65 75//75 66//66
f 75//75 76//76 66//66
f 66//66 76//76 67//67
f 76//76 77//77 67//67
f 67//67 77//77 68//68
f 77//77 78//78 68//68
f 68//68 78//78 69//69
f 78//78 79//79 69//69
f 69//69 79//79 70//70
f 79//79 80//80 70//70
f 70//70 80//80 71//71
f 80//80 81//81 71//71
f 71//71 81//81 72//72
f 81//81 82//82 72//72
f 72//72 82//82 73//73
f 82//82 83//83 73//73
f 73//73 83//83 64//64
f 83//83 74//74 64//64
f 74//74 84//84 75//75
f 84//84 85//85 75//75
f 75//75 85//85 76//76
f 85//85 86//86 76//76
f 76//76 86//86 77//77
f 86//86 87//87 77//77
f 77//77 87//87 78//78
f 87//87 88//88 78//78
f 78//78 88//88 79//79
f 88//88 89//89 79//79
f 79//79 89//89 80//80
f 89//89 90//90 80//80
f 80//80 90//90 81//81
f 90//90 91//91 81//81
f 81//81 91//91 82//82
f 91//91 92//92 82//82
f 82//82 92//92 83//83
f 92//92 93//93 83//83
f 83//83 93//93 74//74
f 93//93 84//84 74//74
f 84//84 94//94 85//85
f 94//94 95//95 85//85
f 85//85 95//95 86//86
f 95//95 96//96 86//86
f 86//86 96//96 87//87
f 96//96 97//97 87//87
f 87//87 97//97 88//88
f 97//97 98//98 88//88
f 88//88 98//98 89//89
f 98//98 99//99 89//89
f 89//89 99//99 90//90
f 99//99 100//100 90//90
f 90//90 100//100 91//91
f 100//100 101//101 91//91
f 91//91 101//101 92//92
f 101//101 102//102 92//92
f 92//92 102//102 93//93
f 102//102 103//103 93//93
f 93//93 103//103 84//84
f 103//103 94//94 84//84
f 94//94 104//104 95//95
f 95//95 104//104 96//96
f 96//96 104//104 97//97
f 97//97 104//104 98//98
f 98//98 104//104 99//99
f 99//99 104//104 100//100
f 100//100 104//104 101//101
f 101//101 104//104 102//102
f 102//102 104//104 103//103
f 103//103 104//104 94//94
# 200 faces, 0 coords texture

# End of File
