####
#
# OBJ File Generated by Meshlab
#
####
# Object m771.obj
#
# Vertices: 136
# Faces: 204
#
####
vn 0.246992 2.207549 1.570690
v 0.420691 0.431628 0.725417
vn 2.207854 -0.246961 1.570960
v 0.308873 0.571635 0.725417
vn 2.207854 -0.246961 -1.570960
v 0.308873 0.571635 0.940430
vn 0.246992 2.207549 -1.570690
v 0.420691 0.431628 0.940430
vn -0.246917 -2.207498 1.570637
v 0.317273 0.578346 0.725417
vn -2.207779 0.247013 1.570898
v 0.429092 0.438339 0.725417
vn -2.207779 0.247013 -1.570898
v 0.429092 0.438339 0.940430
vn -0.246917 -2.207498 -1.570637
v 0.317273 0.578346 0.940430
vn 0.247121 2.207650 1.570794
v 0.198316 0.352875 0.372868
vn 2.207649 -0.247128 1.570794
v 0.025000 0.569884 0.372868
vn 2.207649 -0.247128 -1.570794
v 0.025000 0.569884 0.383618
vn 0.247121 2.207650 -1.570794
v 0.198316 0.352875 0.383618
vn -0.247124 -2.207661 1.570804
v 0.242009 0.743199 0.372868
vn -2.207652 0.247117 1.570795
v 0.415325 0.526192 0.372868
vn -2.207652 0.247117 -1.570795
v 0.415325 0.526192 0.383618
vn -0.247124 -2.207661 -1.570804
v 0.242009 0.743199 0.383618
vn 0.246922 2.207491 1.570631
v 0.536295 0.622802 0.372938
vn 2.207677 -0.247105 1.570816
v 0.362979 0.839811 0.372938
vn 2.207677 -0.247105 -1.570816
v 0.362979 0.839811 0.458044
vn 0.246922 2.207491 -1.570631
v 0.536295 0.622802 0.458044
vn -0.247096 -2.207639 1.570781
v 0.371379 0.846520 0.372938
vn -2.207851 0.246957 1.570957
v 0.544695 0.629513 0.372938
vn -2.207851 0.246957 -1.570957
v 0.544695 0.629513 0.458044
vn -0.247096 -2.207639 -1.570781
v 0.371379 0.846520 0.458044
vn 0.247320 2.207410 1.570599
v 0.233407 0.366699 0.231128
vn 2.207850 -0.247366 1.570997
v 0.226701 0.375099 0.231128
vn 2.207850 -0.247366 -1.570997
v 0.226701 0.375099 0.481975
vn 0.247320 2.207410 -1.570599
v 0.233407 0.366699 0.481975
vn -0.247302 -2.207425 1.570610
v 0.548712 0.632277 0.231128
vn -2.207832 0.247351 1.570979
v 0.555419 0.623876 0.231128
vn -2.207832 0.247351 -1.570979
v 0.555419 0.623876 0.481975
vn -0.247302 -2.207425 -1.570610
v 0.548712 0.632277 0.481975
vn 0.247126 2.207627 1.570773
v 0.281078 0.315221 0.715944
vn 2.207671 -0.247137 1.570814
v 0.053206 0.600548 0.715944
vn 2.207671 -0.247137 -1.570814
v 0.053206 0.600548 0.728253
vn 0.247126 2.207627 -1.570773
v 0.281078 0.315221 0.728253
vn -0.247115 -2.207655 1.570797
v 0.203708 0.720749 0.715944
vn -2.207660 0.247109 1.570801
v 0.431585 0.435427 0.715944
vn -2.207660 0.247109 -1.570801
v 0.431585 0.435427 0.728253
vn -0.247115 -2.207655 -1.570797
v 0.203708 0.720749 0.728253
vn 0.247151 2.207661 1.570806
v 0.506976 0.031536 0.625780
vn 2.207660 -0.247131 1.570804
v 0.283191 0.311741 0.625780
vn 2.207660 -0.247131 -1.570804
v 0.283191 0.311741 0.634735
vn 0.247151 2.207661 -1.570806
v 0.506976 0.031536 0.634735
vn -0.247119 -2.207657 1.570800
v 0.430196 0.429148 0.625780
vn -2.207629 0.247135 1.570776
v 0.653986 0.148943 0.625780
vn -2.207629 0.247135 -1.570776
v 0.653986 0.148943 0.634735
vn -0.247119 -2.207657 -1.570800
v 0.430196 0.429148 0.634735
vn 0.247131 2.207663 1.570806
v 0.511394 0.025472 0.937111
vn 2.207644 -0.247127 1.570789
v 0.050149 0.602993 0.937111
vn 2.207644 -0.247127 -1.570789
v 0.050149 0.602993 0.972946
vn 0.247131 2.207663 -1.570806
v 0.511394 0.025472 0.972946
vn -0.247135 -2.207653 1.570797
v 0.204158 0.725992 0.937111
vn -2.207648 0.247137 1.570793
v 0.665399 0.148467 0.937111
vn -2.207648 0.247137 -1.570793
v 0.665399 0.148467 0.972946
vn -0.247135 -2.207653 -1.570797
v 0.204158 0.725992 0.972946
vn 0.247006 2.207532 1.570677
v 0.307641 0.573176 0.725417
vn 2.207618 -0.247178 1.570771
v 0.195827 0.713182 0.725417
vn 2.207618 -0.247178 -1.570771
v 0.195827 0.713182 0.940430
vn 0.247006 2.207532 -1.570677
v 0.307641 0.573176 0.940430
vn -0.247177 -2.207683 1.570829
v 0.204228 0.719891 0.725417
vn -2.207790 0.247027 1.570909
v 0.316042 0.579887 0.725417
vn -2.207790 0.247027 -1.570909
v 0.316042 0.579887 0.940430
vn -0.247177 -2.207683 -1.570829
v 0.204228 0.719891 0.940430
vn 0.247134 2.207669 1.570812
v 0.331385 0.459236 0.231133
vn 2.207648 -0.247120 1.570791
v 0.158069 0.676243 0.231133
vn 2.207648 -0.247120 -1.570791
v 0.158069 0.676243 0.241887
vn 0.247134 2.207669 -1.570812
v 0.331385 0.459236 0.241887
vn -0.247125 -2.207654 1.570797
v 0.375077 0.849558 0.231133
vn -2.207639 0.247135 1.570785
v 0.548394 0.632548 0.231133
vn -2.207639 0.247135 -1.570785
v 0.548394 0.632548 0.241887
vn -0.247125 -2.207654 -1.570797
v 0.375077 0.849558 0.241887
vn 0.246994 2.207810 1.570924
v 0.511360 0.025000 0.025000
vn 2.207527 -0.246964 1.570667
v 0.504649 0.033401 0.025000
vn 2.207527 -0.246964 -1.570667
v 0.504649 0.033401 0.490860
vn 0.246994 2.207810 -1.570924
v 0.511360 0.025000 0.490860
vn -0.246961 -2.207854 1.570960
v 0.826660 0.290578 0.025000
vn -2.207494 0.246920 1.570634
v 0.833371 0.282178 0.025000
vn -2.207494 0.246920 -1.570634
v 0.833371 0.282178 0.490860
vn -0.246961 -2.207854 -1.570960
v 0.826660 0.290578 0.490860
vn 0.246856 2.207998 1.571078
v 0.511102 0.025838 0.491223
vn 2.207376 -0.246786 1.570515
v 0.505509 0.032837 0.491223
vn 2.207376 -0.246786 -1.570515
v 0.505509 0.032837 0.975000
vn 0.246856 2.207998 -1.571078
v 0.511102 0.025838 0.975000
vn -0.247556 -2.207121 1.570363
v 0.659518 0.155837 0.491223
vn -2.208076 0.247664 1.571229
v 0.665106 0.148834 0.491223
vn -2.208076 0.247664 -1.571229
v 0.665106 0.148834 0.975000
vn -0.247556 -2.207121 -1.570363
v 0.659518 0.155837 0.975000
vn 0.247045 2.207798 1.570918
v 0.337602 0.551642 0.784174
vn 2.207743 -0.246844 1.570849
v 0.326420 0.565640 0.784174
vn 2.207743 -0.246844 -1.570849
v 0.326420 0.565640 0.864803
vn 0.247045 2.207798 -1.570918
v 0.337602 0.551642 0.864803
vn -0.247002 -2.207413 1.570570
v 0.343920 0.579621 0.784174
vn -2.207700 0.247229 1.570848
v 0.355102 0.565618 0.784174
vn -2.207700 0.247229 -1.570848
v 0.355102 0.565618 0.864803
vn -0.247002 -2.207413 -1.570570
v 0.343920 0.579621 0.864803
vn 0.246968 2.207845 1.570952
v 0.056162 0.594955 0.025000
vn 2.207503 -0.246927 1.570642
v 0.049451 0.603355 0.025000
vn 2.207503 -0.246927 -1.570642
v 0.049451 0.603355 0.490860
vn 0.246968 2.207845 -1.570952
v 0.056162 0.594955 0.490860
vn -0.247015 -2.207781 1.570899
v 0.371462 0.860534 0.025000
vn -2.207550 0.246992 1.570691
v 0.378173 0.852133 0.025000
vn -2.207550 0.246992 -1.570691
v 0.378173 0.852133 0.490860
vn -0.247015 -2.207781 -1.570899
v 0.371462 0.860534 0.490860
vn 0.246848 2.208009 1.571087
v 0.055480 0.596326 0.491223
vn 2.207371 -0.246773 1.570509
v 0.049887 0.603325 0.491223
vn 2.207371 -0.246773 -1.570509
v 0.049887 0.603325 0.975000
vn 0.246848 2.208009 -1.571087
v 0.055480 0.596326 0.975000
vn -0.246921 -2.207909 1.571005
v 0.203892 0.726322 0.491223
vn -2.207443 0.246873 1.570584
v 0.209485 0.719322 0.491223
vn -2.207443 0.246873 -1.570584
v 0.209485 0.719322 0.975000
vn -0.246921 -2.207909 -1.571005
v 0.203892 0.726322 0.975000
vn 0.246968 2.207456 1.570605
v 0.305419 0.591619 0.784174
vn 2.207708 -0.247152 1.570849
v 0.294237 0.605621 0.784174
vn 2.207708 -0.247152 -1.570849
v 0.294237 0.605621 0.864803
vn 0.246968 2.207456 -1.570605
v 0.305419 0.591619 0.864803
vn -0.247002 -2.207764 1.570883
v 0.311737 0.619598 0.784174
vn -2.207743 0.246844 1.570849
v 0.322919 0.605600 0.784174
vn -2.207743 0.246844 -1.570849
v 0.322919 0.605600 0.864803
vn -0.247002 -2.207764 -1.570883
v 0.311737 0.619598 0.864803
vn 0.247203 2.207574 1.570733
v 0.283780 0.310903 0.488847
vn 2.207737 -0.247199 1.570879
v 0.278191 0.317902 0.488847
vn 2.207737 -0.247199 -1.570879
v 0.278191 0.317902 0.954707
vn 0.247203 2.207574 -1.570733
v 0.283780 0.310903 0.954707
vn -0.247520 -2.207127 1.570365
v 0.429397 0.438667 0.488847
vn -2.208054 0.247646 1.571207
v 0.434986 0.431663 0.488847
vn -2.208054 0.247646 -1.571207
v 0.434986 0.431663 0.954707
vn -0.247520 -2.207127 -1.570365
v 0.429397 0.438667 0.954707
vn 0.247123 2.207642 1.570786
v 0.511351 0.025437 0.482425
vn 2.207656 -0.247132 1.570800
v 0.050110 0.602962 0.482425
vn 2.207656 -0.247132 -1.570800
v 0.050110 0.602962 0.491384
vn 0.247123 2.207642 -1.570786
v 0.511351 0.025437 0.491384
vn -0.247128 -2.207652 1.570796
v 0.368620 0.857342 0.482425
vn -2.207661 0.247122 1.570803
v 0.829861 0.279820 0.482425
vn -2.207661 0.247122 -1.570803
v 0.829861 0.279820 0.491384
vn -0.247128 -2.207652 -1.570796
v 0.368620 0.857342 0.491384
# 136 vertices, 0 vertices normals

f 2//2 4//4 1//1
f 2//2 3//3 4//4
f 2//2 6//6 5//5
f 2//2 1//1 6//6
f 1//1 7//7 6//6
f 1//1 4//4 7//7
f 7//7 3//3 8//8
f 7//7 4//4 3//3
f 6//6 8//8 5//5
f 6//6 7//7 8//8
f 5//5 3//3 2//2
f 5//5 8//8 3//3
f 10//10 12//12 9//9
f 10//10 11//11 12//12
f 10//10 14//14 13//13
f 10//10 9//9 14//14
f 9//9 15//15 14//14
f 9//9 12//12 15//15
f 15//15 11//11 16//16
f 15//15 12//12 11//11
f 14//14 16//16 13//13
f 14//14 15//15 16//16
f 13//13 11//11 10//10
f 13//13 16//16 11//11
f 18//18 20//20 17//17
f 18//18 19//19 20//20
f 17//17 21//21 18//18
f 21//21 17//17 22//22
f 17//17 23//23 22//22
f 17//17 20//20 23//23
f 24//24 20//20 19//19
f 23//23 20//20 24//24
f 22//22 24//24 21//21
f 22//22 23//23 24//24
f 21//21 19//19 18//18
f 21//21 24//24 19//19
f 26//26 28//28 25//25
f 26//26 27//27 28//28
f 30//30 26//26 25//25
f 29//29 26//26 30//30
f 25//25 31//31 30//30
f 25//25 28//28 31//31
f 27//27 31//31 28//28
f 31//31 27//27 32//32
f 30//30 32//32 29//29
f 30//30 31//31 32//32
f 29//29 27//27 26//26
f 29//29 32//32 27//27
f 34//34 36//36 33//33
f 34//34 35//35 36//36
f 38//38 34//34 33//33
f 37//37 34//34 38//38
f 33//33 39//39 38//38
f 33//33 36//36 39//39
f 35//35 39//39 36//36
f 39//39 35//35 40//40
f 38//38 40//40 37//37
f 38//38 39//39 40//40
f 37//37 35//35 34//34
f 37//37 40//40 35//35
f 42//42 44//44 41//41
f 42//42 43//43 44//44
f 45//45 41//41 46//46
f 45//45 42//42 41//41
f 41//41 47//47 46//46
f 41//41 44//44 47//47
f 44//44 48//48 47//47
f 44//44 43//43 48//48
f 46//46 48//48 45//45
f 46//46 47//47 48//48
f 45//45 43//43 42//42
f 45//45 48//48 43//43
f 50//50 52//52 49//49
f 50//50 51//51 52//52
f 49//49 53//53 50//50
f 53//53 49//49 54//54
f 49//49 55//55 54//54
f 49//49 52//52 55//55
f 56//56 52//52 51//51
f 55//55 52//52 56//56
f 54//54 56//56 53//53
f 54//54 55//55 56//56
f 53//53 51//51 50//50
f 53//53 56//56 51//51
f 58//58 60//60 57//57
f 58//58 59//59 60//60
f 61//61 57//57 62//62
f 61//61 58//58 57//57
f 57//57 63//63 62//62
f 57//57 60//60 63//63
f 60//60 64//64 63//63
f 60//60 59//59 64//64
f 62//62 64//64 61//61
f 62//62 63//63 64//64
f 61//61 59//59 58//58
f 61//61 64//64 59//59
f 66//66 68//68 65//65
f 66//66 67//67 68//68
f 65//65 69//69 66//66
f 69//69 65//65 70//70
f 65//65 71//71 70//70
f 65//65 68//68 71//71
f 72//72 68//68 67//67
f 71//71 68//68 72//72
f 70//70 72//72 69//69
f 70//70 71//71 72//72
f 69//69 67//67 66//66
f 69//69 72//72 67//67
f 74//74 76//76 73//73
f 74//74 75//75 76//76
f 77//77 73//73 78//78
f 77//77 74//74 73//73
f 73//73 79//79 78//78
f 73//73 76//76 79//79
f 76//76 80//80 79//79
f 76//76 75//75 80//80
f 78//78 80//80 77//77
f 78//78 79//79 80//80
f 77//77 75//75 74//74
f 77//77 80//80 75//75
f 82//82 84//84 81//81
f 82//82 83//83 84//84
f 81//81 85//85 82//82
f 85//85 81//81 86//86
f 81//81 87//87 86//86
f 81//81 84//84 87//87
f 84//84 88//88 87//87
f 84//84 83//83 88//88
f 86//86 88//88 85//85
f 86//86 87//87 88//88
f 85//85 83//83 82//82
f 85//85 88//88 83//83
f 90//90 92//92 89//89
f 90//90 91//91 92//92
f 90//90 94//94 93//93
f 90//90 89//89 94//94
f 89//89 95//95 94//94
f 89//89 92//92 95//95
f 91//91 95//95 92//92
f 95//95 91//91 96//96
f 94//94 96//96 93//93
f 94//94 95//95 96//96
f 93//93 91//91 90//90
f 93//93 96//96 91//91
f 98//98 100//100 97//97
f 98//98 99//99 100//100
f 101//101 97//97 102//102
f 101//101 98//98 97//97
f 97//97 103//103 102//102
f 97//97 100//100 103//103
f 100//100 104//104 103//103
f 100//100 99//99 104//104
f 102//102 104//104 101//101
f 102//102 103//103 104//104
f 101//101 99//99 98//98
f 101//101 104//104 99//99
f 106//106 108//108 105//105
f 106//106 107//107 108//108
f 109//109 105//105 110//110
f 109//109 106//106 105//105
f 105//105 111//111 110//110
f 105//105 108//108 111//111
f 108//108 112//112 111//111
f 108//108 107//107 112//112
f 110//110 112//112 109//109
f 110//110 111//111 112//112
f 109//109 107//107 106//106
f 109//109 112//112 107//107
f 114//114 116//116 113//113
f 114//114 115//115 116//116
f 113//113 117//117 114//114
f 117//117 113//113 118//118
f 113//113 119//119 118//118
f 113//113 116//116 119//119
f 120//120 116//116 115//115
f 119//119 116//116 120//120
f 118//118 120//120 117//117
f 118//118 119//119 120//120
f 117//117 115//115 114//114
f 117//117 120//120 115//115
f 122//122 124//124 121//121
f 122//122 123//123 124//124
f 121//121 125//125 122//122
f 125//125 121//121 126//126
f 121//121 127//127 126//126
f 121//121 124//124 127//127
f 124//124 128//128 127//127
f 124//124 123//123 128//128
f 126//126 128//128 125//125
f 126//126 127//127 128//128
f 125//125 123//123 122//122
f 125//125 128//128 123//123
f 130//130 132//132 129//129
f 130//130 131//131 132//132
f 130//130 134//134 133//133
f 130//130 129//129 134//134
f 129//129 135//135 134//134
f 129//129 132//132 135//135
f 131//131 135//135 132//132
f 135//135 131//131 136//136
f 134//134 136//136 133//133
f 134//134 135//135 136//136
f 133//133 131//131 130//130
f 133//133 136//136 131//131
# 204 faces, 0 coords texture

# End of File
