####
#
# OBJ File Generated by Meshlab
#
####
# Object m772.obj
#
# Vertices: 136
# Faces: 204
#
####
vn 0.246992 1.570690 -2.207549
v 0.420691 0.725417 0.453906
vn 2.207854 1.570960 0.246961
v 0.308873 0.725417 0.313899
vn 2.207854 -1.570960 0.246961
v 0.308873 0.940430 0.313899
vn 0.246992 -1.570690 -2.207549
v 0.420691 0.940430 0.453906
vn -0.246917 1.570637 2.207498
v 0.317273 0.725417 0.307188
vn -2.207779 1.570898 -0.247013
v 0.429092 0.725417 0.447195
vn -2.207779 -1.570898 -0.247013
v 0.429092 0.940430 0.447195
vn -0.246917 -1.570637 2.207498
v 0.317273 0.940430 0.307188
vn 0.247121 1.570794 -2.207650
v 0.198316 0.372868 0.532659
vn 2.207649 1.570794 0.247128
v 0.025000 0.372868 0.315650
vn 2.207649 -1.570794 0.247128
v 0.025000 0.383618 0.315650
vn 0.247121 -1.570794 -2.207650
v 0.198316 0.383618 0.532659
vn -0.247124 1.570804 2.207661
v 0.242009 0.372868 0.142335
vn -2.207652 1.570795 -0.247117
v 0.415325 0.372868 0.359342
vn -2.207652 -1.570795 -0.247117
v 0.415325 0.383618 0.359342
vn -0.247124 -1.570804 2.207661
v 0.242009 0.383618 0.142335
vn 0.246923 1.570631 -2.207491
v 0.536295 0.372938 0.262732
vn 2.207678 1.570817 0.247106
v 0.362979 0.372938 0.045723
vn 2.207678 -1.570817 0.247106
v 0.362979 0.458044 0.045723
vn 0.246923 -1.570631 -2.207491
v 0.536295 0.458044 0.262732
vn -0.247097 1.570781 2.207639
v 0.371379 0.372938 0.039014
vn -2.207852 1.570957 -0.246958
v 0.544695 0.372938 0.256021
vn -2.207852 -1.570957 -0.246958
v 0.544695 0.458044 0.256021
vn -0.247097 -1.570781 2.207639
v 0.371379 0.458044 0.039014
vn 0.247035 1.570890 -2.207767
v 0.233407 0.231128 0.518835
vn 2.207558 1.570700 0.247015
v 0.226697 0.231128 0.510435
vn 2.207558 -1.570700 0.247015
v 0.226697 0.481975 0.510435
vn 0.247035 -1.570890 -2.207767
v 0.233407 0.481975 0.518835
vn -0.247309 1.570616 2.207431
v 0.548712 0.231128 0.253257
vn -2.207832 1.570979 -0.247351
v 0.555419 0.231128 0.261658
vn -2.207832 -1.570979 -0.247351
v 0.555419 0.481975 0.261658
vn -0.247309 -1.570616 2.207431
v 0.548712 0.481975 0.253257
vn 0.247102 1.570769 -2.207625
v 0.281082 0.715944 0.570313
vn 2.207663 1.570806 0.247127
v 0.053206 0.715944 0.284986
vn 2.207663 -1.570806 0.247127
v 0.053206 0.728253 0.284986
vn 0.247102 -1.570769 -2.207625
v 0.281082 0.728253 0.570313
vn -0.247115 1.570797 2.207655
v 0.203708 0.715944 0.164785
vn -2.207676 1.570814 -0.247097
v 0.431585 0.715944 0.450107
vn -2.207676 -1.570814 -0.247097
v 0.431585 0.728253 0.450107
vn -0.247115 -1.570797 2.207655
v 0.203708 0.728253 0.164785
vn 0.247130 1.570789 -2.207644
v 0.506976 0.625780 0.853998
vn 2.207661 1.570804 0.247132
v 0.283191 0.625780 0.573793
vn 2.207661 -1.570804 0.247132
v 0.283191 0.634735 0.573793
vn 0.247130 -1.570789 -2.207644
v 0.506976 0.634735 0.853998
vn -0.247130 1.570789 2.207644
v 0.430196 0.625780 0.456386
vn -2.207661 1.570804 -0.247132
v 0.653981 0.625780 0.736591
vn -2.207661 -1.570804 -0.247132
v 0.653981 0.634735 0.736591
vn -0.247130 -1.570789 2.207644
v 0.430196 0.634735 0.456386
vn 0.247109 1.570789 -2.207646
v 0.511394 0.937111 0.860062
vn 2.207644 1.570788 0.247126
v 0.050149 0.937111 0.282541
vn 2.207644 -1.570788 0.247126
v 0.050149 0.972946 0.282541
vn 0.247109 -1.570789 -2.207646
v 0.511394 0.972946 0.860062
vn -0.247131 1.570801 2.207658
v 0.204158 0.937111 0.159542
vn -2.207666 1.570807 -0.247115
v 0.665399 0.937111 0.737062
vn -2.207666 -1.570807 -0.247115
v 0.665399 0.972946 0.737062
vn -0.247131 -1.570801 2.207658
v 0.204158 0.972946 0.159542
vn 0.247006 1.570677 -2.207532
v 0.307641 0.725417 0.312358
vn 2.207618 1.570771 0.247178
v 0.195827 0.725417 0.172352
vn 2.207618 -1.570771 0.247178
v 0.195827 0.940430 0.172352
vn 0.247006 -1.570677 -2.207532
v 0.307641 0.940430 0.312358
vn -0.247177 1.570829 2.207683
v 0.204228 0.725417 0.165643
vn -2.207790 1.570909 -0.247027
v 0.316042 0.725417 0.305647
vn -2.207790 -1.570909 -0.247027
v 0.316042 0.940430 0.305647
vn -0.247177 -1.570829 2.207683
v 0.204228 0.940430 0.165643
vn 0.247134 1.570812 -2.207669
v 0.331385 0.231133 0.426298
vn 2.207647 1.570791 0.247120
v 0.158069 0.231133 0.209291
vn 2.207647 -1.570791 0.247120
v 0.158069 0.241887 0.209291
vn 0.247134 -1.570812 -2.207669
v 0.331385 0.241887 0.426298
vn -0.247125 1.570798 2.207655
v 0.375077 0.231133 0.035976
vn -2.207638 1.570784 -0.247135
v 0.548394 0.231133 0.252986
vn -2.207638 -1.570784 -0.247135
v 0.548394 0.241887 0.252986
vn -0.247125 -1.570798 2.207655
v 0.375077 0.241887 0.035976
vn 0.247017 1.570901 -2.207782
v 0.511360 0.025000 0.860534
vn 2.207549 1.570690 0.246993
v 0.504649 0.025000 0.852133
vn 2.207549 -1.570690 0.246993
v 0.504649 0.490860 0.852133
vn 0.247017 -1.570901 -2.207782
v 0.511360 0.490860 0.860534
vn -0.246962 1.570961 2.207855
v 0.826660 0.025000 0.594956
vn -2.207494 1.570634 -0.246920
v 0.833371 0.025000 0.603356
vn -2.207494 -1.570634 -0.246920
v 0.833371 0.490860 0.603356
vn -0.246962 -1.570961 2.207855
v 0.826660 0.490860 0.594956
vn 0.246855 1.571077 -2.207997
v 0.511102 0.491223 0.859696
vn 2.207377 1.570516 0.246785
v 0.505509 0.491223 0.852697
vn 2.207377 -1.570516 0.246785
v 0.505509 0.975000 0.852697
vn 0.246855 -1.571077 -2.207997
v 0.511102 0.975000 0.859696
vn -0.247555 1.570362 2.207119
v 0.659518 0.491223 0.729697
vn -2.208078 1.571230 -0.247663
v 0.665106 0.491223 0.736700
vn -2.208078 -1.571230 -0.247663
v 0.665106 0.975000 0.736700
vn -0.247555 -1.570362 2.207119
v 0.659518 0.975000 0.729697
vn 0.247045 1.570918 -2.207798
v 0.337602 0.784174 0.333892
vn 2.207743 1.570849 0.246844
v 0.326420 0.784174 0.319894
vn 2.207743 -1.570849 0.246844
v 0.326420 0.864803 0.319894
vn 0.247045 -1.570918 -2.207798
v 0.337602 0.864803 0.333892
vn -0.247002 1.570570 2.207413
v 0.343920 0.784174 0.305913
vn -2.207700 1.570848 -0.247229
v 0.355102 0.784174 0.319916
vn -2.207700 -1.570848 -0.247229
v 0.355102 0.864803 0.319916
vn -0.247002 -1.570570 2.207413
v 0.343920 0.864803 0.305913
vn 0.246967 1.570952 -2.207844
v 0.056162 0.025000 0.290579
vn 2.207503 1.570642 0.246927
v 0.049451 0.025000 0.282179
vn 2.207503 -1.570642 0.246927
v 0.049451 0.490860 0.282179
vn 0.246967 -1.570952 -2.207844
v 0.056162 0.490860 0.290579
vn -0.246992 1.570923 2.207809
v 0.371462 0.025000 0.025000
vn -2.207528 1.570669 -0.246962
v 0.378173 0.025000 0.033401
vn -2.207528 -1.570669 -0.246962
v 0.378173 0.490860 0.033401
vn -0.246992 -1.570923 2.207809
v 0.371462 0.490860 0.025000
vn 0.246848 1.571087 -2.208009
v 0.055480 0.491223 0.289208
vn 2.207371 1.570509 0.246773
v 0.049887 0.491223 0.282209
vn 2.207371 -1.570509 0.246773
v 0.049887 0.975000 0.282209
vn 0.246848 -1.571087 -2.208009
v 0.055480 0.975000 0.289208
vn -0.246921 1.571005 2.207909
v 0.203892 0.491223 0.159212
vn -2.207443 1.570584 -0.246873
v 0.209485 0.491223 0.166212
vn -2.207443 -1.570584 -0.246873
v 0.209485 0.975000 0.166212
vn -0.246921 -1.571005 2.207909
v 0.203892 0.975000 0.159212
vn 0.246968 1.570605 -2.207456
v 0.305419 0.784174 0.293915
vn 2.207708 1.570849 0.247152
v 0.294237 0.784174 0.279913
vn 2.207708 -1.570849 0.247152
v 0.294237 0.864803 0.279913
vn 0.246968 -1.570605 -2.207456
v 0.305419 0.864803 0.293915
vn -0.247002 1.570883 2.207764
v 0.311737 0.784174 0.265936
vn -2.207743 1.570849 -0.246844
v 0.322919 0.784174 0.279934
vn -2.207743 -1.570849 -0.246844
v 0.322919 0.864803 0.279934
vn -0.247002 -1.570883 2.207764
v 0.311737 0.864803 0.265936
vn 0.247452 1.570435 -2.207212
v 0.283780 0.488847 0.574631
vn 2.207991 1.571142 0.247557
v 0.278191 0.488847 0.567628
vn 2.207991 -1.571142 0.247557
v 0.278191 0.954707 0.567628
vn 0.247452 -1.570435 -2.207212
v 0.283780 0.954707 0.574631
vn -0.247198 1.570729 2.207570
v 0.429397 0.488847 0.446867
vn -2.207737 1.570879 -0.247199
v 0.434986 0.488847 0.453866
vn -2.207737 -1.570879 -0.247199
v 0.434986 0.954707 0.453866
vn -0.247198 -1.570729 2.207570
v 0.429397 0.954707 0.446867
vn 0.247119 1.570792 -2.207649
v 0.511351 0.482425 0.860097
vn 2.207644 1.570789 0.247131
v 0.050106 0.482425 0.282572
vn 2.207644 -1.570789 0.247131
v 0.050106 0.491384 0.282572
vn 0.247119 -1.570792 -2.207649
v 0.511351 0.491384 0.860097
vn -0.247136 1.570802 2.207658
v 0.368620 0.482425 0.028192
vn -2.207661 1.570803 -0.247123
v 0.829861 0.482425 0.605714
vn -2.207661 -1.570803 -0.247123
v 0.829861 0.491384 0.605714
vn -0.247136 -1.570802 2.207658
v 0.368620 0.491384 0.028192
# 136 vertices, 0 vertices normals

f 1//1 2//2 3//3
f 5//5 2//2 1//1
f 6//6 1//1 4//4
f 7//7 4//4 3//3
f 5//5 6//6 7//7
f 2//2 5//5 8//8
f 9//9 10//10 11//11
f 13//13 10//10 9//9
f 14//14 9//9 12//12
f 15//15 12//12 11//11
f 13//13 14//14 15//15
f 10//10 13//13 16//16
f 17//17 18//18 19//19
f 21//21 18//18 17//17
f 22//22 17//17 20//20
f 23//23 20//20 19//19
f 21//21 22//22 23//23
f 18//18 21//21 24//24
f 25//25 26//26 27//27
f 29//29 26//26 25//25
f 30//30 25//25 28//28
f 31//31 28//28 27//27
f 29//29 30//30 31//31
f 26//26 29//29 32//32
f 33//33 34//34 35//35
f 37//37 34//34 33//33
f 38//38 33//33 36//36
f 39//39 36//36 35//35
f 37//37 38//38 39//39
f 34//34 37//37 40//40
f 41//41 42//42 43//43
f 45//45 42//42 41//41
f 46//46 41//41 44//44
f 47//47 44//44 43//43
f 45//45 46//46 47//47
f 42//42 45//45 48//48
f 49//49 50//50 51//51
f 53//53 50//50 49//49
f 54//54 49//49 52//52
f 55//55 52//52 51//51
f 53//53 54//54 55//55
f 50//50 53//53 56//56
f 57//57 58//58 59//59
f 61//61 58//58 57//57
f 62//62 57//57 60//60
f 63//63 60//60 59//59
f 61//61 62//62 63//63
f 58//58 61//61 64//64
f 65//65 66//66 67//67
f 69//69 66//66 65//65
f 70//70 65//65 68//68
f 71//71 68//68 67//67
f 69//69 70//70 71//71
f 66//66 69//69 72//72
f 73//73 74//74 75//75
f 77//77 74//74 73//73
f 78//78 73//73 76//76
f 79//79 76//76 75//75
f 77//77 78//78 79//79
f 74//74 77//77 80//80
f 81//81 82//82 83//83
f 85//85 82//82 81//81
f 86//86 81//81 84//84
f 87//87 84//84 83//83
f 85//85 86//86 87//87
f 82//82 85//85 88//88
f 89//89 90//90 91//91
f 93//93 90//90 89//89
f 94//94 89//89 92//92
f 95//95 92//92 91//91
f 93//93 94//94 95//95
f 90//90 93//93 96//96
f 97//97 98//98 99//99
f 101//101 98//98 97//97
f 102//102 97//97 100//100
f 103//103 100//100 99//99
f 101//101 102//102 103//103
f 98//98 101//101 104//104
f 105//105 106//106 107//107
f 109//109 106//106 105//105
f 110//110 105//105 108//108
f 111//111 108//108 107//107
f 109//109 110//110 111//111
f 106//106 109//109 112//112
f 113//113 114//114 115//115
f 117//117 114//114 113//113
f 118//118 113//113 116//116
f 119//119 116//116 115//115
f 117//117 118//118 119//119
f 114//114 117//117 120//120
f 121//121 122//122 123//123
f 125//125 122//122 121//121
f 126//126 121//121 124//124
f 127//127 124//124 123//123
f 125//125 126//126 127//127
f 122//122 125//125 128//128
f 129//129 130//130 131//131
f 133//133 130//130 129//129
f 134//134 129//129 132//132
f 135//135 132//132 131//131
f 133//133 134//134 135//135
f 130//130 133//133 136//136
f 1//1 3//3 4//4
f 5//5 1//1 6//6
f 6//6 4//4 7//7
f 7//7 3//3 8//8
f 5//5 7//7 8//8
f 2//2 8//8 3//3
f 9//9 11//11 12//12
f 13//13 9//9 14//14
f 14//14 12//12 15//15
f 15//15 11//11 16//16
f 13//13 15//15 16//16
f 10//10 16//16 11//11
f 17//17 19//19 20//20
f 21//21 17//17 22//22
f 22//22 20//20 23//23
f 23//23 19//19 24//24
f 21//21 23//23 24//24
f 18//18 24//24 19//19
f 25//25 27//27 28//28
f 29//29 25//25 30//30
f 30//30 28//28 31//31
f 31//31 27//27 32//32
f 29//29 31//31 32//32
f 26//26 32//32 27//27
f 33//33 35//35 36//36
f 37//37 33//33 38//38
f 38//38 36//36 39//39
f 39//39 35//35 40//40
f 37//37 39//39 40//40
f 34//34 40//40 35//35
f 41//41 43//43 44//44
f 45//45 41//41 46//46
f 46//46 44//44 47//47
f 47//47 43//43 48//48
f 45//45 47//47 48//48
f 42//42 48//48 43//43
f 49//49 51//51 52//52
f 53//53 49//49 54//54
f 54//54 52//52 55//55
f 55//55 51//51 56//56
f 53//53 55//55 56//56
f 50//50 56//56 51//51
f 57//57 59//59 60//60
f 61//61 57//57 62//62
f 62//62 60//60 63//63
f 63//63 59//59 64//64
f 61//61 63//63 64//64
f 58//58 64//64 59//59
f 65//65 67//67 68//68
f 69//69 65//65 70//70
f 70//70 68//68 71//71
f 71//71 67//67 72//72
f 69//69 71//71 72//72
f 66//66 72//72 67//67
f 73//73 75//75 76//76
f 77//77 73//73 78//78
f 78//78 76//76 79//79
f 79//79 75//75 80//80
f 77//77 79//79 80//80
f 74//74 80//80 75//75
f 81//81 83//83 84//84
f 85//85 81//81 86//86
f 86//86 84//84 87//87
f 87//87 83//83 88//88
f 85//85 87//87 88//88
f 82//82 88//88 83//83
f 89//89 91//91 92//92
f 93//93 89//89 94//94
f 94//94 92//92 95//95
f 95//95 91//91 96//96
f 93//93 95//95 96//96
f 90//90 96//96 91//91
f 97//97 99//99 100//100
f 101//101 97//97 102//102
f 102//102 100//100 103//103
f 103//103 99//99 104//104
f 101//101 103//103 104//104
f 98//98 104//104 99//99
f 105//105 107//107 108//108
f 109//109 105//105 110//110
f 110//110 108//108 111//111
f 111//111 107//107 112//112
f 109//109 111//111 112//112
f 106//106 112//112 107//107
f 113//113 115//115 116//116
f 117//117 113//113 118//118
f 118//118 116//116 119//119
f 119//119 115//115 120//120
f 117//117 119//119 120//120
f 114//114 120//120 115//115
f 121//121 123//123 124//124
f 125//125 121//121 126//126
f 126//126 124//124 127//127
f 127//127 123//123 128//128
f 125//125 127//127 128//128
f 122//122 128//128 123//123
f 129//129 131//131 132//132
f 133//133 129//129 134//134
f 134//134 132//132 135//135
f 135//135 131//131 136//136
f 133//133 135//135 136//136
f 130//130 136//136 131//131
# 204 faces, 0 coords texture

# End of File
