####
#
# OBJ File Generated by Meshlab
#
####
# Object m880.obj
#
# Vertices: 44
# Faces: 52
#
####
vn 0.894445 5.843062 0.894513
v 0.447022 0.243107 0.942446
vn -0.894507 5.843036 0.894500
v 0.057554 0.243107 0.942446
vn -0.894522 5.843065 -0.894429
v 0.057554 0.243107 0.057556
vn 0.894459 5.843091 -0.894442
v 0.447022 0.243107 0.057556
vn 0.637880 -0.000000 0.637869
v 0.479578 0.229475 0.975000
vn -0.637894 0.000000 0.637895
v 0.025000 0.229475 0.975000
vn -0.637865 -0.000000 -0.637879
v 0.025000 0.229475 0.025000
vn 0.637850 -0.000000 -0.637853
v 0.479578 0.229475 0.025000
vn 0.894445 -5.843062 0.894513
v 0.447022 0.215843 0.942446
vn -0.894507 -5.843036 0.894500
v 0.057554 0.215843 0.942446
vn -0.894522 -5.843065 -0.894429
v 0.057554 0.215843 0.057556
vn 0.894459 -5.843091 -0.894442
v 0.447022 0.215843 0.057556
vn 1.537888 -0.098865 1.537885
v 0.105265 0.215843 0.935629
vn -1.537888 -0.098873 1.537880
v 0.064370 0.215843 0.935629
vn -1.537877 -0.098889 -1.537879
v 0.064370 0.215843 0.894734
vn 1.537878 -0.098881 -1.537885
v 0.105265 0.215843 0.894734
vn 1.602083 -0.102992 1.602086
v 0.099130 0.025000 0.929495
vn -1.602083 -0.103001 1.602091
v 0.070505 0.025000 0.929495
vn -1.602093 -0.103018 -1.602091
v 0.070505 0.025000 0.900870
vn 1.602093 -0.103009 -1.602086
v 0.099130 0.025000 0.900870
vn 1.537888 -0.098853 1.537893
v 0.440206 0.215843 0.935629
vn -1.537888 -0.098876 1.537878
v 0.399311 0.215843 0.935629
vn -1.537888 -0.098876 -1.537878
v 0.399311 0.215843 0.894734
vn 1.537888 -0.098853 -1.537893
v 0.440206 0.215843 0.894734
vn 1.602083 -0.102979 1.602078
v 0.434073 0.025000 0.929495
vn -1.602082 -0.103004 1.602093
v 0.405447 0.025000 0.929495
vn -1.602082 -0.103004 -1.602093
v 0.405447 0.025000 0.900868
vn 1.602083 -0.102979 -1.602078
v 0.434073 0.025000 0.900868
vn 1.537895 -0.098843 1.537894
v 0.440206 0.215843 0.105266
vn -1.537894 -0.098867 1.537878
v 0.399311 0.215843 0.105266
vn -1.537886 -0.098879 -1.537878
v 0.399311 0.215843 0.064371
vn 1.537887 -0.098855 -1.537893
v 0.440206 0.215843 0.064371
vn 1.602077 -0.102968 1.602078
v 0.434073 0.025000 0.099133
vn -1.602076 -0.102994 1.602094
v 0.405447 0.025000 0.099133
vn -1.602084 -0.103007 -1.602093
v 0.405447 0.025000 0.070505
vn 1.602085 -0.102981 -1.602078
v 0.434073 0.025000 0.070505
vn 1.537894 -0.098856 1.537885
v 0.105265 0.215843 0.105266
vn -1.537894 -0.098864 1.537880
v 0.064370 0.215843 0.105266
vn -1.537886 -0.098875 -1.537880
v 0.064370 0.215843 0.064371
vn 1.537886 -0.098867 -1.537885
v 0.105265 0.215843 0.064371
vn 1.602077 -0.102982 1.602086
v 0.099130 0.025000 0.099133
vn -1.602076 -0.102990 1.602092
v 0.070505 0.025000 0.099133
vn -1.602084 -0.103003 -1.602091
v 0.070505 0.025000 0.070505
vn 1.602084 -0.102995 -1.602086
v 0.099130 0.025000 0.070505
# 44 vertices, 0 vertices normals

f 1//1 4//4 3//3
f 1//1 3//3 2//2
f 1//1 2//2 6//6
f 1//1 6//6 5//5
f 2//2 3//3 7//7
f 2//2 7//7 6//6
f 3//3 4//4 8//8
f 3//3 8//8 7//7
f 4//4 1//1 5//5
f 4//4 5//5 8//8
f 5//5 6//6 10//10
f 5//5 10//10 9//9
f 6//6 7//7 11//11
f 6//6 11//11 10//10
f 7//7 8//8 12//12
f 7//7 12//12 11//11
f 8//8 5//5 9//9
f 8//8 9//9 12//12
f 11//11 12//12 9//9
f 10//10 11//11 9//9
f 13//13 14//14 18//18
f 13//13 18//18 17//17
f 14//14 15//15 19//19
f 14//14 19//19 18//18
f 15//15 16//16 20//20
f 15//15 20//20 19//19
f 16//16 13//13 17//17
f 16//16 17//17 20//20
f 21//21 22//22 26//26
f 21//21 26//26 25//25
f 22//22 23//23 27//27
f 22//22 27//27 26//26
f 23//23 24//24 28//28
f 23//23 28//28 27//27
f 24//24 21//21 25//25
f 24//24 25//25 28//28
f 29//29 30//30 34//34
f 29//29 34//34 33//33
f 30//30 31//31 35//35
f 30//30 35//35 34//34
f 31//31 32//32 36//36
f 31//31 36//36 35//35
f 32//32 29//29 33//33
f 32//32 33//33 36//36
f 37//37 38//38 42//42
f 37//37 42//42 41//41
f 38//38 39//39 43//43
f 38//38 43//43 42//42
f 39//39 40//40 44//44
f 39//39 44//44 43//43
f 40//40 37//37 41//41
f 40//40 41//41 44//44
# 52 faces, 0 coords texture

# End of File
