####
#
# OBJ File Generated by Meshlab
#
####
# Object m944.obj
#
# Vertices: 137
# Faces: 164
#
####
vn 0.000000 1.570796 -1.570796
v 0.031076 0.324521 0.038523
vn 0.000000 -1.570796 -1.570796
v 0.031076 0.289481 0.038523
vn 0.000000 -1.570796 -1.570796
v 0.474912 0.289481 0.038523
vn 0.000000 1.570796 -1.570796
v 0.474912 0.324521 0.038523
vn 0.000000 1.570796 1.570796
v 0.474912 0.324521 0.047283
vn 0.000000 -1.570796 1.570796
v 0.474912 0.289481 0.047283
vn 0.000000 -1.570796 1.570796
v 0.031076 0.289481 0.047283
vn 0.000000 1.570796 1.570796
v 0.031076 0.324521 0.047283
vn 0.000000 1.570796 -1.570796
v 0.031076 0.420598 0.038523
vn 0.000000 -1.570796 -1.570796
v 0.031076 0.385559 0.038523
vn 0.000000 -1.570796 -1.570796
v 0.474912 0.385559 0.038523
vn 0.000000 1.570796 -1.570796
v 0.474912 0.420598 0.038523
vn 0.000000 1.570796 1.570796
v 0.474912 0.420598 0.047283
vn 0.000000 -1.570796 1.570796
v 0.474912 0.385559 0.047283
vn 0.000000 -1.570796 1.570796
v 0.031076 0.385559 0.047283
vn 0.000000 1.570796 1.570796
v 0.031076 0.420598 0.047283
vn 0.000000 1.570796 1.570796
v 0.031076 0.324521 0.961477
vn 0.000000 -1.570796 1.570796
v 0.031076 0.289481 0.961477
vn 0.000000 -1.570796 1.570796
v 0.474912 0.289481 0.961477
vn 0.000000 1.570796 1.570796
v 0.474912 0.324521 0.961477
vn 0.000000 1.570796 -1.570796
v 0.031076 0.324521 0.952717
vn 0.000000 -1.570796 -1.570796
v 0.031076 0.289481 0.952717
vn 0.000000 -1.570796 -1.570796
v 0.474912 0.289481 0.952717
vn 0.000000 1.570796 -1.570796
v 0.474912 0.324521 0.952717
vn 0.000000 1.570796 1.570796
v 0.031076 0.420598 0.961477
vn 0.000000 -1.570796 1.570796
v 0.031076 0.385559 0.961477
vn 0.000000 -1.570796 1.570796
v 0.474912 0.385559 0.961477
vn 0.000000 1.570796 1.570796
v 0.474912 0.420598 0.961477
vn 0.000000 1.570796 -1.570796
v 0.474912 0.420598 0.952717
vn 0.000000 -1.570796 -1.570796
v 0.474912 0.385559 0.952717
vn 0.000000 -1.570796 -1.570796
v 0.031076 0.385559 0.952717
vn 0.000000 1.570796 -1.570796
v 0.031076 0.420598 0.952717
vn 1.570767 -1.570770 0.000041
v 0.050976 0.196356 0.957026
vn 1.570835 -1.570830 0.000041
v 0.050988 0.196344 0.042904
vn 1.570758 1.570826 -0.000001
v 0.050988 0.219704 0.042903
vn 1.570826 1.570770 -0.000001
v 0.050976 0.219716 0.957025
vn -1.570826 1.570822 -0.000041
v 0.025176 0.219716 0.957024
vn -1.570762 1.570766 -0.000041
v 0.025188 0.219704 0.042902
vn -1.570830 -1.570763 0.000001
v 0.025188 0.196344 0.042903
vn -1.570767 -1.570822 0.000001
v 0.025176 0.196356 0.957025
vn 1.570767 -1.570770 0.000040
v 0.480600 0.196356 0.957074
vn 1.570835 -1.570831 0.000040
v 0.480611 0.196344 0.042952
vn 1.570758 1.570827 -0.000002
v 0.480611 0.219704 0.042951
vn 1.570826 1.570731 -0.000002
v 0.480600 0.219716 0.957073
vn -1.570869 1.570861 -0.000041
v 0.454802 0.219716 0.957071
vn -1.570762 1.570767 -0.000041
v 0.454814 0.219704 0.042950
vn -1.570830 -1.570763 -0.000000
v 0.454814 0.196344 0.042951
vn -1.570724 -1.570822 0.000000
v 0.454802 0.196356 0.957073
vn 1.570796 1.570828 1.570846
v 0.048999 0.468836 0.975000
vn 1.570796 1.570765 -1.570747
v 0.049000 0.468836 0.939960
vn -1.570796 1.570831 -1.570850
v 0.025001 0.468836 0.939960
vn -1.570796 1.570762 1.570743
v 0.025000 0.468836 0.975000
vn -0.000043 -1.570796 1.570823
v 0.031979 0.196940 0.056164
vn -0.000043 -1.570796 1.570769
v 0.474020 0.196928 0.056164
vn 0.000043 1.570796 1.570823
v 0.474020 0.220288 0.056164
vn 0.000043 1.570796 1.570769
v 0.031979 0.220300 0.056164
vn -0.000043 -1.570796 -1.570823
v 0.031979 0.196940 0.032805
vn -0.000043 -1.570796 -1.570769
v 0.474020 0.196928 0.032805
vn 0.000043 1.570796 -1.570823
v 0.474020 0.220288 0.032805
vn 0.000043 1.570796 -1.570769
v 0.031979 0.220300 0.032805
vn -0.000043 -1.570796 1.570823
v 0.031979 0.196940 0.967196
vn -0.000043 -1.570796 1.570769
v 0.474020 0.196928 0.967196
vn 0.000043 1.570796 1.570823
v 0.474020 0.220288 0.967196
vn 0.000043 1.570796 1.570769
v 0.031979 0.220300 0.967196
vn -0.000043 -1.570796 -1.570823
v 0.031979 0.196940 0.943836
vn -0.000043 -1.570796 -1.570769
v 0.474020 0.196928 0.943836
vn 0.000043 1.570796 -1.570823
v 0.474020 0.220288 0.943836
vn 0.000043 1.570796 -1.570769
v 0.031979 0.220300 0.943836
vn -1.570826 -1.570796 1.570842
v 0.051523 0.208425 0.943314
vn -1.570767 -1.570796 -1.570750
v 0.051523 0.208399 0.056313
vn 1.570767 -1.570796 -1.570750
v 0.454465 0.208399 0.056313
vn 1.570826 -1.570796 1.570842
v 0.454465 0.208425 0.943314
vn -1.570767 1.570796 1.570750
v 0.051523 0.220105 0.943314
vn -1.570826 1.570796 -1.570842
v 0.051523 0.220079 0.056313
vn 1.570826 1.570796 -1.570842
v 0.454465 0.220079 0.056313
vn 1.570767 1.570796 1.570750
v 0.454465 0.220105 0.943314
vn 3.088036 2.879940 -0.406525
v 0.474899 0.287491 0.087944
vn 2.627965 2.617964 -1.517202
v 0.471770 0.287491 0.076264
vn 1.517299 2.618077 -2.627971
v 0.463220 0.287491 0.067714
vn 0.406538 2.879728 -3.088000
v 0.451540 0.287491 0.064584
vn -1.517188 2.617977 -2.627998
v 0.042744 0.287480 0.067724
vn -2.628135 2.617823 -1.517339
v 0.034193 0.287479 0.076273
vn -3.088123 2.879664 -0.406510
v 0.031063 0.287479 0.087956
vn -0.406575 2.879849 -3.088131
v 0.054424 0.287480 0.064595
vn 3.088036 2.879884 0.406453
v 0.474922 0.287491 0.912420
vn 2.628250 2.618079 1.517147
v 0.471793 0.287491 0.924099
vn 1.517310 2.618022 2.627748
v 0.463243 0.287492 0.932650
vn 0.406515 2.879788 3.088143
v 0.451564 0.287491 0.935780
vn -0.406584 2.879801 3.087993
v 0.054447 0.287481 0.935791
vn -1.517273 2.617998 2.628073
v 0.042767 0.287480 0.932662
vn -2.628104 2.617824 1.517420
v 0.034217 0.287479 0.924113
vn -3.088108 2.879697 0.406641
v 0.031086 0.287479 0.912432
vn -0.406566 -0.000006 -3.088051
v 0.054425 0.217401 0.064595
vn -1.517217 -0.000044 -2.628152
v 0.042746 0.217401 0.067724
vn -2.627867 -0.000089 -1.517300
v 0.034196 0.217400 0.076273
vn -3.088080 -0.000106 -0.406502
v 0.031065 0.217400 0.087956
vn -3.088068 -0.000101 0.406633
v 0.031089 0.217400 0.912432
vn -2.627811 -0.000086 1.517386
v 0.034219 0.217400 0.924113
vn -1.517125 -0.000051 2.628210
v 0.042770 0.217401 0.932662
vn -0.406425 -0.000014 3.088066
v 0.054450 0.217401 0.935791
vn 0.406603 0.000012 3.087921
v 0.451566 0.217411 0.935780
vn 1.517684 0.000060 2.628044
v 0.463246 0.217413 0.932650
vn 2.628033 0.000066 1.517044
v 0.471794 0.217411 0.924099
vn 3.088045 0.000069 0.406568
v 0.474924 0.217411 0.912420
vn 3.088050 0.000088 -0.406640
v 0.474901 0.217411 0.087944
vn 2.627962 0.000057 -1.517319
v 0.471771 0.217411 0.076264
vn 1.517324 0.000022 -2.627989
v 0.463221 0.217411 0.067714
vn 0.406581 0.000006 -3.088075
v 0.451541 0.217411 0.064584
vn -0.000170 6.283185 -0.000001
v 0.241313 0.287485 0.453475
vn 1.570822 0.000000 -1.570846
v 0.048999 0.025001 0.025000
vn -1.570822 0.000000 -1.570743
v 0.025000 0.025001 0.025000
vn -1.570773 -0.000004 1.570850
v 0.025001 0.025000 0.060040
vn 1.570773 -0.000004 1.570747
v 0.049000 0.025000 0.060040
vn -1.570768 0.000004 -1.570791
v 0.456989 0.025011 0.025000
vn 1.570768 0.000004 -1.570802
v 0.480987 0.025012 0.025000
vn 1.570822 -0.000000 1.570891
v 0.480986 0.025013 0.060040
vn -1.570822 0.000000 1.570701
v 0.456988 0.025011 0.060040
vn 1.570822 0.000000 1.570846
v 0.048999 0.025001 0.975000
vn -1.570822 0.000000 1.570743
v 0.025000 0.025001 0.975000
vn -1.570771 0.000000 -1.570850
v 0.025001 0.025000 0.939960
vn 1.570771 0.000000 -1.570747
v 0.049000 0.025000 0.939960
vn 1.570771 0.000000 1.570802
v 0.480987 0.025012 0.975000
vn -1.570771 0.000000 1.570791
v 0.456989 0.025011 0.975000
vn 1.570822 0.000000 -1.570891
v 0.480986 0.025013 0.939960
vn -1.570822 0.000000 -1.570701
v 0.456988 0.025011 0.939960
vn 1.570731 1.570768 1.570710
v 0.480987 0.468848 0.975000
vn 1.570731 1.570825 -1.570799
v 0.480986 0.468848 0.939960
vn -1.570862 1.570768 -1.570793
v 0.456988 0.468847 0.939960
vn -1.570862 1.570825 1.570883
v 0.456989 0.468847 0.975000
vn -1.570931 1.570810 1.570793
v 0.456988 0.468847 0.060040
vn 1.570656 1.570775 1.570799
v 0.480986 0.468848 0.060041
vn 1.570809 1.570818 -1.570710
v 0.480987 0.468848 0.025001
vn -1.570783 1.570775 -1.570883
v 0.456989 0.468847 0.025000
vn 1.570868 1.570811 1.570747
v 0.049000 0.468836 0.060040
vn 1.570720 1.570782 -1.570846
v 0.048999 0.468836 0.025000
vn -1.570878 1.570816 -1.570743
v 0.025000 0.468836 0.025001
vn -1.570724 1.570785 1.570850
v 0.025001 0.468836 0.060041
# 137 vertices, 0 vertices normals

f 4//4 3//3 2//2
f 4//4 2//2 1//1
f 8//8 7//7 6//6
f 8//8 6//6 5//5
f 5//5 4//4 1//1
f 5//5 1//1 8//8
f 3//3 6//6 7//7
f 3//3 7//7 2//2
f 12//12 11//11 10//10
f 12//12 10//10 9//9
f 16//16 15//15 14//14
f 16//16 14//14 13//13
f 13//13 12//12 9//9
f 13//13 9//9 16//16
f 11//11 14//14 15//15
f 11//11 15//15 10//10
f 17//17 18//18 19//19
f 17//17 19//19 20//20
f 24//24 23//23 22//22
f 24//24 22//22 21//21
f 21//21 17//17 20//20
f 21//21 20//20 24//24
f 18//18 22//22 23//23
f 18//18 23//23 19//19
f 25//25 26//26 27//27
f 25//25 27//27 28//28
f 29//29 30//30 31//31
f 29//29 31//31 32//32
f 32//32 25//25 28//28
f 32//32 28//28 29//29
f 26//26 31//31 30//30
f 26//26 30//30 27//27
f 33//33 34//34 35//35
f 33//33 35//35 36//36
f 37//37 38//38 39//39
f 37//37 39//39 40//40
f 36//36 35//35 38//38
f 36//36 38//38 37//37
f 40//40 39//39 34//34
f 40//40 34//34 33//33
f 41//41 42//42 43//43
f 41//41 43//43 44//44
f 45//45 46//46 47//47
f 45//45 47//47 48//48
f 44//44 43//43 46//46
f 44//44 46//46 45//45
f 48//48 47//47 42//42
f 48//48 42//42 41//41
f 49//49 50//50 51//51
f 49//49 51//51 52//52
f 53//53 54//54 55//55
f 53//53 55//55 56//56
f 60//60 59//59 58//58
f 60//60 58//58 57//57
f 56//56 55//55 59//59
f 56//56 59//59 60//60
f 57//57 58//58 54//54
f 57//57 54//54 53//53
f 61//61 62//62 63//63
f 61//61 63//63 64//64
f 68//68 67//67 66//66
f 68//68 66//66 65//65
f 64//64 63//63 67//67
f 64//64 67//67 68//68
f 65//65 66//66 62//62
f 65//65 62//62 61//61
f 69//69 70//70 71//71
f 69//69 71//71 72//72
f 76//76 75//75 74//74
f 76//76 74//74 73//73
f 72//72 71//71 75//75
f 72//72 75//75 76//76
f 73//73 69//69 72//72
f 73//73 72//72 76//76
f 73//73 74//74 70//70
f 73//73 70//70 69//69
f 70//70 74//74 75//75
f 70//70 75//75 71//71
f 84//84 93//93 94//94
f 84//84 94//94 81//81
f 81//81 94//94 95//95
f 81//81 95//95 82//82
f 82//82 95//95 96//96
f 82//82 96//96 83//83
f 83//83 96//96 97//97
f 83//83 97//97 92//92
f 92//92 97//97 98//98
f 92//92 98//98 91//91
f 91//91 98//98 99//99
f 91//91 99//99 90//90
f 90//90 99//99 100//100
f 90//90 100//100 89//89
f 89//89 100//100 101//101
f 89//89 101//101 88//88
f 88//88 101//101 102//102
f 88//88 102//102 87//87
f 87//87 102//102 103//103
f 87//87 103//103 86//86
f 86//86 103//103 104//104
f 86//86 104//104 85//85
f 85//85 104//104 105//105
f 85//85 105//105 77//77
f 77//77 105//105 106//106
f 77//77 106//106 78//78
f 78//78 106//106 107//107
f 78//78 107//107 79//79
f 79//79 107//107 108//108
f 79//79 108//108 80//80
f 80//80 108//108 93//93
f 80//80 93//93 84//84
f 109//109 84//84 81//81
f 109//109 81//81 82//82
f 109//109 82//82 83//83
f 109//109 83//83 92//92
f 109//109 92//92 91//91
f 109//109 91//91 90//90
f 109//109 90//90 89//89
f 109//109 89//89 88//88
f 109//109 88//88 87//87
f 109//109 87//87 86//86
f 109//109 86//86 85//85
f 109//109 85//85 77//77
f 109//109 77//77 78//78
f 109//109 78//78 79//79
f 109//109 79//79 80//80
f 109//109 80//80 84//84
f 121//121 50//50 49//49
f 121//121 49//49 118//118
f 120//120 51//51 50//50
f 120//120 50//50 121//121
f 119//119 52//52 51//51
f 119//119 51//51 120//120
f 118//118 49//49 52//52
f 118//118 52//52 119//119
f 126//126 127//127 128//128
f 126//126 128//128 129//129
f 124//124 127//127 126//126
f 124//124 126//126 122//122
f 125//125 128//128 127//127
f 125//125 127//127 124//124
f 123//123 129//129 128//128
f 123//123 128//128 125//125
f 122//122 126//126 129//129
f 122//122 129//129 123//123
f 130//130 131//131 132//132
f 130//130 132//132 133//133
f 116//116 131//131 130//130
f 116//116 130//130 117//117
f 115//115 132//132 131//131
f 115//115 131//131 116//116
f 114//114 133//133 132//132
f 114//114 132//132 115//115
f 117//117 130//130 133//133
f 117//117 133//133 114//114
f 134//134 135//135 136//136
f 134//134 136//136 137//137
f 110//110 135//135 134//134
f 110//110 134//134 113//113
f 111//111 136//136 135//135
f 111//111 135//135 110//110
f 112//112 137//137 136//136
f 112//112 136//136 111//111
f 113//113 134//134 137//137
f 113//113 137//137 112//112
# 164 faces, 0 coords texture

# End of File
