####
#
# OBJ File Generated by Meshlab
#
####
# Object m1677.obj
#
# Vertices: 152
# Faces: 284
#
####
vn -1.570796 -1.570796 -1.570796
v 0.262276 0.069769 0.034760
vn 1.570796 -1.570796 -1.570796
v 0.441352 0.069769 0.034760
vn 1.570796 1.570796 -1.570796
v 0.441352 0.159307 0.034760
vn -1.570796 1.570796 -1.570796
v 0.262276 0.159307 0.034760
vn -1.570796 -1.570796 1.570796
v 0.262276 0.069769 0.034939
vn 1.570796 -1.570796 1.570796
v 0.441352 0.069769 0.034939
vn 1.570796 1.570796 1.570796
v 0.441352 0.159307 0.034939
vn -1.570796 1.570796 1.570796
v 0.262276 0.159307 0.034939
vn 2.987833 2.513276 -0.000000
v 0.268544 0.562229 0.034849
vn 2.417185 2.513255 1.756218
v 0.267347 0.562229 0.038533
vn 2.987833 -2.513276 0.000000
v 0.268544 0.025000 0.034849
vn 2.417185 -2.513255 1.756218
v 0.267347 0.025000 0.038533
vn 0.000000 -6.283185 0.000000
v 0.262276 0.025000 0.034849
vn 0.000000 6.283185 0.000000
v 0.262276 0.562229 0.034849
vn 0.923269 2.513292 2.841614
v 0.264213 0.562229 0.040810
vn 0.923269 -2.513292 2.841614
v 0.264213 0.025000 0.040810
vn -0.923461 2.513140 2.841473
v 0.260339 0.562229 0.040810
vn -0.923461 -2.513140 2.841473
v 0.260339 0.025000 0.040810
vn -2.417259 2.513653 1.756445
v 0.257206 0.562229 0.038533
vn -2.417259 -2.513653 1.756445
v 0.257206 0.025000 0.038533
vn -2.987595 2.512785 -0.000000
v 0.256008 0.562229 0.034849
vn -2.987595 -2.512785 0.000000
v 0.256008 0.025000 0.034849
vn -2.417259 2.513653 -1.756445
v 0.257206 0.562229 0.031165
vn -2.417259 -2.513653 -1.756445
v 0.257206 0.025000 0.031165
vn -0.923461 2.513140 -2.841473
v 0.260339 0.562229 0.028888
vn -0.923461 -2.513140 -2.841473
v 0.260339 0.025000 0.028888
vn 0.923269 2.513292 -2.841614
v 0.264213 0.562229 0.028888
vn 0.923269 -2.513292 -2.841614
v 0.264213 0.025000 0.028888
vn 2.417185 2.513255 -1.756218
v 0.267347 0.562229 0.031165
vn 2.417185 -2.513255 -1.756218
v 0.267347 0.025000 0.031165
vn 2.987841 2.513292 -0.000000
v 0.267648 0.965151 0.034849
vn 2.417244 2.513291 1.756166
v 0.266622 0.965151 0.038007
vn 2.987841 -2.513292 0.000000
v 0.267648 0.517460 0.034849
vn 2.417244 -2.513291 1.756166
v 0.266622 0.517460 0.038007
vn 0.000000 -6.283185 0.000000
v 0.262276 0.517460 0.034849
vn 0.000000 6.283185 0.000000
v 0.262276 0.965151 0.034849
vn 0.923324 2.513248 2.841573
v 0.263936 0.965151 0.039959
vn 0.923324 -2.513248 2.841573
v 0.263936 0.517460 0.039959
vn -0.923324 2.513248 2.841573
v 0.260616 0.965151 0.039959
vn -0.923324 -2.513248 2.841573
v 0.260616 0.517460 0.039959
vn -2.417244 2.513291 1.756166
v 0.257930 0.965151 0.038007
vn -2.417244 -2.513291 1.756166
v 0.257930 0.517460 0.038007
vn -2.987841 2.513292 0.000000
v 0.256904 0.965151 0.034849
vn -2.987841 -2.513292 -0.000000
v 0.256904 0.517460 0.034849
vn -2.417244 2.513291 -1.756166
v 0.257930 0.965151 0.031691
vn -2.417244 -2.513291 -1.756166
v 0.257930 0.517460 0.031691
vn -0.923324 2.513248 -2.841573
v 0.260616 0.965151 0.029740
vn -0.923324 -2.513248 -2.841573
v 0.260616 0.517460 0.029740
vn 0.923324 2.513248 -2.841573
v 0.263936 0.965151 0.029740
vn 0.923324 -2.513248 -2.841573
v 0.263936 0.517460 0.029740
vn 2.417244 2.513291 -1.756166
v 0.266622 0.965151 0.031691
vn 2.417244 -2.513291 -1.756166
v 0.266622 0.517460 0.031691
vn 0.000113 -6.118993 0.000000
v 0.262276 0.975000 0.034849
vn 0.000023 -5.747967 -2.055435
v 0.262276 0.974518 0.037893
vn 1.208406 -5.747910 -1.662702
v 0.260487 0.974518 0.037311
vn 1.954679 -5.748196 -0.634969
v 0.259382 0.974518 0.035790
vn 1.954638 -5.748273 0.634779
v 0.259382 0.974518 0.033909
vn 1.208223 -5.747998 1.662699
v 0.260487 0.974518 0.032387
vn -0.000023 -5.747967 2.055435
v 0.262276 0.974518 0.031806
vn -1.207945 -5.748050 1.662942
v 0.264065 0.974518 0.032387
vn -1.954837 -5.747908 0.635225
v 0.265171 0.974518 0.033909
vn -1.954862 -5.747862 -0.635339
v 0.265171 0.974518 0.035790
vn -1.208071 -5.748014 -1.662906
v 0.264065 0.974518 0.037311
vn 0.000003 -4.746135 -3.629113
v 0.262276 0.973119 0.040638
vn 2.133357 -4.745837 -2.935965
v 0.258873 0.973119 0.039533
vn 3.451410 -4.745938 -1.121462
v 0.256770 0.973119 0.036638
vn 3.451479 -4.745964 1.121361
v 0.256770 0.973119 0.033060
vn 2.133251 -4.745815 2.936122
v 0.258873 0.973119 0.030166
vn 0.000060 -4.746093 3.629134
v 0.262276 0.973119 0.029060
vn -2.133028 -4.746148 2.936009
v 0.265679 0.973119 0.030166
vn -3.451717 -4.745908 1.121407
v 0.267782 0.973119 0.033060
vn -3.451676 -4.745862 -1.121516
v 0.267782 0.973119 0.036638
vn -2.133127 -4.746097 -2.935943
v 0.265679 0.973119 0.039533
vn 0.000118 -3.353897 -4.791203
v 0.262276 0.970940 0.042817
vn 2.816052 -3.354238 -3.876431
v 0.257593 0.970940 0.041296
vn 4.556622 -3.354305 -1.480692
v 0.254698 0.970940 0.037311
vn 4.556652 -3.354246 1.480717
v 0.254698 0.970940 0.032387
vn 2.816096 -3.354251 3.876401
v 0.257593 0.970940 0.028403
vn 0.000089 -3.353975 4.791170
v 0.262276 0.970940 0.026881
vn -2.816339 -3.353775 3.875965
v 0.266960 0.970940 0.028403
vn -4.556803 -3.354257 1.480530
v 0.269854 0.970940 0.032387
vn -4.556788 -3.354400 -1.480412
v 0.269854 0.970940 0.037311
vn -2.816215 -3.353914 -3.875991
v 0.266960 0.970940 0.041296
vn 0.000013 -1.729581 -5.493425
v 0.262276 0.968194 0.044216
vn 3.228849 -1.729640 -4.444087
v 0.256770 0.968194 0.042427
vn 5.224276 -1.729440 -1.697458
v 0.253367 0.968194 0.037744
vn 5.224240 -1.729449 1.697492
v 0.253367 0.968194 0.031955
vn 3.228895 -1.729593 4.444055
v 0.256770 0.968194 0.027271
vn 0.000031 -1.729545 5.493458
v 0.262276 0.968194 0.025482
vn -3.228963 -1.729351 4.444240
v 0.267782 0.968194 0.027271
vn -5.224276 -1.729440 1.697458
v 0.271185 0.968194 0.031955
vn -5.224356 -1.729355 -1.697409
v 0.271185 0.968194 0.037744
vn -3.228912 -1.729246 -4.444343
v 0.267782 0.968194 0.042427
vn -0.000000 -0.000141 -5.727053
v 0.262276 0.965151 0.044698
vn 3.366255 -0.000110 -4.633497
v 0.256487 0.965151 0.042817
vn 5.446982 -0.000129 -1.769938
v 0.252909 0.965151 0.037893
vn 5.446982 -0.000153 1.769938
v 0.252909 0.965151 0.031806
vn 3.366255 -0.000173 4.633497
v 0.256487 0.965151 0.026881
vn 0.000000 -0.000141 5.727053
v 0.262276 0.965151 0.025000
vn -3.366255 -0.000110 4.633497
v 0.268065 0.965151 0.026881
vn -5.446982 -0.000129 1.769938
v 0.271643 0.965151 0.031806
vn -5.446982 -0.000153 -1.769938
v 0.271643 0.965151 0.037893
vn -3.366255 -0.000173 -4.633497
v 0.268065 0.965151 0.042817
vn 0.000031 1.729718 -5.493211
v 0.262276 0.962107 0.044216
vn 3.228750 1.729766 -4.443855
v 0.256770 0.962107 0.042427
vn 5.224005 1.729622 -1.697416
v 0.253367 0.962107 0.037744
vn 5.224041 1.729613 1.697382
v 0.253367 0.962107 0.031955
vn 3.228704 1.729812 4.443887
v 0.256770 0.962107 0.027271
vn 0.000013 1.729754 5.493179
v 0.262276 0.962107 0.025482
vn -3.228767 1.729418 4.444144
v 0.267782 0.962107 0.027271
vn -5.224121 1.729528 1.697333
v 0.271185 0.962107 0.031955
vn -5.224041 1.729613 -1.697382
v 0.271185 0.962107 0.037744
vn -3.228818 1.729523 -4.444041
v 0.267782 0.962107 0.042427
vn 0.000089 3.354451 -4.791037
v 0.262276 0.959362 0.042817
vn 2.816018 3.354728 -3.876294
v 0.257593 0.959362 0.041296
vn 4.556526 3.354722 -1.480676
v 0.254698 0.959362 0.037311
vn 4.556496 3.354782 1.480651
v 0.254698 0.959362 0.032387
vn 2.815974 3.354714 3.876323
v 0.257593 0.959362 0.028403
vn 0.000118 3.354373 4.791071
v 0.262276 0.959362 0.026881
vn -2.816137 3.354390 3.875883
v 0.266960 0.959362 0.028403
vn -4.556661 3.354877 1.480371
v 0.269854 0.959362 0.032387
vn -4.556677 3.354733 -1.480489
v 0.269854 0.959362 0.037311
vn -2.816261 3.354251 -3.875858
v 0.266960 0.959362 0.041296
vn 0.000060 4.746093 -3.629134
v 0.262276 0.957183 0.040638
vn 2.133251 4.745815 -2.936122
v 0.258873 0.957183 0.039533
vn 3.451479 4.745964 -1.121361
v 0.256770 0.957183 0.036638
vn 3.451410 4.745938 1.121462
v 0.256770 0.957183 0.033060
vn 2.133357 4.745837 2.935965
v 0.258873 0.957183 0.030166
vn 0.000003 4.746135 3.629113
v 0.262276 0.957183 0.029060
vn -2.133127 4.746097 2.935943
v 0.265679 0.957183 0.030166
vn -3.451676 4.745862 1.121516
v 0.267782 0.957183 0.033060
vn -3.451717 4.745908 -1.121407
v 0.267782 0.957183 0.036638
vn -2.133028 4.746148 -2.936009
v 0.265679 0.957183 0.039533
vn -0.000023 5.747967 -2.055435
v 0.262276 0.955784 0.037893
vn 1.208223 5.747998 -1.662699
v 0.260487 0.955784 0.037311
vn 1.954638 5.748273 -0.634779
v 0.259382 0.955784 0.035790
vn 1.954679 5.748196 0.634969
v 0.259382 0.955784 0.033909
vn 1.208406 5.747910 1.662702
v 0.260487 0.955784 0.032387
vn 0.000023 5.747967 2.055435
v 0.262276 0.955784 0.031806
vn -1.208071 5.748014 1.662906
v 0.264065 0.955784 0.032387
vn -1.954862 5.747862 0.635339
v 0.265171 0.955784 0.033909
vn -1.954837 5.747908 -0.635225
v 0.265171 0.955784 0.035790
vn -1.207945 5.748050 -1.662942
v 0.264065 0.955784 0.037311
vn 0.000113 6.118993 0.000000
v 0.262276 0.955302 0.034849
vn -1.570796 -1.570796 -1.570796
v 0.025000 0.897997 0.124164
vn 1.570796 -1.570796 -1.570796
v 0.248845 0.897997 0.124164
vn 1.570796 1.570796 -1.570796
v 0.248845 0.942766 0.124164
vn -1.570796 1.570796 -1.570796
v 0.025000 0.942766 0.124164
vn -1.570796 -1.570796 1.570796
v 0.025000 0.897997 0.124611
vn 1.570796 -1.570796 1.570796
v 0.248845 0.897997 0.124611
vn 1.570796 1.570796 1.570796
v 0.248845 0.942766 0.124611
vn -1.570796 1.570796 1.570796
v 0.025000 0.942766 0.124611
# 152 vertices, 0 vertices normals

f 1//1 4//4 2//2
f 2//2 4//4 3//3
f 1//1 6//6 5//5
f 1//1 2//2 6//6
f 1//1 5//5 4//4
f 4//4 5//5 8//8
f 4//4 8//8 7//7
f 4//4 7//7 3//3
f 2//2 7//7 6//6
f 2//2 3//3 7//7
f 6//6 8//8 5//5
f 6//6 7//7 8//8
f 9//9 10//10 11//11
f 10//10 12//12 11//11
f 13//13 11//11 12//12
f 14//14 10//10 9//9
f 10//10 15//15 12//12
f 15//15 16//16 12//12
f 13//13 12//12 16//16
f 14//14 15//15 10//10
f 15//15 17//17 16//16
f 17//17 18//18 16//16
f 13//13 16//16 18//18
f 14//14 17//17 15//15
f 17//17 19//19 18//18
f 19//19 20//20 18//18
f 13//13 18//18 20//20
f 14//14 19//19 17//17
f 19//19 21//21 20//20
f 21//21 22//22 20//20
f 13//13 20//20 22//22
f 14//14 21//21 19//19
f 21//21 23//23 22//22
f 23//23 24//24 22//22
f 13//13 22//22 24//24
f 14//14 23//23 21//21
f 23//23 25//25 24//24
f 25//25 26//26 24//24
f 13//13 24//24 26//26
f 14//14 25//25 23//23
f 25//25 27//27 26//26
f 27//27 28//28 26//26
f 13//13 26//26 28//28
f 14//14 27//27 25//25
f 27//27 29//29 28//28
f 29//29 30//30 28//28
f 13//13 28//28 30//30
f 14//14 29//29 27//27
f 29//29 9//9 30//30
f 9//9 11//11 30//30
f 13//13 30//30 11//11
f 14//14 9//9 29//29
f 31//31 32//32 33//33
f 32//32 34//34 33//33
f 35//35 33//33 34//34
f 36//36 32//32 31//31
f 32//32 37//37 34//34
f 37//37 38//38 34//34
f 35//35 34//34 38//38
f 36//36 37//37 32//32
f 37//37 39//39 38//38
f 39//39 40//40 38//38
f 35//35 38//38 40//40
f 36//36 39//39 37//37
f 39//39 41//41 40//40
f 41//41 42//42 40//40
f 35//35 40//40 42//42
f 36//36 41//41 39//39
f 41//41 43//43 42//42
f 43//43 44//44 42//42
f 35//35 42//42 44//44
f 36//36 43//43 41//41
f 43//43 45//45 44//44
f 45//45 46//46 44//44
f 35//35 44//44 46//46
f 36//36 45//45 43//43
f 45//45 47//47 46//46
f 47//47 48//48 46//46
f 35//35 46//46 48//48
f 36//36 47//47 45//45
f 47//47 49//49 48//48
f 49//49 50//50 48//48
f 35//35 48//48 50//50
f 36//36 49//49 47//47
f 49//49 51//51 50//50
f 51//51 52//52 50//50
f 35//35 50//50 52//52
f 36//36 51//51 49//49
f 51//51 31//31 52//52
f 31//31 33//33 52//52
f 35//35 52//52 33//33
f 36//36 31//31 51//51
f 54//54 55//55 53//53
f 55//55 56//56 53//53
f 56//56 57//57 53//53
f 57//57 58//58 53//53
f 58//58 59//59 53//53
f 59//59 60//60 53//53
f 60//60 61//61 53//53
f 61//61 62//62 53//53
f 62//62 63//63 53//53
f 63//63 54//54 53//53
f 54//54 64//64 55//55
f 64//64 65//65 55//55
f 55//55 65//65 56//56
f 65//65 66//66 56//56
f 56//56 66//66 57//57
f 66//66 67//67 57//57
f 57//57 67//67 58//58
f 67//67 68//68 58//58
f 58//58 68//68 59//59
f 68//68 69//69 59//59
f 59//59 69//69 60//60
f 69//69 70//70 60//60
f 60//60 70//70 61//61
f 70//70 71//71 61//61
f 61//61 71//71 62//62
f 71//71 72//72 62//62
f 62//62 72//72 63//63
f 72//72 73//73 63//63
f 63//63 73//73 54//54
f 73//73 64//64 54//54
f 64//64 74//74 65//65
f 74//74 75//75 65//65
f 65//65 75//75 66//66
f 75//75 76//76 66//66
f 66//66 76//76 67//67
f 76//76 77//77 67//67
f 67//67 77//77 68//68
f 77//77 78//78 68//68
f 68//68 78//78 69//69
f 78//78 79//79 69//69
f 69//69 79//79 70//70
f 79//79 80//80 70//70
f 70//70 80//80 71//71
f 80//80 81//81 71//71
f 71//71 81//81 72//72
f 81//81 82//82 72//72
f 72//72 82//82 73//73
f 82//82 83//83 73//73
f 73//73 83//83 64//64
f 83//83 74//74 64//64
f 74//74 84//84 75//75
f 84//84 85//85 75//75
f 75//75 85//85 76//76
f 85//85 86//86 76//76
f 76//76 86//86 77//77
f 86//86 87//87 77//77
f 77//77 87//87 78//78
f 87//87 88//88 78//78
f 78//78 88//88 79//79
f 88//88 89//89 79//79
f 79//79 89//89 80//80
f 89//89 90//90 80//80
f 80//80 90//90 81//81
f 90//90 91//91 81//81
f 81//81 91//91 82//82
f 91//91 92//92 82//82
f 82//82 92//92 83//83
f 92//92 93//93 83//83
f 83//83 93//93 74//74
f 93//93 84//84 74//74
f 84//84 94//94 85//85
f 94//94 95//95 85//85
f 85//85 95//95 86//86
f 95//95 96//96 86//86
f 86//86 96//96 87//87
f 96//96 97//97 87//87
f 87//87 97//97 88//88
f 97//97 98//98 88//88
f 88//88 98//98 89//89
f 98//98 99//99 89//89
f 89//89 99//99 90//90
f 99//99 100//100 90//90
f 90//90 100//100 91//91
f 100//100 101//101 91//91
f 91//91 101//101 92//92
f 101//101 102//102 92//92
f 92//92 102//102 93//93
f 102//102 103//103 93//93
f 93//93 103//103 84//84
f 103//103 94//94 84//84
f 94//94 104//104 95//95
f 104//104 105//105 95//95
f 95//95 105//105 96//96
f 105//105 106//106 96//96
f 96//96 106//106 97//97
f 106//106 107//107 97//97
f 97//97 107//107 98//98
f 107//107 108//108 98//98
f 98//98 108//108 99//99
f 108//108 109//109 99//99
f 99//99 109//109 100//100
f 109//109 110//110 100//100
f 100//100 110//110 101//101
f 110//110 111//111 101//101
f 101//101 111//111 102//102
f 111//111 112//112 102//102
f 102//102 112//112 103//103
f 112//112 113//113 103//103
f 103//103 113//113 94//94
f 113//113 104//104 94//94
f 104//104 114//114 105//105
f 114//114 115//115 105//105
f 105//105 115//115 106//106
f 115//115 116//116 106//106
f 106//106 116//116 107//107
f 116//116 117//117 107//107
f 107//107 117//117 108//108
f 117//117 118//118 108//108
f 108//108 118//118 109//109
f 118//118 119//119 109//109
f 109//109 119//119 110//110
f 119//119 120//120 110//110
f 110//110 120//120 111//111
f 120//120 121//121 111//111
f 111//111 121//121 112//112
f 121//121 122//122 112//112
f 112//112 122//122 113//113
f 122//122 123//123 113//113
f 113//113 123//123 104//104
f 123//123 114//114 104//104
f 114//114 124//124 115//115
f 124//124 125//125 115//115
f 115//115 125//125 116//116
f 125//125 126//126 116//116
f 116//116 126//126 117//117
f 126//126 127//127 117//117
f 117//117 127//127 118//118
f 127//127 128//128 118//118
f 118//118 128//128 119//119
f 128//128 129//129 119//119
f 119//119 129//129 120//120
f 129//129 130//130 120//120
f 120//120 130//130 121//121
f 130//130 131//131 121//121
f 121//121 131//131 122//122
f 131//131 132//132 122//122
f 122//122 132//132 123//123
f 132//132 133//133 123//123
f 123//123 133//133 114//114
f 133//133 124//124 114//114
f 124//124 134//134 125//125
f 134//134 135//135 125//125
f 125//125 135//135 126//126
f 135//135 136//136 126//126
f 126//126 136//136 127//127
f 136//136 137//137 127//127
f 127//127 137//137 128//128
f 137//137 138//138 128//128
f 128//128 138//138 129//129
f 138//138 139//139 129//129
f 129//129 139//139 130//130
f 139//139 140//140 130//130
f 130//130 140//140 131//131
f 140//140 141//141 131//131
f 131//131 141//141 132//132
f 141//141 142//142 132//132
f 132//132 142//142 133//133
f 142//142 143//143 133//133
f 133//133 143//143 124//124
f 143//143 134//134 124//124
f 134//134 144//144 135//135
f 135//135 144//144 136//136
f 136//136 144//144 137//137
f 137//137 144//144 138//138
f 138//138 144//144 139//139
f 139//139 144//144 140//140
f 140//140 144//144 141//141
f 141//141 144//144 142//142
f 142//142 144//144 143//143
f 143//143 144//144 134//134
f 145//145 148//148 146//146
f 146//146 148//148 147//147
f 145//145 150//150 149//149
f 145//145 146//146 150//150
f 145//145 149//149 148//148
f 148//148 149//149 152//152
f 148//148 152//152 151//151
f 148//148 151//151 147//147
f 146//146 151//151 150//150
f 146//146 147//147 151//151
f 150//150 152//152 149//149
f 150//150 151//151 152//152
# 284 faces, 0 coords texture

# End of File
